<?xml version="1.0" encoding="UTF-8" standalone="no"?>
<svg
   xmlns:dc="http://purl.org/dc/elements/1.1/"
   xmlns:cc="http://creativecommons.org/ns#"
   xmlns:rdf="http://www.w3.org/1999/02/22-rdf-syntax-ns#"
   xmlns:svg="http://www.w3.org/2000/svg"
   xmlns="http://www.w3.org/2000/svg"
   xmlns:sodipodi="http://sodipodi.sourceforge.net/DTD/sodipodi-0.dtd"
   xmlns:inkscape="http://www.inkscape.org/namespaces/inkscape"
   inkscape:version="1.0 (4035a4fb49, 2020-05-01)"
   sodipodi:docname="back_sides_top_bottom.svg"
   id="svg296"
   version="1.1"
   viewBox="0 0 600 800"
   height="800mm"
   width="600mm">
  <metadata
     id="metadata302">
    <rdf:RDF>
      <cc:Work
         rdf:about="">
        <dc:format>image/svg+xml</dc:format>
        <dc:type
           rdf:resource="http://purl.org/dc/dcmitype/StillImage" />
        <dc:title></dc:title>
      </cc:Work>
    </rdf:RDF>
  </metadata>
  <defs
     id="defs300">
    <marker
       style="overflow:visible"
       refY="0"
       refX="0"
       orient="auto"
       inkscape:stockid="Arrow2Sstart"
       inkscape:isstock="true"
       id="Arrow2Sstart">
      <path
         transform="matrix(0.3,0,0,0.3,-0.69,0)"
         style="fill:#000000;fill-opacity:1;stroke:#000000;stroke-opacity:1"
         id="Arrow2SstartPath"
         d="M 8.72,4.03 -2.21,0.02 8.72,-4 c -1.75,2.37 -1.74,5.62 0,8.03 z" />
    </marker>
    <marker
       style="overflow:visible"
       refY="0"
       refX="0"
       orient="auto"
       inkscape:stockid="Arrow2Send"
       inkscape:isstock="true"
       id="Arrow2Send">
      <path
         transform="matrix(-0.3,0,0,-0.3,0.69,0)"
         style="fill:#000000;fill-opacity:1;stroke:#000000;stroke-opacity:1"
         id="Arrow2SendPath"
         d="M 8.72,4.03 -2.21,0.02 8.72,-4 c -1.75,2.37 -1.74,5.62 0,8.03 z" />
    </marker>
  </defs>
  <sodipodi:namedview
     showguides="true"
     inkscape:current-layer="svg296"
     inkscape:window-maximized="1"
     inkscape:window-y="-9"
     inkscape:window-x="-9"
     inkscape:cy="1017.2161"
     inkscape:cx="280.51501"
     inkscape:zoom="0.29270716"
     showgrid="false"
     id="namedview298"
     inkscape:window-height="1001"
     inkscape:window-width="1920"
     inkscape:pageshadow="2"
     inkscape:pageopacity="0"
     guidetolerance="10"
     gridtolerance="10"
     objecttolerance="10"
     borderopacity="1"
     bordercolor="#666666"
     pagecolor="#ffffff" />
  <desc
     id="desc2">Outline to SVG export</desc>
  <path
     style="fill:#ffffff;fill-opacity:0;stroke:#ff0000;stroke-width:0.1905;stroke-miterlimit:4;stroke-dasharray:none;stroke-opacity:1"
     id="path284"
     d="m 0.35798954,0.31883466 v 0 356.00000534 0 0 H 150.35799 v 0 0 -355.99996534 0 0 L 100.358,33.680125 v 0 0 h -1e-5 v 0 0 0 H 50.35806 v 0 0 0 h -1e-5 v 0 0 z"
     opacity="1"
     stroke-width="0"
     stroke="#555555"
     fill="#000000"
     fill-rule="evenodd" />
  <g
     id="g286" />
  <g
     id="g288" />
  <g
     id="g290" />
  <g
     id="g292" />
  <g
     id="g294" />
  <path
     id="path1139"
     d="m 74.474675,108.00511 c -0.774097,-0.25202 -1.310362,-0.91525 -1.36298,-1.68567 -0.100909,-1.47745 1.4018,-2.49477 2.715501,-1.83837 0.333147,0.16646 0.440613,0.25235 0.674084,0.53875 0.745831,0.9149 0.402439,2.33863 -0.69089,2.8645 -0.287978,0.13852 -0.364784,0.15625 -0.732365,0.16913 -0.278963,0.01 -0.47244,-0.006 -0.60335,-0.0483 z"
     style="fill:#ffffff;fill-opacity:0;stroke:#000000;stroke-width:0.0429562;stroke-opacity:0" />
  <path
     id="path1141"
     d="m 74.366572,107.95951 c -1.576909,-0.60266 -1.674411,-2.71379 -0.16173,-3.50174 0.391168,-0.20375 1.181098,-0.20543 1.591318,-0.003 1.106771,0.54516 1.425279,1.94776 0.661583,2.91341 -0.343855,0.43479 -0.7694,0.64046 -1.371285,0.66277 -0.321263,0.0119 -0.566007,-0.0123 -0.719886,-0.0711 z"
     style="fill:#ff5555;fill-opacity:0;stroke:#000000;stroke-width:0.0607491;stroke-opacity:0" />
  <path
     id="path1143"
     d="m 74.366572,107.95951 c -1.576909,-0.60266 -1.674411,-2.71379 -0.16173,-3.50174 0.391168,-0.20375 1.181098,-0.20543 1.591318,-0.003 1.106771,0.54516 1.425279,1.94776 0.661583,2.91341 -0.343855,0.43479 -0.7694,0.64046 -1.371285,0.66277 -0.321263,0.0119 -0.566007,-0.0123 -0.719886,-0.0711 z"
     style="fill:#ff5555;fill-opacity:0;stroke:#000000;stroke-width:0.0607491;stroke-opacity:0" />
  <path
     id="path1145"
     d="m 74.366572,107.95951 c -1.576909,-0.60266 -1.674411,-2.71379 -0.16173,-3.50174 0.391168,-0.20375 1.181098,-0.20543 1.591318,-0.003 1.106771,0.54516 1.425279,1.94776 0.661583,2.91341 -0.343855,0.43479 -0.7694,0.64046 -1.371285,0.66277 -0.321263,0.0119 -0.566007,-0.0123 -0.719886,-0.0711 z"
     style="fill:#ff55e2;fill-opacity:0;stroke:#000000;stroke-width:0.0607491;stroke-opacity:0" />
  <path
     id="path1147"
     d="m 74.366572,107.95951 c -1.576909,-0.60266 -1.674411,-2.71379 -0.16173,-3.50174 0.391168,-0.20375 1.181098,-0.20543 1.591318,-0.003 1.106771,0.54516 1.425279,1.94776 0.661583,2.91341 -0.343855,0.43479 -0.7694,0.64046 -1.371285,0.66277 -0.321263,0.0119 -0.566007,-0.0123 -0.719886,-0.0711 z"
     style="fill:#ff55e2;fill-opacity:0;stroke:#000000;stroke-width:0.0607491;stroke-opacity:0" />
  <path
     id="path1149"
     d="m 71.300749,149.74982 c -4.879337,-0.57981 -7.642778,-1.19707 -11.431815,-2.55346 -6.5703,-2.35204 -12.876212,-6.62619 -17.249311,-11.69159 -4.675863,-5.41611 -7.315351,-10.21586 -9.634829,-17.52035 -2.277732,-7.17303 -2.269622,-16.38923 0.02085,-23.687944 1.854851,-5.910617 4.559776,-11.138995 8.10336,-15.663045 8.240085,-10.519984 22.452171,-16.854374 36.033794,-16.060417 3.448976,0.20162 4.735338,0.368252 7.348368,0.95188 6.533131,1.459196 12.554468,4.353587 17.909854,8.609068 2.2113,1.757141 5.89796,5.439699 7.28763,7.279532 3.66005,4.845676 6.49199,10.760943 7.72934,16.144804 1.48953,6.481052 1.6915,12.543622 0.61889,18.576762 -1.69838,9.55284 -6.57204,18.08614 -14.17535,24.81965 -6.312748,5.59059 -13.95582,9.13501 -22.594942,10.47826 -1.723408,0.26796 -8.5506,0.48502 -9.96583,0.31685 z"
     style="fill:#2b0000;fill-opacity:0;stroke:#000000;stroke-width:0.171825;stroke-opacity:0" />
  <path
     id="path1151"
     d="m 71.300749,149.74982 c -4.879337,-0.57981 -7.642778,-1.19707 -11.431815,-2.55346 -6.5703,-2.35204 -12.876212,-6.62619 -17.249311,-11.69159 -4.675863,-5.41611 -7.315351,-10.21586 -9.634829,-17.52035 -2.277732,-7.17303 -2.269622,-16.38923 0.02085,-23.687944 1.854851,-5.910617 4.559776,-11.138995 8.10336,-15.663045 8.240085,-10.519984 22.452171,-16.854374 36.033794,-16.060417 3.448976,0.20162 4.735338,0.368252 7.348368,0.95188 6.533131,1.459196 12.554468,4.353587 17.909854,8.609068 2.2113,1.757141 5.89796,5.439699 7.28763,7.279532 3.66005,4.845676 6.49199,10.760943 7.72934,16.144804 1.48953,6.481052 1.6915,12.543622 0.61889,18.576762 -1.69838,9.55284 -6.57204,18.08614 -14.17535,24.81965 -6.312748,5.59059 -13.95582,9.13501 -22.594942,10.47826 -1.723408,0.26796 -8.5506,0.48502 -9.96583,0.31685 z"
     style="fill:#ff00ff;fill-opacity:0;stroke:#000000;stroke-width:0.171825;stroke-opacity:0" />
  <path
     id="path1153"
     d="m 71.300749,149.74982 c -4.879337,-0.57981 -7.642778,-1.19707 -11.431815,-2.55346 -6.5703,-2.35204 -12.876212,-6.62619 -17.249311,-11.69159 -4.675863,-5.41611 -7.315351,-10.21586 -9.634829,-17.52035 -2.277732,-7.17303 -2.269622,-16.38923 0.02085,-23.687944 1.854851,-5.910617 4.559776,-11.138995 8.10336,-15.663045 8.240085,-10.519984 22.452171,-16.854374 36.033794,-16.060417 3.448976,0.20162 4.735338,0.368252 7.348368,0.95188 6.533131,1.459196 12.554468,4.353587 17.909854,8.609068 2.2113,1.757141 5.89796,5.439699 7.28763,7.279532 3.66005,4.845676 6.49199,10.760943 7.72934,16.144804 1.48953,6.481052 1.6915,12.543622 0.61889,18.576762 -1.69838,9.55284 -6.57204,18.08614 -14.17535,24.81965 -6.312748,5.59059 -13.95582,9.13501 -22.594942,10.47826 -1.723408,0.26796 -8.5506,0.48502 -9.96583,0.31685 z"
     style="fill:#ff00ff;fill-opacity:0;stroke:#000000;stroke-width:0.171825;stroke-opacity:0" />
  <path
     id="path1155"
     d="M 25.251745,106.12555 V 56.382139 h 49.743236 49.743239 v 49.743411 49.74324 H 74.994981 25.251745 Z m 54.554324,43.64507 c 7.039832,-0.79681 13.217956,-2.98393 19.053055,-6.74498 2.823056,-1.81962 4.360026,-3.08131 7.161106,-5.87852 4.65004,-4.64363 7.6297,-9.12173 9.96104,-14.97035 4.28978,-10.76171 3.74331,-24.746397 -1.37164,-35.101903 -2.33615,-4.729685 -5.00392,-8.51807 -8.1637,-11.592997 C 102.5157,71.657183 99.000703,69.128492 94.497077,66.885854 88.774163,64.036059 83.693973,62.728655 77.056876,62.39756 65.8208,61.837046 54.645832,65.706318 46.050353,73.1334 c -8.066394,6.969916 -13.747176,18.198376 -14.779178,29.21201 -0.729713,7.78752 0.841791,15.96689 4.467178,23.25079 4.168224,8.37453 10.047157,14.58704 18.123947,19.15232 4.667774,2.63839 11.323711,4.61713 17.352536,5.15872 1.837563,0.16507 6.593999,0.0894 8.591233,-0.13662 z m -42.962054,-3.25274 c 1.472453,-0.61523 1.491831,-2.90522 0.03045,-3.59869 -0.724762,-0.34392 -0.988306,-0.34949 -1.73691,-0.0367 -1.488098,0.62177 -1.497266,2.99199 -0.01408,3.63805 0.678855,0.29569 1.007687,0.29519 1.720533,-0.003 z M 115.9322,145.984 c 0.42684,-0.4521 0.55828,-0.7439 0.55779,-1.23834 -7.9e-4,-0.939 -0.53033,-1.70309 -1.35017,-1.94872 -0.85912,-0.2574 -1.48066,-0.10281 -2.1077,0.52423 -0.40785,0.40786 -0.49346,0.63815 -0.49346,1.32757 0,0.97099 0.32675,1.52917 1.09595,1.8722 0.79762,0.35571 1.64086,0.15864 2.29759,-0.53694 z M 36.832971,68.513928 c 0.7518,-0.314124 1.133798,-0.885957 1.133798,-1.697249 0,-1.781403 -1.705547,-2.706878 -3.192709,-1.732452 -1.138621,0.746053 -0.936281,2.868893 0.325766,3.417795 0.701079,0.304919 1.026514,0.307155 1.733145,0.01191 z m 78.664099,-0.43353 c 0.37556,-0.420331 0.47809,-0.703998 0.47809,-1.322761 0,-0.666697 -0.0897,-0.877414 -0.5842,-1.371886 -0.49866,-0.498657 -0.70247,-0.584205 -1.39178,-0.584205 -0.69493,0 -0.89206,0.08448 -1.41324,0.605655 -0.56528,0.56529 -0.60017,0.662747 -0.52334,1.462252 0.1299,1.351899 0.83061,1.932426 2.18874,1.813335 0.59423,-0.05211 0.87563,-0.188182 1.24573,-0.60239 z"
     style="fill:#ff00ff;fill-opacity:0;stroke:#000000;stroke-width:0.171825;stroke-opacity:0" />
  <path
     id="path1157"
     d="m 112.77922,67.997485 c -1.19511,-1.195104 -0.44364,-3.01127 1.24969,-3.020293 1.0023,-0.0053 1.77442,0.753901 1.77442,1.744827 0,0.957135 -0.87559,1.859671 -1.80415,1.859671 -0.49392,0 -0.7661,-0.130339 -1.21996,-0.584205 z"
     style="fill:#ff00ff;fill-opacity:0;stroke:#000000;stroke-width:0.171825;stroke-opacity:0" />
  <path
     id="path1159"
     d="m 35.099672,68.246593 c -0.635024,-0.387202 -0.913045,-0.833691 -0.913045,-1.4663 0,-1.242774 1.20523,-2.174708 2.33168,-1.802945 1.591808,0.525344 1.740956,2.573372 0.243793,3.347586 -0.656477,0.339476 -1.004057,0.323095 -1.662428,-0.07834 z"
     style="fill:#ff8080;fill-opacity:0;stroke:#a70000;stroke-width:0.171825;stroke-opacity:0" />
  <path
     id="path1161"
     d="m 35.119778,68.246593 c -0.670475,-0.408818 -0.913045,-0.835599 -0.913045,-1.60642 0,-1.232586 1.311206,-2.085102 2.46531,-1.602888 1.456095,0.608396 1.521418,2.557859 0.110162,3.287649 -0.656476,0.339476 -1.004056,0.323095 -1.662427,-0.07834 z"
     style="fill:#ff8080;fill-opacity:0;stroke:#a70000;stroke-width:0.171825;stroke-opacity:0" />
  <path
     id="path3105"
     d="m 112.79932,67.997485 c -1.18368,-1.183685 -0.44245,-3.016472 1.21996,-3.016472 1.0696,0 1.80416,0.768821 1.80416,1.888315 0,0.805125 -0.95588,1.712362 -1.80416,1.712362 -0.49391,0 -0.76609,-0.130339 -1.21996,-0.584205 z"
     style="fill:#ff8080;fill-opacity:0;stroke:#a70000;stroke-width:0.171825;stroke-opacity:0" />
  <path
     id="path3107"
     d="m 112.79932,67.997485 c -1.18368,-1.183685 -0.44245,-3.016472 1.21996,-3.016472 1.0696,0 1.80416,0.768821 1.80416,1.888315 0,0.805125 -0.95588,1.712362 -1.80416,1.712362 -0.49391,0 -0.76609,-0.130339 -1.21996,-0.584205 z"
     style="fill:#00ff00;fill-opacity:0;stroke:#a70000;stroke-width:0.171825;stroke-opacity:0" />
  <path
     id="path3109"
     d="m 71.406768,149.75404 c -0.283512,-0.0389 -1.250024,-0.15325 -2.147808,-0.25404 -3.182477,-0.35726 -7.37942,-1.47057 -11.047188,-2.93045 -5.27858,-2.10103 -11.067325,-6.07603 -14.792047,-10.15737 -4.794776,-5.25385 -8.03625,-10.84831 -10.14073,-17.5019 -1.548895,-4.89703 -1.901156,-7.26584 -1.901201,-12.78473 -4.2e-5,-5.24687 0.352708,-7.704255 1.736522,-12.097297 3.642219,-11.562548 10.363819,-20.143133 20.164951,-25.742041 7.17042,-4.096107 15.885202,-6.18077 23.883628,-5.713198 3.446629,0.201485 4.733303,0.368022 7.348368,0.951121 6.61045,1.473981 12.769206,4.475578 18.253507,8.896223 1.94991,1.571739 6.14726,5.859555 7.30601,7.46348 2.56912,3.556176 5.09351,8.329971 6.27205,11.860884 4.38876,13.148648 2.57097,27.643938 -4.83451,38.551128 -2.40183,3.53754 -6.82926,8.23767 -10.03224,10.65015 -5.969271,4.49604 -12.697321,7.32445 -20.189395,8.48743 -1.708841,0.26526 -8.644186,0.49032 -9.879917,0.32061 z"
     style="fill:#00ff00;fill-opacity:0;fill-rule:evenodd;stroke:#a70000;stroke-width:0.171825;stroke-opacity:0" />
  <path
     id="path3111"
     d="m 71.406768,149.75404 c -0.283512,-0.0389 -1.250024,-0.15325 -2.147808,-0.25404 -3.182477,-0.35726 -7.37942,-1.47057 -11.047188,-2.93045 -5.27858,-2.10103 -11.067325,-6.07603 -14.792047,-10.15737 -4.794776,-5.25385 -8.03625,-10.84831 -10.14073,-17.5019 -1.548895,-4.89703 -1.901156,-7.26584 -1.901201,-12.78473 -4.2e-5,-5.24687 0.352708,-7.704255 1.736522,-12.097297 3.642219,-11.562548 10.363819,-20.143133 20.164951,-25.742041 7.17042,-4.096107 15.885202,-6.18077 23.883628,-5.713198 3.446629,0.201485 4.733303,0.368022 7.348368,0.951121 6.61045,1.473981 12.769206,4.475578 18.253507,8.896223 1.94991,1.571739 6.14726,5.859555 7.30601,7.46348 2.56912,3.556176 5.09351,8.329971 6.27205,11.860884 4.38876,13.148648 2.57097,27.643938 -4.83451,38.551128 -2.40183,3.53754 -6.82926,8.23767 -10.03224,10.65015 -5.969271,4.49604 -12.697321,7.32445 -20.189395,8.48743 -1.708841,0.26526 -8.644186,0.49032 -9.879917,0.32061 z"
     style="fill:#00ff00;fill-opacity:0;fill-rule:evenodd;stroke:#a70000;stroke-width:0.171825;stroke-opacity:0" />
  <path
     id="path3113"
     d="M 25.271851,106.12555 V 56.382139 h 49.743235 49.743234 v 49.743411 49.74324 H 75.015086 25.271851 Z m 54.468413,43.64972 c 8.420584,-0.9725 15.356798,-3.74741 22.079466,-8.83317 2.00423,-1.51622 6.08953,-5.51998 7.64908,-7.49643 4.59556,-5.82403 7.5542,-12.36865 8.77752,-19.41618 1.07955,-6.21934 0.74873,-13.09559 -0.94869,-19.718504 -1.72983,-6.749413 -5.66386,-13.643891 -10.56461,-18.514685 -4.14251,-4.1172 -7.644591,-6.650728 -12.468218,-9.019966 -5.706983,-2.803115 -10.605534,-4.0485 -17.181282,-4.368091 -8.447098,-0.410543 -16.676558,1.580534 -24.207258,5.856822 -9.462479,5.373248 -16.330295,14.205379 -19.956454,25.664447 -2.01953,6.381937 -2.361375,14.013037 -0.942843,21.047377 0.386607,1.91713 2.108348,7.0987 3.036993,9.1398 2.877984,6.3256 7.410532,12.3042 12.323223,16.25477 1.783847,1.4345 5.287468,3.73758 7.316674,4.80958 4.468283,2.36052 11.372709,4.33916 16.495167,4.72711 2.101477,0.15916 6.675038,0.0884 8.591232,-0.13288 z m -42.888669,-3.2737 c 1.509175,-0.71615 1.488876,-2.89625 -0.03369,-3.61876 -0.768803,-0.36482 -1.657766,-0.19341 -2.293374,0.4422 -0.403797,0.40379 -0.489622,0.63583 -0.489622,1.32373 0,0.97281 0.328631,1.53249 1.095949,1.86644 0.701387,0.30526 1.05465,0.30247 1.720739,-0.0136 z m 78.333015,0.0265 c 0.74348,-0.31468 1.1491,-0.80352 1.26637,-1.52618 0.19272,-1.18763 -0.8177,-2.36487 -2.02811,-2.36295 -0.5284,8e-4 -1.44425,0.56687 -1.70474,1.0536 -0.29714,0.55521 -0.2536,1.61145 0.0879,2.13266 0.2785,0.42504 1.12498,0.9155 1.60536,0.93016 0.12117,0.004 0.46911,-0.0986 0.77321,-0.22729 z M 36.86412,68.509314 c 1.472454,-0.615231 1.491832,-2.905215 0.03045,-3.598685 -0.724762,-0.343922 -0.988306,-0.349491 -1.73691,-0.03671 -0.693952,0.289951 -1.122754,1.03193 -1.122754,1.942756 0,0.796078 0.376663,1.376886 1.095949,1.689936 0.691997,0.301173 1.017699,0.301681 1.733264,0.0027 z m 78.57374,-0.323062 c 0.3124,-0.312401 0.45639,-0.675571 0.51669,-1.303242 0.0784,-0.815467 0.0456,-0.908217 -0.52204,-1.475809 -0.52117,-0.521173 -0.7183,-0.605655 -1.41323,-0.605655 -0.68932,0 -0.89312,0.08555 -1.39178,0.584205 -0.48994,0.48994 -0.5842,0.707999 -0.5842,1.351426 0,0.82814 0.44172,1.575501 1.09763,1.857121 0.64222,0.275741 1.82288,0.066 2.29693,-0.408046 z"
     style="fill:#00ff00;fill-opacity:0;fill-rule:evenodd;stroke:#a70000;stroke-width:0.171825;stroke-opacity:0" />
  <path
     id="path3115"
     d="m 112.79932,67.997485 c -1.18368,-1.183685 -0.44245,-3.016472 1.21996,-3.016472 1.0696,0 1.80416,0.768821 1.80416,1.888315 0,0.805125 -0.95588,1.712362 -1.80416,1.712362 -0.49391,0 -0.76609,-0.130339 -1.21996,-0.584205 z"
     style="fill:#00ff00;fill-opacity:0;fill-rule:evenodd;stroke:#a70000;stroke-width:0.171825;stroke-opacity:0" />
  <ellipse
     ry="10.567216"
     rx="18.299324"
     cy="99.126472"
     cx="75.001465"
     id="path3127"
     style="opacity:0.95;fill:#ffd5d5;fill-opacity:0;fill-rule:evenodd;stroke:#a70000;stroke-width:0.264583;stroke-opacity:0" />
  <path
     id="path4531"
     d="m 113.88037,68.67059 -0.12695,-0.0087 -0.12873,-0.0263 c -0.12743,-0.02603 -0.12993,-0.02672 -0.24749,-0.06756 -0.11259,-0.03911 -0.1245,-0.04413 -0.22886,-0.09644 -0.10214,-0.0512 -0.11754,-0.06022 -0.21325,-0.124954 -0.0935,-0.0632 -0.1119,-0.07745 -0.19607,-0.151398 -0.0846,-0.0743 -0.10029,-0.09001 -0.17493,-0.174884 -0.0746,-0.08483 -0.0883,-0.1026 -0.15193,-0.196673 -0.0641,-0.0949 -0.0744,-0.112257 -0.12388,-0.210695 -0.0511,-0.10146 -0.0563,-0.113869 -0.0965,-0.228857 l -0.0425,-0.121579 -0.0262,-0.128733 -0.0262,-0.12873 -0.008,-0.127839 -0.008,-0.127836 0.008,-0.127839 0.008,-0.127836 0.0262,-0.128733 0.0262,-0.12873 0.0427,-0.122291 c 0.0413,-0.118377 0.0445,-0.125793 0.0985,-0.231655 0.0499,-0.09788 0.0629,-0.119894 0.12352,-0.209625 0.0611,-0.09039 0.0758,-0.109402 0.14932,-0.193129 0.0743,-0.08463 0.0899,-0.100201 0.17549,-0.175464 0.0866,-0.07618 0.10202,-0.08805 0.19846,-0.152858 0.0943,-0.06338 0.11488,-0.07548 0.21001,-0.123499 0.1,-0.05046 0.1118,-0.05545 0.22707,-0.0957 l 0.12161,-0.04247 0.13052,-0.02646 0.13052,-0.02646 0.12694,-0.0082 0.12695,-0.0082 0.12694,0.0083 0.12694,0.0083 0.12874,0.02619 c 0.12779,0.02601 0.12959,0.02649 0.24676,0.06727 0.11166,0.03887 0.12408,0.04411 0.23036,0.09727 0.10462,0.05233 0.11938,0.06095 0.21482,0.125413 0.0933,0.06302 0.11077,0.07653 0.19509,0.150799 0.0835,0.07353 0.10073,0.09079 0.17493,0.174942 0.0756,0.08571 0.0879,0.10168 0.15056,0.194847 0.0612,0.09101 0.0741,0.112927 0.12465,0.212339 0.0549,0.107934 0.0575,0.114051 0.0985,0.232431 0.0416,0.120187 0.0424,0.123016 0.0675,0.246735 l 0.0255,0.125156 0.009,0.129627 0.009,0.129625 -0.009,0.129624 -0.009,0.129625 -0.0255,0.125156 c -0.0252,0.123997 -0.0259,0.126301 -0.0681,0.248486 -0.042,0.121319 -0.0436,0.125145 -0.0997,0.234757 -0.0505,0.09868 -0.0646,0.12261 -0.123,0.209227 -0.0595,0.08823 -0.0741,0.107069 -0.14917,0.192561 -0.0768,0.0874 -0.0906,0.101219 -0.17806,0.177932 -0.0852,0.07474 -0.1048,0.08991 -0.19317,0.149593 -0.0907,0.06126 -0.10723,0.07089 -0.21277,0.123862 -0.10834,0.05438 -0.1206,0.0596 -0.23064,0.09806 -0.11489,0.04016 -0.11768,0.04092 -0.24495,0.06704 l -0.12873,0.02643 -0.118,0.0076 c -0.0649,0.0042 -0.12364,0.0081 -0.13052,0.0088 -0.007,7.94e-4 -0.0696,-0.0027 -0.13946,-0.0075 z"
     style="opacity:1;fill:#603939;fill-opacity:0;fill-rule:evenodd;stroke:#ff0000;stroke-width:0.1905;stroke-miterlimit:4;stroke-dasharray:none;stroke-opacity:1" />
  <path
     id="path4537"
     d="m 35.683213,68.600719 c -0.794334,-0.145145 -1.406152,-0.742921 -1.566481,-1.530535 -0.04479,-0.220041 -0.04486,-0.510685 -1.62e-4,-0.729133 0.0591,-0.288846 0.153083,-0.507892 0.31744,-0.739857 0.363183,-0.512572 0.94411,-0.813316 1.571032,-0.813316 0.519343,0 0.983144,0.194458 1.353997,0.56769 0.272095,0.273841 0.440317,0.587145 0.529135,0.985483 0.03571,0.16017 0.03577,0.552376 1.01e-4,0.722328 -0.05669,0.270111 -0.169387,0.533006 -0.321908,0.750932 -0.161259,0.230416 -0.449326,0.479788 -0.700977,0.606822 -0.121682,0.06143 -0.311761,0.128165 -0.459848,0.16146 -0.166005,0.03732 -0.562777,0.04728 -0.722326,0.01812 z"
     style="opacity:1;fill:#603939;fill-opacity:0;fill-rule:evenodd;stroke:#ff0000;stroke-width:0.1905;stroke-miterlimit:4;stroke-dasharray:none;stroke-opacity:1" />
  <path
     id="path4539"
     d="m 35.813566,146.62077 c -0.131612,-0.01 -0.323128,-0.0506 -0.46118,-0.0988 -0.823343,-0.28714 -1.351444,-1.08032 -1.294902,-1.94487 0.05615,-0.85857 0.681371,-1.57773 1.527225,-1.75669 0.673809,-0.14256 1.381622,0.0945 1.837372,0.61536 0.459606,0.52528 0.599652,1.24486 0.370287,1.90261 -0.222078,0.63684 -0.77666,1.11977 -1.435901,1.25037 -0.187923,0.0372 -0.344617,0.0465 -0.542901,0.032 z"
     style="opacity:1;fill:#603939;fill-opacity:0;fill-rule:evenodd;stroke:#ff0000;stroke-width:0.1905;stroke-miterlimit:4;stroke-dasharray:none;stroke-opacity:1" />
  <path
     id="path4541"
     d="m 114.33058,146.60349 c -0.32259,-0.0241 -0.65675,-0.14091 -0.92463,-0.32321 -0.8046,-0.54755 -1.07898,-1.59241 -0.64469,-2.45504 0.43573,-0.86551 1.435,-1.27254 2.34886,-0.95676 0.46801,0.16172 0.86563,0.5097 1.08821,0.95237 0.35256,0.70113 0.24506,1.54261 -0.27232,2.13167 -0.33542,0.38189 -0.80054,0.61389 -1.30579,0.65133 -0.0747,0.006 -0.14392,0.01 -0.15376,0.009 -0.01,-5.3e-4 -0.071,-0.005 -0.13588,-0.01 z"
     style="opacity:1;fill:#603939;fill-opacity:0;fill-rule:evenodd;stroke:#ff0000;stroke-width:0.1905;stroke-miterlimit:4;stroke-dasharray:none;stroke-opacity:1" />
  <path
     id="path4543"
     d="M 71.684363,149.7621 C 66.954079,149.40667 62.758041,148.39589 57.867118,146.43368 51.85883,144.0232 45.55885,139.28159 41.3205,133.98005 c -3.619627,-4.52762 -6.005253,-8.95619 -7.929409,-14.7198 -3.121186,-9.34918 -2.800223,-19.410043 0.916024,-28.71374 3.958291,-9.909649 10.330839,-17.383329 19.010035,-22.294914 7.177328,-4.061674 15.681005,-6.103247 23.70746,-5.691716 3.089966,0.15843 4.807815,0.362296 6.958502,0.825817 8.506015,1.833221 15.94504,5.941788 22.495198,12.424069 3.1641,3.131314 5.39782,6.323956 7.83277,11.195351 4.44293,8.888574 5.60384,20.160043 3.09554,30.055203 -2.13224,8.41165 -6.78744,15.92778 -13.59986,21.95789 -8.690542,7.69255 -20.438426,11.62183 -32.122397,10.74389 z"
     style="opacity:1;fill:#603939;fill-opacity:0;fill-rule:evenodd;stroke:#ff0000;stroke-width:0.1905;stroke-miterlimit:4;stroke-dasharray:none;stroke-opacity:1" />
  <path
     id="path4545"
     d="m 104.79305,74.19767 c -0.10099,-0.09266 -0.38516,-0.346575 -0.57201,-0.511098 -0.66231,-0.583187 -1.37299,-1.176078 -2.04018,-1.702033 -0.0438,-0.0345 -0.0874,-0.06887 -0.0969,-0.07636 l -0.0173,-0.01363 0.0964,-5.29e-4 0.0964,-5.29e-4 0.83128,0.680598 0.83128,0.680598 0.44817,0.406019 0.44816,0.406022 v 0.07612 c 0,0.04187 -5.3e-4,0.07612 -10e-4,0.07612 -5.3e-4,0 -0.0115,-0.0096 -0.0243,-0.0213 z"
     style="opacity:1;fill:#603939;fill-opacity:0;fill-rule:evenodd;stroke:#ff0000;stroke-width:0.000264583;stroke-miterlimit:4;stroke-dasharray:none;stroke-opacity:1" />
  <rect
     y="205.19377"
     x="5.3579898"
     height="15"
     width="140"
     id="rect4551"
     style="opacity:1;fill:#ffffff;fill-opacity:1;fill-rule:evenodd;stroke:#ff0000;stroke-width:0.1905;stroke-miterlimit:4;stroke-dasharray:none;stroke-opacity:0" />
  <circle
     r="2.441853"
     cy="212.69377"
     cx="12.043825"
     id="path4553"
     style="opacity:1;fill:#ffffff;fill-opacity:1;fill-rule:evenodd;stroke:#ff0000;stroke-width:0.116294;stroke-miterlimit:4;stroke-dasharray:none;stroke-opacity:1" />
  <circle
     style="opacity:1;fill:#ffffff;fill-opacity:1;fill-rule:evenodd;stroke:#ff0000;stroke-width:0.116294;stroke-miterlimit:4;stroke-dasharray:none;stroke-opacity:1"
     id="path4553-3"
     cx="139.12689"
     cy="212.69377"
     r="2.441853" />
  <text
     id="text4712"
     y="51.055592"
     x="19.051329"
     style="font-style:normal;font-variant:normal;font-weight:normal;font-stretch:normal;font-size:8.46667px;line-height:1.25;font-family:Habbo;-inkscape-font-specification:Habbo;letter-spacing:0px;word-spacing:0px;stroke-width:0.264583"
     xml:space="preserve"><tspan
       style="font-style:normal;font-variant:normal;font-weight:normal;font-stretch:normal;font-size:8.46667px;font-family:Habbo;-inkscape-font-specification:Habbo;stroke-width:0.264583"
       y="51.055592"
       x="19.051329"
       id="tspan4710"
       sodipodi:role="line">clocks are robots too</tspan></text>
  <circle
     r="3.3977053"
     cy="241.58722"
     cx="75.357986"
     id="path4714"
     style="opacity:1;fill:#ffffff;fill-opacity:0;fill-rule:evenodd;stroke:#ff0000;stroke-width:0.204589;stroke-miterlimit:4;stroke-dasharray:none;stroke-opacity:1" />
  <path
     fill-rule="evenodd"
     fill="#000000"
     stroke="#555555"
     stroke-width="0"
     opacity="1"
     d="m 150.35799,0.3188292 v 0 356.0000108 0 0 h 150 v 0 0 -355.9999708 0 0 L 250.358,33.680121 v 0 0 h -1e-5 v 0 0 0 h -49.99993 v 0 0 0 h -1e-5 v 0 0 z"
     id="path284-3"
     style="fill:#ffffff;fill-opacity:0;stroke:#ff0000;stroke-width:0.1905;stroke-miterlimit:4;stroke-dasharray:none;stroke-opacity:1" />
  <rect
     y="356.31885"
     x="0.54832244"
     height="355.80969"
     width="149.80966"
     id="rect4731"
     style="opacity:1;fill:#ffffff;fill-opacity:0;fill-rule:evenodd;stroke:#ff0000;stroke-width:0.190328;stroke-miterlimit:4;stroke-dasharray:none;stroke-opacity:1" />
  <rect
     style="opacity:1;fill:#ffffff;fill-opacity:0;fill-rule:evenodd;stroke:#ff0000;stroke-width:0.190328;stroke-miterlimit:4;stroke-dasharray:none;stroke-opacity:1"
     id="rect4731-8"
     width="149.80966"
     height="355.80969"
     x="150.35799"
     y="356.31885" />
  <rect
     y="13.842339"
     x="301.98126"
     height="150"
     width="150"
     id="rect4748"
     style="opacity:1;fill:#ffffff;fill-opacity:0;fill-rule:evenodd;stroke:#ff0000;stroke-width:0.1905;stroke-miterlimit:4;stroke-dasharray:none;stroke-opacity:1" />
  <rect
     y="163.84235"
     x="301.98126"
     height="59.791691"
     width="149.98219"
     id="rect4750"
     style="opacity:1;fill:#ffffff;fill-opacity:0;fill-rule:evenodd;stroke:#ff0000;stroke-width:0.208307;stroke-miterlimit:4;stroke-dasharray:none;stroke-opacity:1" />
  <rect
     y="223.63403"
     x="301.98126"
     height="50"
     width="150"
     id="rect4752"
     style="opacity:1;fill:#ffffff;fill-opacity:0;fill-rule:evenodd;stroke:#ff0000;stroke-width:0.1905;stroke-miterlimit:4;stroke-dasharray:none;stroke-opacity:1" />
  <rect
     style="opacity:1;fill:#ffffff;fill-opacity:0;fill-rule:evenodd;stroke:#ff0000;stroke-width:0.208307;stroke-miterlimit:4;stroke-dasharray:none;stroke-opacity:1"
     id="rect4750-6"
     width="149.98219"
     height="59.791691"
     x="301.98126"
     y="273.63403" />
  <path
     id="path4783"
     d="m 221.26128,178.20876 c -0.29998,-0.20983 -0.15465,-0.25411 0.59532,-0.18137 0.64492,0.0626 0.99218,-0.014 0.99218,-0.21883 0,-0.17328 0.29585,-0.38931 0.65743,-0.48006 0.39379,-0.0988 0.70608,-0.40212 0.77874,-0.75629 0.0667,-0.32521 0.23482,-1.06753 0.37356,-1.64962 l 0.25225,-1.05833 0.0274,0.88194 c 0.0379,1.22246 0.58838,0.95427 1.0369,-0.50518 0.57488,-1.8706 0.45353,-7.61659 -0.14815,-7.01491 -0.0941,0.0942 -0.19418,0.31655 -0.22231,0.49424 -0.0281,0.17769 -0.18342,1.02955 -0.34512,1.89302 -0.16169,0.86347 -0.29398,2.1434 -0.29398,2.84427 0,0.70088 -0.0909,1.27433 -0.20198,1.27433 -0.24112,0 -0.20079,-3.54609 0.0559,-4.9143 0.0995,-0.53013 0.43302,-1.48297 0.74125,-2.11741 0.53086,-1.09266 0.53648,-1.18 0.10646,-1.65516 -0.7445,-0.82267 -0.61421,-3.84093 0.34705,-8.03958 0.25714,-1.12314 0.4042,-2.10541 0.32679,-2.18281 -0.72031,-0.72032 -1.97369,0.72633 -2.99553,3.45745 -0.58728,1.56965 -2.40983,4.02375 -3.32852,4.48193 -1.15943,0.57824 -1.32781,0.90885 -1.51192,2.96851 -0.1007,1.12653 -0.24671,2.45579 -0.32447,2.9539 -0.16265,1.04195 -1.62561,5.30755 -1.96269,5.72269 -0.27076,0.33346 -0.0145,1.49482 0.39009,1.76812 0.56206,0.37964 1.45469,0.194 1.88884,-0.39282 l 0.44043,-0.59531 -0.17141,0.74961 c -0.14018,0.61304 -0.0721,0.77559 0.3739,0.89221 0.94974,0.24836 0.0799,0.87172 -1.21638,0.87172 -1.05264,0 -1.22823,-0.0989 -1.95414,-1.10103 -1.24075,-1.7128 -1.45383,-2.75699 -1.11845,-5.48087 0.29898,-2.42828 1.19342,-4.82308 2.54342,-6.80978 0.44001,-0.64752 0.6922,-1.37734 0.6922,-2.00313 0,-1.27883 0.46823,-2.27959 1.16464,-2.48921 0.61367,-0.18471 2.01036,-1.4019 2.01036,-1.75199 0,-0.44598 1.90215,-4.06044 2.43751,-4.63176 0.81567,-0.87045 0.31794,-1.26916 -1.55142,-1.2428 l -1.54032,0.0217 -0.19263,1.12838 c -0.41557,2.43433 -1.98951,5.72928 -3.73326,7.81537 -0.54206,0.64847 -1.13226,1.12531 -1.31157,1.05964 -0.47686,-0.17464 -0.79725,0.1276 -1.58959,1.49958 -0.71155,1.2321 -1.25987,1.94957 -2.67167,3.4959 -0.86083,0.94285 -0.62607,0.53586 1.36335,-2.36352 0.76827,-1.11968 1.33753,-2.0951 1.26503,-2.1676 -0.2568,-0.2568 -1.38609,0.7002 -3.07154,2.60294 -0.93886,1.05989 -2.77858,2.99212 -4.08826,4.29384 -2.25413,2.24043 -2.35007,2.38111 -1.79711,2.63517 0.87352,0.40133 2.13641,-0.31419 3.66797,-2.07821 0.71728,-0.82614 1.34382,-1.60457 1.39233,-1.72986 0.0485,-0.12528 0.20008,-0.22778 0.33683,-0.22778 0.13675,0 0.0396,0.32742 -0.2159,0.7276 -0.85068,1.33245 -3.10038,3.34861 -4.70704,4.2184 -0.87312,0.47269 -2.00976,1.09108 -2.52585,1.37421 -1.13868,0.62468 -2.65602,0.93604 -3.40427,0.69855 -0.88864,-0.28204 -0.63431,-0.64882 0.34023,-0.49067 1.07092,0.17378 1.49514,-0.29945 0.78774,-0.87875 -0.47114,-0.38582 -0.46965,-0.39382 0.0396,-0.21296 1.43029,0.50792 1.75283,0.45623 2.66398,-0.42689 0.49934,-0.48398 0.9079,-1.09329 0.9079,-1.35402 0,-0.26073 0.49638,-0.92199 1.10307,-1.46945 1.77766,-1.60414 3.90764,-3.81038 4.98707,-5.16563 0.55188,-0.6929 1.66955,-1.81989 2.48372,-2.50443 0.90147,-0.75794 1.48088,-1.45508 1.48178,-1.78289 7.9e-4,-0.29605 0.65306,-1.35455 1.44944,-2.35221 1.64509,-2.06088 2.86621,-4.36787 2.73734,-5.17154 -0.0789,-0.49224 -0.19325,-0.44567 -1.2028,0.48995 -0.61357,0.56864 -1.64644,1.39914 -2.29527,1.84554 -0.64882,0.44641 -1.3399,0.97186 -1.53571,1.16767 -0.54271,0.54271 -1.44019,0.96877 -2.04071,0.96877 -0.34143,0 -0.70303,0.31596 -0.98409,0.85989 -0.24438,0.47295 -0.58461,0.97896 -0.75606,1.12448 -0.17146,0.14552 -0.89377,1.09802 -1.60515,2.11667 -1.66588,2.38544 -3.15733,4.00182 -4.48409,4.85969 -1.3565,0.87709 -4.70462,2.35669 -5.79626,2.56149 -1.07495,0.20166 -2.9001,-0.51058 -3.60511,-1.40687 -0.67235,-0.85475 -0.47627,-1.08083 0.30564,-0.35237 0.72614,0.6765 0.99519,0.69369 1.45137,0.0928 0.32711,-0.43091 0.35207,-0.42369 0.3599,0.10398 0.0109,0.73125 0.53476,0.91938 1.67983,0.60321 1.53749,-0.42452 1.63335,-0.79191 0.60524,-2.31969 -0.95808,-1.42368 -1.49963,-3.27393 -1.28575,-4.39278 0.074,-0.38697 -0.12235,-1.20259 -0.46447,-1.92964 -0.62626,-1.33088 -0.6501,-1.53148 -0.52228,-4.39396 0.0593,-1.3289 0.23459,-2.03815 0.65761,-2.66151 0.3409,-0.50235 0.63978,-1.46097 0.73097,-2.34454 0.191,-1.85056 1.35839,-3.67089 2.8384,-4.42593 0.77188,-0.39378 1.24685,-0.93528 1.90435,-2.17106 1.04477,-1.96368 2.51495,-2.89293 4.6226,-2.92176 0.72573,-0.01 1.71552,-0.24327 2.2847,-0.53862 0.83908,-0.43539 1.29993,-0.49196 2.80203,-0.34395 1.49045,0.14687 1.85943,0.10288 2.15836,-0.25731 0.31685,-0.38178 0.20166,-0.57683 -0.94994,-1.60845 l -1.31053,-1.17399 1.45521,0.85856 c 0.80037,0.4722 1.49368,0.94888 1.54069,1.05928 0.047,0.1104 0.88045,0.60614 1.85209,1.10165 2.06113,1.05112 3.32457,1.75321 4.72591,2.62621 0.55519,0.34587 1.18803,0.70777 1.40631,0.80422 0.21828,0.0965 0.66477,0.37017 0.99219,0.60826 1.01588,0.7387 0.6772,-0.0894 -0.56711,-1.38661 -0.63934,-0.66653 -1.26441,-1.32286 -1.38907,-1.45852 -0.97659,-1.06283 -2.46083,-2.08316 -3.0709,-2.11107 -1.23847,-0.0566 -1.34144,-0.0888 -1.46447,-0.45791 -0.0853,-0.25575 0.0348,-0.30954 0.41871,-0.18768 1.00825,0.32001 0.83062,-0.29627 -0.47618,-1.65206 -0.71749,-0.74438 -1.19631,-1.4203 -1.06404,-1.50205 0.13227,-0.0817 0.76844,0.40232 1.4137,1.07571 0.72503,0.75664 1.24217,1.11277 1.35372,0.93227 0.0993,-0.16064 0.10693,-0.41114 0.017,-0.55666 -0.0899,-0.14552 -0.0507,-0.26458 0.0872,-0.26458 0.13791,0 0.3285,0.4144 0.42352,0.9209 0.12933,0.6894 0.75357,1.50417 2.4832,3.24114 1.27074,1.27614 2.74346,2.81488 3.27271,3.41942 0.89796,1.0257 2.06897,1.72476 2.06673,1.23376 -0.002,-0.31938 -1.05135,-2.00357 -1.55078,-2.4877 -0.23794,-0.23064 -0.90886,-0.99668 -1.49094,-1.7023 -0.58209,-0.70562 -1.83224,-2.07213 -2.77813,-3.0367 -0.94588,-0.96457 -1.89838,-1.98447 -2.11667,-2.26645 -0.37604,-0.48578 -0.36909,-0.49218 0.1323,-0.12183 1.13653,0.83949 5.7786,5.70334 7.33593,7.68641 1.892,2.40925 2.55718,3.03753 2.87714,2.71757 0.41419,-0.4142 -0.14732,-2.49875 -0.92748,-3.44312 -0.95323,-1.15389 -2.55051,-2.72152 -2.77298,-2.72152 -0.24397,0 -1.08865,-0.88246 -1.08865,-1.13734 0,-0.0933 0.43762,0.12735 0.97249,0.49032 0.61895,0.42003 1.06451,0.56793 1.22561,0.40684 0.34912,-0.34912 -0.77246,-1.68445 -1.93352,-2.30198 -0.50932,-0.2709 -1.53678,-0.87578 -2.28325,-1.34419 -0.74646,-0.46841 -1.43107,-0.77779 -1.52135,-0.68751 -0.0903,0.0903 -0.16415,-0.0343 -0.16415,-0.27683 0,-0.63266 0.33283,-0.5581 2.27654,0.50999 1.73136,0.95139 2.34081,1.007 1.76271,0.16082 -0.16922,-0.24768 -0.56263,-0.92658 -0.87425,-1.50866 -0.31162,-0.58208 -0.88333,-1.3947 -1.27047,-1.80581 -0.72483,-0.7697 -4.61394,-3.08898 -5.17978,-3.08898 -0.17478,0 -0.54889,-0.17009 -0.83136,-0.37798 -0.46551,-0.34259 -0.47205,-0.39409 -0.0698,-0.55008 0.53258,-0.20655 3.07977,0.95812 4.2874,1.96038 0.35675,0.29607 0.44941,0.27869 0.5995,-0.11244 0.0976,-0.25445 0.0392,-0.65482 -0.12979,-0.8897 -0.16903,-0.23488 -0.41467,-0.66518 -0.54587,-0.95622 -0.1312,-0.29104 -0.4881,-0.79208 -0.79312,-1.11342 -0.30502,-0.32134 -0.55457,-0.68493 -0.55457,-0.80799 0,-0.27685 -1.44681,-1.61315 -2.51355,-2.32157 -1.15939,-0.76995 -1.97136,-1.14553 -3.28718,-1.5205 -1.20801,-0.34425 -1.77996,-0.9834 -0.88,-0.9834 0.27891,0 0.58994,0.0828 0.69116,0.18405 0.10123,0.10123 0.36317,0.21033 0.58209,0.24247 0.21892,0.0321 0.87398,0.30649 1.45569,0.6097 1.29407,0.6745 1.28861,0.67439 1.11803,0.0221 -0.0761,-0.29104 -0.24877,-0.52917 -0.3837,-0.52917 -0.13493,0 -0.21034,-0.16338 -0.16758,-0.36306 0.0428,-0.19968 -0.39851,-0.83057 -0.98059,-1.40196 -1.81467,-1.78134 -2.83383,-2.99748 -2.51199,-2.99748 0.37425,0 2.83834,2.44282 3.66969,3.63802 0.76237,1.09603 1.18751,1.10648 1.02883,0.0253 -0.10767,-0.73356 -0.0812,-0.77807 0.21887,-0.36774 0.18776,0.25676 0.46763,1.05558 0.62195,1.77514 0.35098,1.63657 1.49721,3.44997 1.7554,2.77714 0.17731,-0.46208 0.0961,-1.00401 -0.37321,-2.49005 -0.45676,-1.44634 0.14618,-0.95428 0.64842,0.52917 0.52699,1.55653 0.57191,1.76574 0.66448,3.09451 0.0586,0.84065 0.63861,2.10002 2.65601,5.76666 0.62312,1.13252 1.19284,1.36052 1.09176,0.43692 -0.27189,-2.48439 -0.28311,-3.01423 -0.0638,-3.01423 0.13799,0 0.259,0.20836 0.26891,0.46302 0.0289,0.74118 0.21412,2.74459 0.37311,4.0349 0.0807,0.65484 0.53171,2.04974 1.00227,3.09978 0.90368,2.01656 1.56974,2.54257 1.38654,1.09503 -0.0746,-0.58948 -0.023,-0.74996 0.17686,-0.55009 0.15521,0.15521 0.36142,1.04758 0.45824,1.98306 0.0968,0.93547 0.37422,2.00331 0.61643,2.37297 0.24221,0.36966 0.67487,1.36669 0.96147,2.21562 0.64095,1.89856 1.14715,2.20759 0.96245,0.58757 -0.26125,-2.29143 -0.74761,-4.62748 -1.3605,-6.53456 -0.34438,-1.07159 -0.62615,-2.1491 -0.62615,-2.39448 0,-0.24539 -0.10136,-0.55926 -0.22524,-0.69751 -0.12388,-0.13824 -0.43381,-1.02526 -0.68872,-1.97114 -0.25491,-0.94589 -0.63257,-1.91082 -0.83925,-2.1443 -0.20667,-0.23348 -0.58366,-1.00739 -0.83775,-1.7198 -0.55157,-1.54647 -2.2097,-4.60257 -2.49719,-4.60257 -0.11193,0 -0.20351,-0.17859 -0.20351,-0.39687 0,-0.21828 -0.11907,-0.39688 -0.26459,-0.39688 -0.14552,0 -0.26583,-0.14883 -0.26736,-0.33073 -0.002,-0.1819 -0.53731,-1.04276 -1.19063,-1.91302 -0.65331,-0.87026 -1.18784,-1.66121 -1.18784,-1.75765 0,-0.0965 -1.27992,-1.483 -2.84427,-3.08123 -2.87958,-2.94194 -3.80868,-3.51153 -5.07328,-3.11016 -1.09407,0.34725 -2.23974,5.18037 -2.25936,9.53133 -0.009,2.0812 0.009,2.14184 1.10906,3.61878 0.61524,0.82616 1.23968,1.57694 1.38764,1.66838 0.14797,0.0914 0.40061,0.41214 0.56143,0.71263 0.68017,1.2709 -1.61023,-1.00549 -2.40622,-2.39151 -0.81614,-1.42109 -1.66712,-1.67502 -3.14415,-0.93818 -1.65396,0.82511 -2.22446,2.76656 -1.5225,5.1812 0.50255,1.72874 1.51171,3.09608 2.96851,4.02216 1.22316,0.77756 2.19449,1.75258 1.74594,1.75258 -0.474,0 -3.96033,-3.11021 -4.14755,-3.70009 -0.0931,-0.29328 -0.28028,-0.53324 -0.416,-0.53324 -0.13571,0 -0.24675,-0.23812 -0.24675,-0.52916 0,-0.29105 -0.10329,-0.52917 -0.22952,-0.52917 -0.37667,0 -0.77864,-2.62122 -0.55443,-3.61533 0.34797,-1.54283 1.44824,-2.60642 3.03291,-2.93177 l 1.05833,-0.21729 0.0271,-1.84333 c 0.0321,-2.18259 0.94361,-7.13294 1.51781,-8.24331 0.2225,-0.43026 0.56122,-0.90871 0.75272,-1.06321 0.57967,-0.46768 1.93238,-0.64505 2.69836,-0.35382 0.94672,0.35994 3.31881,2.61805 5.01531,4.77431 1.98462,2.52245 2.11635,2.56553 2.79452,0.91384 0.23623,-0.57537 0.81308,-1.70705 1.28186,-2.51485 1.65515,-2.85206 3.07804,-3.95297 4.3132,-3.33718 0.57083,0.28459 2.73376,3.60318 2.50047,3.83647 -0.0558,0.0558 0.17197,0.53492 0.50625,1.06464 0.33427,0.52972 0.69572,1.26078 0.80321,1.62458 0.10749,0.3638 0.41771,1.13771 0.68938,1.71979 1.25986,2.69936 3.28404,8.7597 3.71162,11.1125 0.37648,2.07162 0.48001,7.95177 0.17952,10.19638 l -0.19613,1.46513 1.6821,1.66716 1.68211,1.66715 1.02757,-0.51505 c 0.56517,-0.28328 1.35283,-0.59321 1.75037,-0.68873 0.41332,-0.0993 0.88608,-0.48943 1.10416,-0.91116 0.20976,-0.40562 0.92364,-1.23734 1.5864,-1.84825 1.25827,-1.15983 2.22581,-1.41099 2.79474,-0.72547 0.51768,0.62377 0.0737,0.95413 -1.04249,0.77565 -0.92875,-0.14852 -1.1229,-0.0668 -2.16684,0.91233 -0.96158,0.90186 -1.09979,1.15232 -0.85618,1.55162 0.15978,0.26189 0.70608,0.58175 1.21401,0.71081 0.77535,0.19701 1.11214,0.1241 2.09941,-0.45448 0.64676,-0.37902 1.6636,-0.86119 2.25964,-1.07149 0.9939,-0.35067 1.15218,-0.34073 1.90956,0.11986 0.45421,0.27622 0.82584,0.61601 0.82584,0.75508 0,0.53924 -0.60698,0.58845 -1.10578,0.0897 -0.44249,-0.44249 -0.70196,-0.48985 -1.68124,-0.3069 -1.39225,0.2601 -3.026,1.26179 -3.03054,1.85809 -0.002,0.23689 0.17532,0.85814 0.3936,1.38056 0.8359,2.0006 0.26609,4.77015 -1.38879,6.75016 -0.56457,0.67548 -1.10973,1.36821 -1.21148,1.5394 -0.18019,0.30314 0.56457,2.59525 1.30332,4.01118 0.46823,0.89743 0.46578,1.37751 -0.0105,2.05751 -0.27693,0.39538 -0.36754,1.22698 -0.33073,3.03544 0.071,3.48895 -0.34786,4.7587 -2.18423,6.62116 -1.17778,1.19452 -1.68875,1.52317 -2.5758,1.65674 -1.16567,0.17552 -2.4653,-0.15682 -2.4653,-0.63042 0,-0.19565 0.16163,-0.19393 0.53463,0.006 0.60617,0.32441 1.05287,0.14817 1.05287,-0.41541 0,-0.44252 0.13222,-0.46878 0.745,-0.14795 0.24911,0.13044 0.70814,0.1342 1.04094,0.009 0.50079,-0.1891 0.59531,-0.42182 0.59531,-1.46581 0,-0.88837 0.30047,-1.89331 1.05737,-3.53644 1.24142,-2.69496 1.59498,-4.54649 0.99917,-5.23245 -0.21889,-0.252 -0.48009,-0.81537 -0.58046,-1.25193 -0.48986,-2.13074 -0.72944,-2.77813 -1.02811,-2.77813 -0.17896,0 -0.90171,0.47625 -1.60611,1.05834 -0.7044,0.58208 -1.36655,1.05833 -1.47145,1.05833 -0.10489,0 -0.0812,-0.62508 0.0527,-1.38906 0.28251,-1.61245 -0.18212,-3.44388 -0.90923,-3.5839 -0.2439,-0.047 -0.93361,0.15143 -1.53269,0.44088 -0.59909,0.28945 -1.44999,0.6055 -1.8909,0.70234 -0.46576,0.1023 -0.9876,0.47999 -1.24543,0.90142 -0.49349,0.80659 -1.66745,2.29755 -2.72562,3.4616 -0.88992,0.97896 -1.10756,1.56253 -0.74546,1.99883 0.41051,0.49463 0.96297,3.07912 1.15546,5.40539 0.15969,1.92978 0.32764,3.24647 0.56127,4.40015 0.1256,0.6202 0.9206,0.94971 1.47084,0.60964 0.1953,-0.1207 0.49624,-0.0966 0.67805,0.0543 0.1798,0.14922 0.60051,0.18916 0.93492,0.0888 0.55032,-0.16523 0.56976,-0.1425 0.20482,0.23958 -0.22175,0.23217 -0.95321,0.49752 -1.62546,0.58966 -1.08614,0.14887 -1.35975,0.073 -2.4565,-0.68163 -1.52099,-1.04647 -1.73986,-1.59877 -1.8908,-4.77128 -0.0658,-1.38245 -0.24606,-3.22792 -0.40062,-4.10105 -0.15457,-0.87312 -0.2734,-1.94468 -0.26408,-2.38125 0.0204,-0.9561 -0.63966,-1.95052 -1.03338,-1.5568 -0.14676,0.14675 -0.31124,0.73567 -0.36552,1.30869 -0.0543,0.57302 -0.23422,1.38445 -0.39989,1.80315 -0.1871,0.47289 -0.27484,2.12675 -0.23161,4.36563 0.0848,4.38943 -0.31756,5.81582 -2.19125,7.76894 -0.98549,1.02727 -1.37556,1.25861 -2.11666,1.2553 -0.4997,-0.002 -1.08714,-0.12897 -1.30542,-0.28165 z m -5.19546,-4.67523 c 0.85357,-1.65891 2.4414,-8.32556 2.11107,-8.86354 -0.34795,-0.5667 -0.83705,0.1799 -2.03791,3.11085 -0.76421,1.86523 -1.1277,3.78501 -1.01405,5.35581 0.094,1.29895 0.40849,1.43161 0.94089,0.39688 z m 15.39046,-1.21219 c -0.0958,-0.31556 -0.22727,-1.76437 -0.29215,-3.21958 -0.0649,-1.45521 -0.23573,-2.88396 -0.37969,-3.175 -0.14395,-0.29104 -0.41078,-0.97081 -0.59296,-1.5106 -0.34718,-1.02866 -0.88319,-1.24957 -0.82858,-0.34148 0.0175,0.29104 0.21821,1.48166 0.44602,2.64583 0.22781,1.16417 0.40785,2.84195 0.40007,3.72841 -0.0152,1.73893 0.21281,2.77657 0.6753,3.07261 0.41012,0.26251 0.78027,-0.51417 0.57199,-1.20019 z m 12.57117,-0.99959 c 0.18743,-0.45249 0.33716,-1.19663 0.33275,-1.65365 -0.004,-0.457 0.11176,-0.98263 0.25819,-1.16805 0.14642,-0.18542 0.21103,-0.39231 0.14358,-0.45977 -0.30547,-0.30546 -2.06944,2.97195 -2.06944,3.84496 0,0.63437 1.01647,0.2053 1.33492,-0.56349 z m -41.46926,-4.51898 c 0.75508,-0.43882 1.8789,-1.41076 2.49738,-2.15985 0.61847,-0.7491 1.42919,-1.71918 1.8016,-2.15574 0.37241,-0.43657 0.87883,-1.03188 1.12538,-1.32292 0.89282,-1.05394 2.23016,-3.33156 2.05753,-3.50419 -0.36507,-0.36507 -2.09234,0.88801 -3.80617,2.76126 -0.97552,1.06626 -2.80431,3.0284 -4.06399,4.3603 -3.00209,3.17421 -2.86086,3.90937 0.38827,2.02114 z m -2.60616,-2.45431 c -0.16343,-1.30803 -0.29843,-1.57948 -0.99672,-2.00414 -1.02533,-0.62354 -1.24195,-0.47731 -1.24195,0.8384 0,0.75511 0.23779,1.4068 0.82439,2.2594 0.72581,1.05493 0.87096,1.15164 1.21385,0.80876 0.30134,-0.30135 0.34669,-0.73176 0.20043,-1.90242 z m 26.97081,0.18924 c 0.23352,-0.76704 0.24729,-2.46422 0.0373,-4.59729 -0.13658,-1.38739 -0.10723,-2.07408 0.094,-2.19843 0.16092,-0.0994 0.29813,-0.14403 0.30492,-0.0991 0.007,0.045 0.0795,0.85567 0.16159,1.80156 0.0821,0.94588 0.23056,1.80832 0.32992,1.91652 0.40497,0.441 3.89677,-3.39903 3.68058,-4.04762 -0.0988,-0.29653 -2.66719,-1.30849 -3.32092,-1.30849 -0.1911,0 -0.46061,0.29766 -0.59893,0.66146 -0.34804,0.91543 -0.62907,0.83028 -0.43656,-0.13229 0.0873,-0.43656 0.0666,-0.79375 -0.0461,-0.79375 -0.54933,0 -1.40099,4.11881 -1.45733,7.04794 -0.0332,1.72448 0.87334,2.99165 1.25152,1.74946 z m -24.56716,-0.79375 c 1.46929,-1.89641 5.0149,-5.39412 6.39986,-6.31341 0.76629,-0.50863 1.39324,-1.08467 1.39324,-1.2801 0,-0.50584 1.72675,-1.9562 2.58454,-2.17085 2.27826,-0.57011 3.61326,-1.64066 2.5532,-2.04744 -0.79862,-0.30646 -1.34587,-0.15738 -1.67418,0.45606 -0.39166,0.73183 -1.60574,1.50001 -2.3707,1.50001 -0.2999,0 -0.93638,0.33034 -1.41438,0.73409 -1.57747,1.33244 -1.79772,1.45582 -2.793,1.56459 -0.6463,0.0706 -1.30588,0.40467 -1.91256,0.96861 -0.50932,0.47343 -1.25031,1.02197 -1.64665,1.21896 -0.40715,0.20238 -0.84029,0.72084 -0.99576,1.19192 -0.15134,0.45857 -0.69028,1.27385 -1.19763,1.81174 -0.97048,1.02888 -1.02266,1.20336 -0.7571,2.53118 0.22487,1.12435 0.87755,1.0654 1.83112,-0.16536 z m 42.94485,-1.608 c -0.15055,-0.38891 -0.31991,-0.93648 -0.37633,-1.21683 -0.0564,-0.28034 -0.20612,-0.578 -0.33264,-0.66146 -0.12653,-0.0835 -0.32074,-0.50892 -0.43158,-0.94548 -0.18339,-0.72231 -0.22029,-0.74482 -0.40998,-0.25009 -0.22228,0.57972 0.38905,3.44768 0.85767,4.02366 0.49095,0.60341 1.01568,-0.11591 0.69286,-0.9498 z m -24.44815,-0.71242 c 0.4692,-0.51225 1.24036,-1.73264 1.71368,-2.71198 1.36189,-2.81783 1.94371,-3.88435 2.21977,-4.06903 0.1412,-0.0945 0.18255,-0.36504 0.0919,-0.6013 -0.13925,-0.36286 -0.24981,-0.37728 -0.712,-0.0928 -0.52875,0.32539 -2.37527,3.65973 -2.37527,4.28912 0,0.39174 -1.61067,1.96441 -2.42582,2.36858 -0.37427,0.18557 -0.64982,0.58962 -0.70061,1.02734 -0.12922,1.11355 1.0826,0.99732 2.18836,-0.20988 z m 9.4836,0.70639 c 0.26166,-0.10326 0.61885,-0.4381 0.79375,-0.74406 0.17491,-0.30596 0.94309,-1.36195 1.70707,-2.34664 0.76399,-0.98468 1.38907,-1.95117 1.38907,-2.14775 0,-1.03997 -1.6696,0.23268 -3.17419,2.41952 -0.43156,0.62725 -1.10386,1.37298 -1.494,1.65718 -1.13043,0.82346 -0.55203,1.68681 0.7783,1.16175 z m -13.89673,-1.50625 c 1.19687,-1.45202 3.22821,-5.66247 3.4091,-7.06618 0.25013,-1.94111 -0.28508,-1.53895 -1.22394,0.91968 -0.78485,2.05531 -1.48483,3.21536 -2.81945,4.67258 -0.31802,0.34722 -0.73299,0.92051 -0.92216,1.27397 -0.28868,0.53941 -0.28214,0.68176 0.0407,0.88599 0.58383,0.36932 0.6827,0.32457 1.51574,-0.68604 z m -13.771,-2.50212 c 0.37,-0.29104 0.81451,-0.52917 0.9878,-0.52917 0.17329,0 0.59471,-0.29765 0.93648,-0.66145 0.34178,-0.36381 0.53807,-0.66146 0.4362,-0.66146 -0.43658,0 0.67756,-1.57135 1.47236,-2.07657 0.47826,-0.30401 1.20357,-0.82275 1.6118,-1.15276 0.72133,-0.58311 0.76478,-0.58707 1.5428,-0.14055 0.44031,0.2527 0.97117,0.45946 1.1797,0.45946 0.62232,0 2.10413,-1.09716 2.56399,-1.89842 0.23593,-0.41108 0.64285,-0.76034 0.90428,-0.77614 0.26143,-0.0158 1.18971,-0.0497 2.06283,-0.0752 1.96816,-0.0577 2.21133,-0.20429 2.12927,-1.28395 -0.036,-0.47357 -0.16096,-2.27056 -0.27769,-3.9933 -0.23943,-3.53345 -0.32101,-3.65041 -2.34979,-3.36889 -0.59911,0.0831 -1.5589,0.15115 -2.13286,0.15115 -0.88361,0 -1.06705,-0.0976 -1.19676,-0.63695 -0.33762,-1.40365 -2.53709,-1.15932 -3.97738,0.44184 -0.50932,0.56622 -1.81901,1.61064 -2.91041,2.32095 -1.09141,0.71031 -2.41911,1.63438 -2.95044,2.0535 -0.79638,0.62818 -1.06016,0.71167 -1.50175,0.47534 -0.84837,-0.45403 -2.28706,1.40358 -2.78803,3.59982 -0.21467,0.94114 -0.57845,1.91905 -0.80838,2.17312 -0.22994,0.25408 -0.41807,0.64911 -0.41807,0.87784 0,0.22874 0.95111,1.40999 2.11357,2.625 1.16247,1.21502 2.11497,2.29842 2.11667,2.40756 0.006,0.35709 0.568,0.20873 1.25381,-0.33073 z m -0.92701,-2.74041 c -0.33129,-0.48659 -0.89335,-1.1581 -1.24902,-1.49224 -0.53369,-0.50137 -0.71678,-0.54933 -1.04794,-0.2745 -0.61197,0.50789 -1.15816,0.16507 -1.00591,-0.63137 0.0717,-0.37527 0.20854,-0.68231 0.304,-0.68231 0.0955,0 0.398,-0.41672 0.67228,-0.92604 0.48879,-0.90763 1.02301,-1.17667 1.33477,-0.67223 0.0863,0.13961 0.0206,0.47206 -0.146,0.7388 -0.24537,0.3929 -0.18374,0.65864 0.32465,1.39982 0.34513,0.50317 0.95364,1.23687 1.35224,1.63043 0.74647,0.73705 0.97949,1.79936 0.39399,1.79616 -0.1819,-0.001 -0.60178,-0.39993 -0.93306,-0.88652 z m 2.79727,-3.47205 c -2.83267,-3.85059 -2.68301,-3.56697 -2.17714,-4.12596 0.2536,-0.28022 0.58209,-0.5095 0.72998,-0.5095 0.14789,0 0.48219,-0.19303 0.74289,-0.42896 0.29038,-0.26279 0.65718,-0.35681 0.94687,-0.2427 0.41335,0.16282 0.36021,0.28123 -0.42208,0.94053 -1.21368,1.02287 -0.99382,1.6588 0.49139,1.42131 0.84754,-0.13553 1.06503,-0.0889 1.06503,0.22811 0,0.21913 -0.26789,0.58045 -0.59531,0.80292 -0.48692,0.33085 -0.54198,0.49329 -0.30237,0.89217 0.42011,0.69937 1.04729,0.73786 1.9182,0.11772 0.74794,-0.53259 1.09615,-0.49936 1.09615,0.10461 0,0.27753 -2.13203,1.98513 -2.47853,1.98513 -0.0787,0 -0.53548,-0.53342 -1.01508,-1.18538 z m 4.54904,-2.32035 c -0.28836,-0.47294 -0.52474,-1.06123 -0.52528,-1.3073 -5.3e-4,-0.24608 -0.11564,-0.51827 -0.25577,-0.60488 -0.42702,-0.26391 -0.78981,-1.99213 -0.55038,-2.62187 0.13733,-0.3612 0.61161,-0.70569 1.23496,-0.897 1.57687,-0.48396 1.9728,0.43789 0.43859,1.0212 -0.72314,0.27494 -0.73455,0.83056 -0.0512,2.49162 0.1796,0.43656 0.30851,0.87949 0.28646,0.98429 -0.022,0.10479 0.21191,0.3254 0.51991,0.49024 0.41755,0.22346 0.72845,0.22295 1.22219,-0.002 0.3642,-0.16594 0.71719,-0.24669 0.78444,-0.17945 0.28332,0.28333 -0.25359,1.17551 -0.79472,1.32058 -1.24814,0.33461 -1.77862,0.17486 -2.30924,-0.69542 z m 5.02998,-0.34326 c 0,-0.1039 -0.18918,-1.3789 -0.42042,-2.83332 -0.37789,-2.37692 -0.37935,-2.68548 -0.0144,-3.05038 0.3649,-0.36491 0.43737,-0.28127 0.71641,0.8269 0.21541,0.85548 0.44661,1.23287 0.75528,1.23287 0.65751,0 1.07984,-0.5381 1.07984,-1.37583 0,-0.84837 0.66626,-1.03018 0.91406,-0.24942 0.0858,0.27027 0.20203,1.57996 0.25833,2.91041 0.0806,1.90491 0.0265,2.41901 -0.25481,2.41901 -0.48081,0 -0.68414,-0.37959 -0.71109,-1.32749 -0.0518,-1.82338 -1.46072,-1.64042 -1.582,0.20543 -0.0442,0.673 -0.22693,1.26145 -0.41043,1.32186 -0.1819,0.0599 -0.33073,0.0239 -0.33073,-0.08 z m -1.32291,7.269 c 0.3638,-0.27782 1.46887,-1.04194 2.45571,-1.69803 1.69277,-1.12543 2.3082,-1.80877 1.95086,-2.16611 -0.0862,-0.0862 -0.4723,0.0678 -0.85801,0.34214 -0.9929,0.7063 -2.83359,1.68352 -3.17718,1.68675 -1.11215,0.0105 -2.76633,1.71967 -2.33685,2.41458 0.20505,0.33178 1.129,0.0594 1.96547,-0.57933 z m 25.70954,-1.56793 c -0.21952,-1.66256 -0.0299,-4.5533 0.34639,-5.28099 0.64116,-1.23985 0.48805,-1.74524 -0.93958,-3.10145 -2.09924,-1.99422 -4.38996,-3.14327 -5.23059,-2.62373 -0.53719,0.332 0.0517,1.25838 1.05522,1.6599 0.89174,0.3568 1.06736,0.57104 1.33303,1.6261 0.20434,0.81152 0.64902,1.55141 1.33871,2.22744 0.865,0.84787 1.02538,1.17202 0.98749,1.99574 -0.0249,0.5409 -0.0337,1.73587 -0.0196,2.6555 0.0242,1.57646 0.0597,1.66721 0.62094,1.5875 0.46552,-0.0661 0.57628,-0.22878 0.50798,-0.74601 z m 7.24299,-1.07149 c 0.60602,-0.66965 0.64287,-2.22358 0.0664,-2.80005 -0.54525,-0.54525 -1.00435,-0.25775 -1.00435,0.62896 0,0.38221 -0.2556,0.96701 -0.568,1.29954 -0.47,0.50029 -0.51006,0.67442 -0.23219,1.00924 0.46505,0.56035 1.15595,0.50562 1.73814,-0.13769 z m -3.47007,-0.76006 c 0.66087,-0.73025 0.84803,-2.46215 0.31397,-2.90538 -0.59806,-0.49634 -1.22143,-0.16358 -1.22143,0.652 0,0.3818 -0.23874,0.99768 -0.53052,1.36862 -0.40506,0.51495 -0.45997,0.75947 -0.23219,1.03392 0.42238,0.50894 1.13194,0.44557 1.67017,-0.14916 z m -18.59725,-3.32782 c 0.0933,-1.01865 0.24635,-2.50693 0.34017,-3.3073 l 0.17059,-1.4552 -1.16294,-0.72415 c -1.71831,-1.06996 -2.32586,-1.05677 -2.88802,0.0627 -0.53236,1.06012 -0.62484,3.78242 -0.18261,5.37499 0.42142,1.51761 1.11279,2.07837 2.44325,1.9817 l 1.10997,-0.0806 z m 12.7188,-7.69465 c 0.66799,-3.63861 -0.40349,-11.40173 -2.16818,-15.70894 -0.271,-0.66147 -0.80265,-2.0361 -1.18144,-3.05475 -0.37879,-1.01864 -0.84757,-2.20927 -1.04175,-2.64583 -0.19417,-0.43656 -0.4773,-1.09141 -0.62916,-1.45521 -0.64888,-1.55436 -2.19141,-4.66285 -2.50274,-5.04348 -1.11401,-1.36196 -2.39083,-0.49184 -4.48893,3.05911 -0.5159,0.87312 -1.14887,2.15369 -1.40661,2.84572 l -0.46862,1.25821 1.02869,1.49726 c 0.96519,1.40484 2.49877,3.95959 2.9113,4.84985 0.10115,0.21828 0.31087,0.55993 0.46605,0.75922 0.33617,0.43172 2.47002,5.59346 2.8581,6.91369 0.14971,0.50933 0.35799,1.04511 0.46284,1.19063 0.10485,0.14552 0.40204,1.03849 0.66041,1.98437 0.73318,2.68409 1.05792,3.52098 1.41203,3.63902 0.2028,0.0676 0.32775,-0.14493 0.32775,-0.5575 0,-0.88001 -0.92054,-4.71092 -1.30431,-5.428 -0.24709,-0.46169 -0.22817,-0.56393 0.10437,-0.56393 0.22568,0 0.40619,0.22822 0.40619,0.51355 0,0.28245 0.121,0.58834 0.2689,0.67974 0.14789,0.0914 0.20873,0.26353 0.1352,0.38251 -0.0735,0.11898 0.0436,0.36345 0.26027,0.54328 0.31604,0.2623 0.40193,0.25514 0.43426,-0.0362 0.0222,-0.19971 0.068,-0.48218 0.10177,-0.6277 0.0338,-0.14552 0.0752,-0.47295 0.092,-0.72761 0.0168,-0.25466 0.16706,-0.46302 0.33393,-0.46302 0.25343,0 0.21392,2.50062 -0.0656,4.15363 -0.0197,0.1166 -0.0217,0.71382 -0.005,1.32717 0.024,0.8545 0.16559,1.18702 0.6057,1.42256 0.47597,0.25473 0.63461,0.225 0.92604,-0.17355 0.41314,-0.56501 0.46583,-3.26559 0.0901,-4.61802 -0.14225,-0.51201 -0.31214,-1.34545 -0.37754,-1.85209 -0.0654,-0.50663 -0.14184,-0.95092 -0.16985,-0.9873 -0.0966,-0.12546 -0.1656,-0.46764 -0.37352,-1.85209 -0.11473,-0.76398 -0.31935,-1.38906 -0.45471,-1.38906 -0.13536,0 -0.16931,-0.12428 -0.0754,-0.27617 0.0939,-0.1519 0.0563,-0.41979 -0.0834,-0.59531 -0.13976,-0.17553 -0.31177,-0.67633 -0.38223,-1.11289 -0.0705,-0.43657 -0.22472,-1.02164 -0.34279,-1.30018 -0.14532,-0.34282 -0.12125,-0.44868 0.0745,-0.32769 0.15905,0.0983 0.37163,0.56431 0.47239,1.03559 0.10076,0.47127 0.30309,1.00569 0.44963,1.18759 0.14653,0.1819 0.1976,0.33073 0.11347,0.33073 -0.0841,0 0.0113,0.46549 0.21201,1.03441 0.20073,0.56893 0.31279,1.08659 0.24902,1.15036 -0.0638,0.0638 0.11194,0.8782 0.39048,1.80986 0.80092,2.67901 1.1697,5.18343 1.0148,6.8917 -0.16493,1.8189 0.33977,2.07671 0.6592,0.33673 z m -5.65096,-7.45275 c -0.16052,-0.40018 -0.40409,-0.97285 -0.54127,-1.27259 -0.13718,-0.29974 -0.28606,-0.87882 -0.33085,-1.28685 -0.0448,-0.40803 -0.20028,-0.81763 -0.34552,-0.91023 -0.14525,-0.0926 -0.57767,-1.04089 -0.96093,-2.10734 -0.38326,-1.06644 -0.84063,-2.19753 -1.01638,-2.51354 -0.17576,-0.316 -0.33376,-0.63408 -0.35111,-0.70684 -0.0846,-0.3546 -0.67946,-1.77287 -0.9156,-2.18282 -0.30407,-0.52787 0.003,-0.62121 0.47861,-0.14552 0.24694,0.24695 0.3175,0.21755 0.3175,-0.13229 0,-0.51423 0.5101,-0.62155 0.56587,-0.11906 0.0202,0.1819 0.0143,0.73796 -0.0132,1.2357 -0.04,0.72587 0.76893,3.23598 1.1914,3.69679 0.0524,0.0571 0.27668,-0.0468 0.49848,-0.23083 0.353,-0.29297 0.40327,-0.15304 0.40327,1.12254 0,1.63508 0.49171,3.07622 0.99219,2.90798 0.1819,-0.0611 0.33073,-0.35922 0.33073,-0.66239 0,-0.30317 0.0633,-0.48793 0.14063,-0.41058 0.25266,0.25266 0.33649,4.44547 0.0889,4.44547 -0.13247,0 -0.37219,-0.32742 -0.53271,-0.7276 z m 0.61375,-9.95272 c -0.64367,-1.28883 -0.77672,-2.06251 -0.26703,-1.55282 0.16946,0.16946 0.3256,0.5207 0.34697,0.78052 0.0214,0.25983 0.19003,0.7505 0.37479,1.09039 0.18476,0.33988 0.28743,0.66647 0.22816,0.72573 -0.0593,0.0593 -0.36657,-0.41045 -0.68289,-1.04382 z m -0.99767,-2.44483 c -0.0937,-0.27549 -0.39417,-0.98496 -0.66768,-1.57661 -0.60431,-1.30723 -0.62735,-1.61056 -0.0884,-1.16324 0.2249,0.18665 0.35104,0.49018 0.28031,0.67451 -0.0707,0.18433 0.0312,0.46779 0.22658,0.62992 0.39014,0.32379 0.7794,1.57648 0.55851,1.79737 -0.0764,0.0764 -0.21562,-0.0865 -0.30935,-0.36195 z m -1.61523,-3.60335 c -0.5103,-0.6589 -0.63562,-0.99858 -0.36841,-0.99858 0.29846,0 0.93076,1.03444 0.74552,1.21968 -0.0638,0.0638 -0.23351,-0.0357 -0.37711,-0.2211 z m -13.39624,15.99778 c -0.33199,-0.33199 -0.94458,-0.4634 -2.28571,-0.49033 -1.2039,-0.0242 -1.96342,-0.16803 -2.21491,-0.41952 -0.33392,-0.33392 -0.20068,-0.36763 1.0447,-0.26435 2.20783,0.18309 1.89932,-0.39415 -1.96342,-3.67372 -0.19148,-0.16256 -0.2838,-0.35991 -0.20516,-0.43855 0.16722,-0.16721 2.4598,1.64875 3.1288,2.47834 0.25236,0.31293 0.75837,0.64415 1.12448,0.73604 0.3661,0.0919 0.66564,0.326 0.66564,0.52026 0,0.19426 0.30425,0.68149 0.67611,1.08274 0.73843,0.79677 0.76399,1.2036 0.0295,0.46909 z m -37.42172,-16.70151 c -0.76684,-0.2649 -1.43078,-0.52891 -1.47541,-0.58668 -0.0446,-0.0578 -0.36175,-0.58129 -0.70471,-1.16338 -0.34297,-0.58208 -1.25661,-2.03952 -2.03033,-3.23875 -0.77371,-1.19923 -1.40675,-2.24585 -1.40675,-2.32582 0,-0.08 -0.23448,-0.468 -0.52108,-0.86229 -0.49787,-0.68496 -0.50204,-0.7758 -0.0935,-2.0398 0.23515,-0.72761 0.69242,-1.62058 1.01616,-1.98438 0.32374,-0.3638 0.66459,-0.98421 0.75744,-1.37869 0.12613,-0.53592 0.65312,-1.00295 2.0846,-1.84741 1.05368,-0.6216 2.30955,-1.39351 2.7908,-1.71537 l 0.87502,-0.58519 1.50623,0.57339 c 1.67067,0.63598 2.14885,1.08749 3.00419,2.83661 0.32022,0.65484 0.66168,1.25015 0.75878,1.32291 0.0971,0.0728 0.69121,0.96573 1.32024,1.98438 0.62902,1.01864 1.29952,2.0374 1.49,2.2639 0.19048,0.2265 0.30323,0.64322 0.25056,0.92604 -0.0527,0.28282 -0.18017,1.02245 -0.28334,1.64361 -0.14055,0.84625 -0.40723,1.29693 -1.0638,1.79772 -0.48193,0.36758 -0.94713,0.93092 -1.03378,1.25186 -0.1083,0.40115 -1.02095,1.05905 -2.9199,2.10489 -1.51929,0.83674 -2.79943,1.51747 -2.84474,1.51271 -0.0453,-0.005 -0.70981,-0.22537 -1.47665,-0.49026 z m 4.96614,-2.81588 c 0.50932,-0.31876 1.47131,-0.8871 2.13776,-1.26298 1.60983,-0.90794 1.78218,-1.15655 1.94359,-2.80356 0.11841,-1.20832 0.0464,-1.5237 -0.51667,-2.26188 -0.35985,-0.47178 -0.65427,-0.99538 -0.65427,-1.16354 0,-0.16817 -0.10615,-0.30576 -0.2359,-0.30576 -0.12974,0 -0.31188,-0.30275 -0.40476,-0.67279 -0.24624,-0.98112 -0.72479,-1.03525 -2.35097,-0.26595 -2.00698,0.94946 -2.26144,1.30353 -1.58662,2.20773 0.29364,0.39346 0.79697,0.72928 1.11851,0.74625 0.77708,0.041 1.088,0.38986 1.15517,1.29607 0.0438,0.59025 -0.13962,0.88377 -0.8599,1.37641 -0.50353,0.3444 -1.15733,0.59141 -1.45288,0.54892 -0.49699,-0.0715 -2.14133,-2.27581 -3.07651,-4.12428 -0.19909,-0.39351 -0.57348,-0.99943 -0.83198,-1.34648 -0.68483,-0.91942 -0.58454,-1.39426 0.47265,-2.23779 1.05814,-0.8443 2.01581,-0.80835 2.49862,0.0938 0.35982,0.67234 0.67002,0.66223 2.04626,-0.0667 0.9015,-0.47749 1.08959,-0.69854 0.95748,-1.12522 -0.33749,-1.0899 -1.15229,-1.90071 -2.26194,-2.25085 -0.6272,-0.19791 -1.26396,-0.4511 -1.41504,-0.56264 -0.26235,-0.1937 -1.28464,0.36982 -4.24264,2.33867 -1.10277,0.73401 -1.41542,1.12199 -1.75182,2.17395 l -0.40949,1.2805 1.94136,3.13948 c 1.06774,1.72672 2.09418,3.37761 2.28098,3.66865 0.1868,0.29104 0.42278,0.73128 0.52441,0.97831 0.10163,0.24703 0.63741,0.57442 1.19063,0.72754 0.55321,0.15311 1.16785,0.38289 1.36586,0.51061 0.46349,0.29896 1.25737,0.09 2.41811,-0.63645 z m -2.64584,-6.77178 c 0,-0.31898 -0.72454,-0.29363 -0.92604,0.0324 -0.28597,0.46272 0.1381,0.85372 0.55272,0.50961 0.20533,-0.1704 0.37332,-0.41431 0.37332,-0.54201 z m 85.50758,7.62356 c -2.08771,-1.05141 -2.1942,-1.1471 -2.05512,-1.84655 0.19263,-0.96873 -0.56347,-1.32849 -1.09851,-0.52268 -0.36222,0.54554 -0.3925,0.53687 -2.53267,-0.72499 -1.19133,-0.70242 -2.20287,-1.45702 -2.24785,-1.67689 -0.12427,-0.6074 1.21144,-2.55547 1.75218,-2.55547 0.29009,0 0.69542,-0.43502 1.04774,-1.12448 0.31604,-0.61846 1.06024,-2.00299 1.65377,-3.07674 0.76759,-1.38862 1.03941,-2.15249 0.94148,-2.64583 -0.2083,-1.04946 0.89251,-2.806876 1.7678,-2.822246 0.37762,-0.007 0.90016,-0.27798 1.16695,-0.60596 l 0.48312,-0.59394 1.69175,0.87054 c 0.93047,0.47879 2.0318,1.04085 2.4474,1.24901 0.7482,0.374756 1.00565,1.155566 0.48674,1.476276 -0.14789,0.0914 -0.19486,0.28597 -0.10438,0.43238 0.0972,0.15724 0.41233,0.0334 0.76996,-0.30258 l 0.60544,-0.56878 1.15259,0.57779 c 2.18857,1.09712 3.40059,1.9709 3.40107,2.45193 7.9e-4,0.7681 -1.14546,2.53959 -1.69671,2.62227 -0.7672,0.11508 -3.41761,5.06218 -3.44271,6.42598 -0.0109,0.59138 -0.28215,1.50278 -0.6148,2.06565 -0.32742,0.55402 -0.59531,1.11337 -0.59531,1.24301 0,0.12963 -0.36555,0.10826 -0.81232,-0.0475 -0.70843,-0.24696 -0.86263,-0.21136 -1.20563,0.27834 -0.21632,0.30884 -0.47585,0.5545 -0.57674,0.54592 -0.10089,-0.009 -1.17424,-0.5146 -2.38524,-1.12448 z m 5.24913,-1.11634 c 0.44393,-0.71829 0.50732,-1.01741 0.27496,-1.29739 -0.2355,-0.28375 0.0273,-0.99574 1.19377,-3.23367 2.0747,-3.98057 2.46645,-4.5841 2.87399,-4.42771 0.30364,0.11652 1.4735,-1.34704 1.4735,-1.84344 0,-0.19522 -1.956,-1.45579 -2.41421,-1.55588 -0.1759,-0.0384 -0.54607,-0.28619 -0.82259,-0.55058 -0.40868,-0.39076 -0.57701,-0.41912 -0.8994,-0.15157 -0.63341,0.52569 -1.13926,1.69545 -0.98623,2.28064 0.17923,0.68539 -0.58487,2.18811 -1.11262,2.18811 -0.68663,0 -2.4962,-1.04979 -2.4962,-1.44814 0,-0.74954 0.63111,-1.74237 1.19803,-1.88465 0.31798,-0.0798 0.83696,-0.6056 1.15328,-1.16843 l 0.57514,-1.02332 -1.1325,-0.65657 c -0.62287,-0.361096 -1.59107,-0.872306 -2.15156,-1.135996 l -1.01907,-0.47945 -0.52716,0.65102 c -0.38347,0.47356 -0.48816,0.891396 -0.38407,1.532836 0.10193,0.62814 -0.0331,1.20076 -0.46928,1.99049 -0.3368,0.60977 -1.11935,2.06117 -1.73898,3.22533 -1.36665,2.56766 -1.52729,2.77813 -2.12038,2.77813 -0.50079,0 -1.32095,1.05306 -1.32095,1.69604 0,0.21547 0.32742,0.5704 0.7276,0.78874 1.14187,0.62301 3.58436,1.76282 3.61255,1.68583 0.014,-0.0383 0.2414,-0.45795 0.50532,-0.93263 0.28034,-0.50423 0.40948,-1.08474 0.31061,-1.39626 -0.17259,-0.54379 0.78955,-2.90005 1.18419,-2.90005 0.43592,0 2.65556,1.38167 2.65556,1.65302 0,0.65277 -1.34513,2.55518 -1.70818,2.41586 -0.24876,-0.0955 -0.55815,0.23518 -0.91908,0.98224 -0.29925,0.61937 -0.51515,1.14433 -0.47977,1.16656 2.02128,1.2703 3.43522,1.98089 3.94535,1.98277 0.24279,7.9e-4 0.70106,-0.41845 1.01838,-0.93188 z m -80.76224,-4.14589 c -0.32751,-1.14939 -0.33806,-1.47461 -0.0583,-1.79977 0.44177,-0.51355 0.58972,-1.25015 0.77057,-3.83646 0.0814,-1.16416 0.22136,-2.68221 0.311,-3.37343 0.11246,-0.8672 0.0684,-1.25677 -0.14223,-1.25677 -0.34681,0 -0.66603,-0.746036 -0.92428,-2.160096 -0.1668,-0.91336 -0.13194,-0.97937 0.60233,-1.14064 0.87596,-0.1924 1.24657,-0.8198 0.80122,-1.35641 -0.34875,-0.42022 0.14285,-0.68238 2.40361,-1.28179 2.1552,-0.57142 4.0469,-1.12305 4.51154,-1.3156 0.31896,-0.13217 0.5135,0.1737 0.87231,1.37156 0.25399,0.84792 0.39425,1.71773 0.31168,1.93291 -0.0886,0.23096 0.36972,1.0389 1.11885,1.97221 0.69794,0.86954 1.67894,2.154716 2.18001,2.855946 0.6034,0.84445 1.16066,1.3249 1.6503,1.42282 0.52783,0.10557 0.78068,0.34629 0.8841,0.8417 0.0797,0.38161 0.25671,0.90059 0.39344,1.15328 0.49471,0.91425 0.29108,1.4988 -0.60282,1.73043 -0.58454,0.15148 -0.89822,0.41888 -1.00073,0.85313 -0.12133,0.51397 -0.5444,0.76864 -2.25744,1.35889 -1.15946,0.39951 -2.28671,0.73293 -2.50499,0.74094 -0.43674,0.016 -1.32292,-1.88004 -1.32292,-2.8305 0,-0.32589 -0.1228,-0.59253 -0.27288,-0.59253 -0.45273,0 -0.62474,0.82591 -0.33299,1.59884 0.32576,0.86304 0.17237,1.17121 -0.71705,1.44059 -0.91405,0.27683 -1.32291,0.64688 -1.32291,1.19731 0,0.36149 -0.49031,0.60009 -2.15778,1.05002 -1.18677,0.32022 -2.30089,0.63714 -2.4758,0.70427 -0.19753,0.0758 -0.46952,-0.40956 -0.71779,-1.28085 z m 5.53561,-1.76692 c 1.49383,-0.53432 1.67386,-1.14775 0.7405,-2.52314 -0.79622,-1.17328 -0.51618,-1.57172 1.59952,-2.27578 2.08598,-0.69417 2.6313,-0.57267 2.4094,0.53681 -0.0938,0.46921 -0.0469,0.78968 0.11565,0.78968 0.15047,0 0.22101,0.0893 0.15674,0.19844 -0.0643,0.10914 -0.0129,0.47365 0.11418,0.81003 0.18472,0.48902 0.37733,0.58546 0.96112,0.48119 1.1994,-0.21422 3.51034,-0.87441 3.69013,-1.05419 0.0921,-0.0921 0.0283,-0.63183 -0.1417,-1.19938 -0.22313,-0.74474 -0.4905,-1.07742 -0.96079,-1.19546 -0.3584,-0.0899 -0.77539,-0.39479 -0.92665,-0.67743 -0.43875,-0.8198 -2.9027,-4.019136 -3.92039,-5.090466 -0.79423,-0.83608 -0.88037,-1.04179 -0.58519,-1.39746 0.27824,-0.33525 0.28329,-0.62681 0.0258,-1.48637 -0.30281,-1.01069 -0.36661,-1.06132 -1.16385,-0.92362 -0.4639,0.0801 -1.94307,0.46909 -3.28702,0.86436 l -2.44356,0.71867 0.11248,0.9069 c 0.0619,0.49879 0.35527,1.16533 0.65202,1.4812 0.39691,0.42249 0.50758,0.81617 0.41865,1.48926 -0.0665,0.50323 -0.24923,2.224636 -0.40613,3.825366 -0.1569,1.60073 -0.33668,3.08901 -0.39952,3.30729 -0.0628,0.21828 -0.10551,0.50263 -0.0948,0.63188 0.0107,0.12925 -0.10088,0.30936 -0.24792,0.40024 -0.17762,0.10977 -0.16301,0.50095 0.0435,1.1655 0.30135,0.96956 0.34093,0.99521 1.28889,0.83568 0.5379,-0.0905 1.54993,-0.36917 2.24896,-0.6192 z m 0.57026,-6.51029 c -0.2386,-0.2386 0.006,-2.590756 0.29971,-2.884676 0.18843,-0.18843 0.39824,-0.0957 0.67393,0.29792 0.22017,0.314336 0.57591,0.747126 0.79053,0.961746 0.45796,0.45796 0.27836,1.11694 -0.35416,1.29949 -0.2446,0.0706 -0.62953,0.20509 -0.85542,0.29888 -0.22588,0.0938 -0.47545,0.10578 -0.55459,0.0266 z m 52.10984,7.55014 c -1.41123,-0.39621 -2.74472,-0.86882 -2.96332,-1.05024 -0.2186,-0.18142 -0.65938,-0.87092 -0.9795,-1.53221 l -0.58205,-1.20234 1.25433,-4.39864 c 1.32144,-4.633996 1.67679,-5.451036 2.48192,-5.706576 0.27283,-0.0866 0.62111,-0.43189 0.77394,-0.76732 0.15283,-0.33543 0.93443,-0.95362 1.73688,-1.37376 1.59372,-0.83442 1.90409,-0.81618 5.60617,0.32948 1.63753,0.50676 2.08059,0.88488 2.81535,2.40268 0.54738,1.13073 0.55883,1.28018 0.20511,2.67701 -0.36209,1.429906 -0.40682,1.482116 -1.3363,1.559726 -0.80622,0.0673 -1.02006,0.22158 -1.32291,0.9543 l -0.36125,0.87401 -1.66472,-0.37974 -1.66471,-0.37974 0.0772,-1.20822 c 0.16114,-2.521376 -0.91402,-1.386616 -1.8108,1.91117 -0.34048,1.25209 -0.32987,1.34771 0.19814,1.78594 0.87512,0.72632 1.70421,0.59281 2.08911,-0.3364 0.42289,-1.02097 0.59388,-1.11466 1.44425,-0.79135 0.3835,0.14581 1.06808,0.33043 1.52129,0.41027 0.45322,0.0798 0.92335,0.20656 1.04473,0.28158 0.83865,0.51831 -0.95939,4.33851 -2.04197,4.33851 -0.1751,0 -0.47592,0.18984 -0.66849,0.42187 -0.34771,0.41897 -2.90096,1.97912 -3.15425,1.92739 -0.0728,-0.0149 -1.28693,-0.35119 -2.69816,-0.7474 z m 6.41091,-2.05523 c 1.07465,-0.60409 1.32866,-0.90176 1.60172,-1.87704 0.36966,-1.32028 0.2768,-1.44568 -1.41797,-1.91484 -1.05586,-0.29229 -1.51525,-0.17605 -1.51525,0.3834 0,0.56041 -0.91508,1.21322 -1.53366,1.09409 -0.31776,-0.0612 -0.90635,-0.27205 -1.30798,-0.46856 -0.64688,-0.31652 -0.72405,-0.48909 -0.67608,-1.51184 0.0298,-0.63499 0.17862,-1.27899 0.33073,-1.4311 0.15212,-0.15212 0.27657,-0.44264 0.27657,-0.64561 0,-0.74868 1.12875,-4.055666 1.51671,-4.443626 0.27994,-0.27994 0.64771,-0.34661 1.21932,-0.22107 1.49072,0.32742 1.81755,0.66955 1.67725,1.75578 -0.12158,0.94138 0.23655,1.625136 0.7844,1.497576 0.12445,-0.029 0.56378,0.0418 0.97628,0.15732 0.91009,0.25482 1.35952,-0.12797 1.69787,-1.446106 0.19518,-0.7604 0.12609,-1.1372 -0.38629,-2.1065 -0.73428,-1.38911 -0.82622,-1.45749 -2.72303,-2.02534 -3.0581,-0.9155 -4.1636,-0.92397 -5.48551,-0.0421 -0.91738,0.61203 -1.05915,0.88381 -1.77967,3.41164 -0.43059,1.51065 -0.80748,2.898716 -0.83755,3.084596 -0.0301,0.18588 -0.26505,1.00683 -0.52218,1.82434 l -0.46752,1.48637 0.64361,1.21837 c 0.60595,1.14709 0.76254,1.25707 2.67646,1.87983 1.11806,0.3638 2.12017,0.75075 2.22691,0.85989 0.40268,0.41177 1.79292,0.173 3.02486,-0.51951 z m -15.64824,-0.19172 c -0.0567,-0.0558 -1.23414,-0.17637 -2.61659,-0.26783 -1.38245,-0.0915 -3.52558,-0.31143 -4.7625,-0.48881 l -2.24896,-0.32252 0.0553,-1.17491 c 0.0319,-0.67872 0.27545,-1.47265 0.57655,-1.87991 0.53718,-0.72658 0.77095,-1.62497 0.95956,-3.687596 0.0599,-0.65484 0.18586,-1.79412 0.27996,-2.53173 0.13219,-1.03614 0.0763,-1.43589 -0.24569,-1.7579 -0.31952,-0.31952 -0.37939,-0.73254 -0.25654,-1.76979 0.14692,-1.24057 0.22862,-1.37063 0.98304,-1.56504 0.59616,-0.15362 0.84719,-0.38992 0.91135,-0.85785 0.0487,-0.3552 0.17959,-0.74099 0.29087,-0.85731 0.11128,-0.11632 1.50018,-0.0868 3.08645,0.0655 7.88988,0.75777 7.25051,0.59713 7.24684,1.82066 -0.002,0.53414 -0.0757,1.41133 -0.16463,1.94931 -0.14847,0.89799 -0.24038,0.98472 -1.12157,1.05834 -0.86193,0.072 -0.96381,0.16116 -0.99875,0.87393 -0.082,1.67214 -0.42267,4.241066 -0.58507,4.411416 -0.0934,0.0979 -0.51778,0.217 -0.94312,0.26458 -1.07028,0.11972 -1.16564,0.6612 -0.12167,0.69088 0.46302,0.0132 1.30031,0.10139 1.86063,0.19606 l 1.01876,0.17212 v 1.41473 c 0,2.05001 -0.31563,2.72276 -1.23033,2.62235 -0.86341,-0.0948 -1.4155,0.27976 -1.4155,0.96027 0,0.46285 -0.34502,0.8713 -0.55841,0.66105 z m 2.46819,-2.33148 c 0.0629,-0.1819 0.14332,-0.88299 0.17877,-1.55797 l 0.0645,-1.22725 -1.14265,-0.11498 c -0.62845,-0.0632 -1.21319,-0.0105 -1.29942,0.11711 -0.23475,0.34755 -2.6228,0.15382 -2.83772,-0.23021 -0.10255,-0.18325 -0.14336,-0.87503 -0.0907,-1.53729 0.0995,-1.251696 0.6053,-1.593776 1.3118,-0.887266 0.34165,0.341646 2.11726,0.512146 2.29744,0.220606 0.0603,-0.0975 0.18816,-0.764346 0.28419,-1.481846 0.096,-0.7175 0.2233,-1.38561 0.28281,-1.4847 0.0595,-0.0991 -0.0242,-0.26199 -0.18605,-0.36201 -0.48463,-0.29952 -2.07056,-0.3739 -2.23681,-0.10492 -0.22478,0.36372 -1.10521,0.30663 -1.24184,-0.0805 -0.0642,-0.1819 -0.0644,-0.83674 -5.3e-4,-1.4552 0.10869,-1.05177 0.17001,-1.12645 0.94831,-1.15495 1.34387,-0.0492 1.86346,0.0556 2.3275,0.46945 0.26649,0.23768 0.8235,0.35715 1.42721,0.30614 0.88297,-0.0746 0.99909,-0.16958 1.07276,-0.87742 0.0454,-0.43656 0.14585,-1.04666 0.22313,-1.35577 0.12165,-0.48663 -0.01,-0.58925 -0.98066,-0.76494 -0.61663,-0.1116 -1.47834,-0.22603 -1.91491,-0.25427 -0.43656,-0.0283 -1.74625,-0.15331 -2.91041,-0.27791 -3.7224,-0.39842 -3.66647,-0.40999 -3.87002,0.80081 -0.12865,0.76528 -0.0685,1.18158 0.21719,1.50343 0.33536,0.3778 0.35149,0.79785 0.10666,2.77812 -0.15864,1.28317 -0.35772,3.03588 -0.44239,3.894906 -0.10143,1.029 -0.31773,1.70603 -0.63399,1.98438 -0.51727,0.45526 -0.92878,2.38544 -0.5202,2.43994 0.32929,0.0439 0.76102,0.15351 0.84327,0.21406 0.0935,0.0688 1.46918,0.18531 4.82864,0.40895 1.60073,0.10657 2.96003,0.24067 3.02066,0.298 0.23712,0.22423 0.76502,0.0874 0.8735,-0.22648 z m -33.21907,1.70039 c -0.24239,-0.0471 -0.44071,-0.29832 -0.44071,-0.55838 0,-0.26006 -0.0733,-1.00774 -0.16293,-1.66152 -0.14503,-1.05807 -0.10142,-1.20477 0.39687,-1.33508 0.34777,-0.0909 0.55981,-0.35868 0.55981,-0.70687 0,-0.62769 0.59635,-0.92376 2.30475,-1.14423 0.70417,-0.0909 1.21052,-0.0276 1.37609,0.17187 0.34484,0.4155 0.70022,3.90318 0.39188,3.84583 -0.71812,-0.13356 -1.20227,0.0894 -1.41624,0.65217 -0.19436,0.5112 -0.46547,0.65162 -1.40482,0.72761 -0.64019,0.0518 -1.36231,0.0557 -1.6047,0.009 z m 2.99887,-1.73875 c 0,0.0677 0.23812,-0.004 0.52917,-0.16007 0.5348,-0.28622 0.72403,-1.56558 0.36856,-2.49191 -0.1691,-0.44066 -1.26719,-0.52084 -2.48523,-0.18146 -0.56602,0.15771 -0.6483,0.31363 -0.57027,1.0806 0.0502,0.49297 0.19348,1.16534 0.31849,1.49416 0.19804,0.52088 0.33108,0.56809 1.03329,0.3667 0.4433,-0.12714 0.80599,-0.17575 0.80599,-0.10802 z m 6.08542,-0.25997 c 0,-0.94194 0.13413,-1.53413 0.39687,-1.75219 0.54304,-0.45068 0.57914,-6.133936 0.0418,-6.579886 -0.42392,-0.35183 -0.70326,-0.13266 -0.70326,0.55178 0,0.4394 -0.17974,0.4889 -1.52135,0.41892 l -1.52136,-0.0794 -0.0292,-2.58391 c -0.0292,-2.58019 -0.0282,-2.58413 0.66146,-2.73408 1.26282,-0.27455 1.35215,-0.34895 1.35215,-1.12614 0,-0.77197 5.6e-4,-0.77223 1.91823,-0.88345 1.05502,-0.0612 3.7637,-0.10438 6.01927,-0.096 l 4.10104,0.0153 0.13229,1.32291 c 0.0728,0.72761 0.0926,2.0607 0.0442,2.96243 l -0.0881,1.6395 -1.09198,0.0803 c -0.91173,0.067 -1.11716,0.18788 -1.24447,0.73209 -0.0955,0.40839 -0.39591,0.70891 -0.8043,0.80469 -0.59493,0.13954 -0.65869,0.29652 -0.73066,1.79901 -0.0619,1.292416 0.009,1.679906 0.33073,1.803306 0.30928,0.11868 0.40958,0.5622 0.40958,1.81107 v 1.65389 l -1.12448,0.23633 c -0.87582,0.18407 -1.14317,0.3679 -1.20902,0.83134 -0.0812,0.57134 -0.18908,0.59501 -2.71198,0.59501 h -2.62743 z m 7.17332,-0.65028 c 0.24149,-1.43591 0.18314,-2.05353 -0.2399,-2.53931 -0.40156,-0.46111 -0.48772,-1.13124 -0.54888,-4.269116 -0.0747,-3.83428 0.0312,-4.27218 1.02379,-4.23158 0.27438,0.0112 0.42197,0.3629 0.47817,1.13947 0.0655,0.90498 0.19404,1.14898 0.66146,1.2557 0.65125,0.1487 1.22689,0.0794 1.67674,-0.20194 0.29869,-0.18678 0.2529,-4.21946 -0.0535,-4.71528 -0.13768,-0.22278 -10.55913,-0.0938 -10.92977,0.13531 -0.24126,0.14911 -0.18186,4.20048 0.0675,4.60397 0.0984,0.15917 0.62153,0.26484 1.16258,0.23482 0.92015,-0.0511 0.98896,-0.11442 1.06468,-0.98061 0.0866,-0.99078 0.66616,-1.63956 1.26078,-1.41138 0.55413,0.21264 0.52842,8.440806 -0.027,8.653956 -0.26152,0.10036 -0.38865,0.53558 -0.38865,1.3305 0,1.09206 0.055,1.18768 0.7276,1.26507 1.09465,0.12595 4.0307,-0.0688 4.06447,-0.26958 z"
     style="fill:#000000;stroke-width:0.264583" />
</svg>
