<?xml version="1.0" encoding="UTF-8" standalone="no"?>
<svg
   xmlns:dc="http://purl.org/dc/elements/1.1/"
   xmlns:cc="http://creativecommons.org/ns#"
   xmlns:rdf="http://www.w3.org/1999/02/22-rdf-syntax-ns#"
   xmlns:svg="http://www.w3.org/2000/svg"
   xmlns="http://www.w3.org/2000/svg"
   xmlns:sodipodi="http://sodipodi.sourceforge.net/DTD/sodipodi-0.dtd"
   xmlns:inkscape="http://www.inkscape.org/namespaces/inkscape"
   width="150.0mm"
   height="355.9999999793637mm"
   viewBox="0 0 150.0 355.9999999793637"
   version="1.1"
   id="svg296"
   sodipodi:docname="front_v2_withUI_outline.svg"
   inkscape:version="1.0 (4035a4fb49, 2020-05-01)">
  <metadata
     id="metadata302">
    <rdf:RDF>
      <cc:Work
         rdf:about="">
        <dc:format>image/svg+xml</dc:format>
        <dc:type
           rdf:resource="http://purl.org/dc/dcmitype/StillImage" />
        <dc:title></dc:title>
      </cc:Work>
    </rdf:RDF>
  </metadata>
  <defs
     id="defs300">
    <marker
       id="Arrow2Sstart"
       inkscape:isstock="true"
       inkscape:stockid="Arrow2Sstart"
       orient="auto"
       refX="0"
       refY="0"
       style="overflow:visible">
      <path
         d="M 8.72,4.03 -2.21,0.02 8.72,-4 c -1.75,2.37 -1.74,5.62 0,8.03 z"
         id="Arrow2SstartPath"
         style="fill:#000000;fill-opacity:1;stroke:#000000;stroke-opacity:1"
         transform="matrix(0.3,0,0,0.3,-0.69,0)" />
    </marker>
    <marker
       id="Arrow2Send"
       inkscape:isstock="true"
       inkscape:stockid="Arrow2Send"
       orient="auto"
       refX="0"
       refY="0"
       style="overflow:visible">
      <path
         d="M 8.72,4.03 -2.21,0.02 8.72,-4 c -1.75,2.37 -1.74,5.62 0,8.03 z"
         id="Arrow2SendPath"
         style="fill:#000000;fill-opacity:1;stroke:#000000;stroke-opacity:1"
         transform="matrix(-0.3,0,0,-0.3,0.69,0)" />
    </marker>
  </defs>
  <sodipodi:namedview
     inkscape:document-rotation="0"
     pagecolor="#ffffff"
     bordercolor="#666666"
     borderopacity="1"
     objecttolerance="10"
     gridtolerance="10"
     guidetolerance="10"
     inkscape:pageopacity="0"
     inkscape:pageshadow="2"
     inkscape:window-width="1920"
     inkscape:window-height="1001"
     id="namedview298"
     showgrid="false"
     inkscape:zoom="1"
     inkscape:cx="340.42125"
     inkscape:cy="859.87587"
     inkscape:window-x="-9"
     inkscape:window-y="-9"
     inkscape:window-maximized="1"
     inkscape:current-layer="svg296"
     showguides="true" />
  <desc
     id="desc2">Outline to SVG export</desc>
  <path
     fill-rule="evenodd"
     fill="#000000"
     stroke="#555555"
     stroke-width="0"
     opacity="1"
     d="m 0.35798954,0.31883466 v 0 356.00000534 0 0 H 150.35799 v 0 0 -355.99996534 0 0 L 100.358,33.680125 v 0 0 h -1e-5 v 0 0 0 H 50.35806 v 0 0 0 h -1e-5 v 0 0 z"
     id="path284"
     style="stroke:#ff0000;stroke-width:0.0254;stroke-miterlimit:4;stroke-dasharray:none;stroke-opacity:1;fill:#ff5fd8;fill-opacity:0.04470586" />
  <g
     style="stroke-width:0.0254;stroke-miterlimit:4;stroke-dasharray:none;fill:#ff5fd8;fill-opacity:0.04470586;stroke:#ff0000;stroke-opacity:1"
     id="g286" />
  <g
     style="stroke-width:0.0254;stroke-miterlimit:4;stroke-dasharray:none;fill:#ff5fd8;fill-opacity:0.04470586;stroke:#ff0000;stroke-opacity:1"
     id="g288" />
  <g
     style="stroke-width:0.0254;stroke-miterlimit:4;stroke-dasharray:none;fill:#ff5fd8;fill-opacity:0.04470586;stroke:#ff0000;stroke-opacity:1"
     id="g290" />
  <g
     style="stroke-width:0.0254;stroke-miterlimit:4;stroke-dasharray:none;fill:#ff5fd8;fill-opacity:0.04470586;stroke:#ff0000;stroke-opacity:1"
     id="g292" />
  <g
     style="stroke-width:0.0254;stroke-miterlimit:4;stroke-dasharray:none;fill:#ff5fd8;fill-opacity:0.04470586;stroke:#ff0000;stroke-opacity:1"
     id="g294" />
  <path
     style="fill:#ff5fd8;fill-opacity:0.04470586;stroke:#ff0000;stroke-width:0.0254;stroke-opacity:1;stroke-miterlimit:4;stroke-dasharray:none"
     d="m 71.300749,149.74982 c -4.879337,-0.57981 -7.642778,-1.19707 -11.431815,-2.55346 -6.5703,-2.35204 -12.876212,-6.62619 -17.249311,-11.69159 -4.675863,-5.41611 -7.315351,-10.21586 -9.634829,-17.52035 -2.277732,-7.17303 -2.269622,-16.38923 0.02085,-23.687944 1.854851,-5.910617 4.559776,-11.138995 8.10336,-15.663045 8.240085,-10.519984 22.452171,-16.854374 36.033794,-16.060417 3.448976,0.20162 4.735338,0.368252 7.348368,0.95188 6.533131,1.459196 12.554468,4.353587 17.909854,8.609068 2.2113,1.757141 5.89796,5.439699 7.28763,7.279532 3.66005,4.845676 6.49199,10.760943 7.72934,16.144804 1.48953,6.481052 1.6915,12.543622 0.61889,18.576762 -1.69838,9.55284 -6.57204,18.08614 -14.17535,24.81965 -6.312748,5.59059 -13.95582,9.13501 -22.594942,10.47826 -1.723408,0.26796 -8.5506,0.48502 -9.96583,0.31685 z"
     id="path1149" />
  <path
     style="opacity:1;fill:#ff5fd8;fill-opacity:0.04470586;fill-rule:evenodd;stroke:#ff0000;stroke-width:0.0254;stroke-miterlimit:4;stroke-dasharray:none;stroke-opacity:1"
     d="m 113.88037,68.67059 -0.12695,-0.0087 -0.12873,-0.0263 c -0.12743,-0.02603 -0.12993,-0.02672 -0.24749,-0.06756 -0.11259,-0.03911 -0.1245,-0.04413 -0.22886,-0.09644 -0.10214,-0.0512 -0.11754,-0.06022 -0.21325,-0.124954 -0.0935,-0.0632 -0.1119,-0.07745 -0.19607,-0.151398 -0.0846,-0.0743 -0.10029,-0.09001 -0.17493,-0.174884 -0.0746,-0.08483 -0.0883,-0.1026 -0.15193,-0.196673 -0.0641,-0.0949 -0.0744,-0.112257 -0.12388,-0.210695 -0.0511,-0.10146 -0.0563,-0.113869 -0.0965,-0.228857 l -0.0425,-0.121579 -0.0262,-0.128733 -0.0262,-0.12873 -0.008,-0.127839 -0.008,-0.127836 0.008,-0.127839 0.008,-0.127836 0.0262,-0.128733 0.0262,-0.12873 0.0427,-0.122291 c 0.0413,-0.118377 0.0445,-0.125793 0.0985,-0.231655 0.0499,-0.09788 0.0629,-0.119894 0.12352,-0.209625 0.0611,-0.09039 0.0758,-0.109402 0.14932,-0.193129 0.0743,-0.08463 0.0899,-0.100201 0.17549,-0.175464 0.0866,-0.07618 0.10202,-0.08805 0.19846,-0.152858 0.0943,-0.06338 0.11488,-0.07548 0.21001,-0.123499 0.1,-0.05046 0.1118,-0.05545 0.22707,-0.0957 l 0.12161,-0.04247 0.13052,-0.02646 0.13052,-0.02646 0.12694,-0.0082 0.12695,-0.0082 0.12694,0.0083 0.12694,0.0083 0.12874,0.02619 c 0.12779,0.02601 0.12959,0.02649 0.24676,0.06727 0.11166,0.03887 0.12408,0.04411 0.23036,0.09727 0.10462,0.05233 0.11938,0.06095 0.21482,0.125413 0.0933,0.06302 0.11077,0.07653 0.19509,0.150799 0.0835,0.07353 0.10073,0.09079 0.17493,0.174942 0.0756,0.08571 0.0879,0.10168 0.15056,0.194847 0.0612,0.09101 0.0741,0.112927 0.12465,0.212339 0.0549,0.107934 0.0575,0.114051 0.0985,0.232431 0.0416,0.120187 0.0424,0.123016 0.0675,0.246735 l 0.0255,0.125156 0.009,0.129627 0.009,0.129625 -0.009,0.129624 -0.009,0.129625 -0.0255,0.125156 c -0.0252,0.123997 -0.0259,0.126301 -0.0681,0.248486 -0.042,0.121319 -0.0436,0.125145 -0.0997,0.234757 -0.0505,0.09868 -0.0646,0.12261 -0.123,0.209227 -0.0595,0.08823 -0.0741,0.107069 -0.14917,0.192561 -0.0768,0.0874 -0.0906,0.101219 -0.17806,0.177932 -0.0852,0.07474 -0.1048,0.08991 -0.19317,0.149593 -0.0907,0.06126 -0.10723,0.07089 -0.21277,0.123862 -0.10834,0.05438 -0.1206,0.0596 -0.23064,0.09806 -0.11489,0.04016 -0.11768,0.04092 -0.24495,0.06704 l -0.12873,0.02643 -0.118,0.0076 c -0.0649,0.0042 -0.12364,0.0081 -0.13052,0.0088 -0.007,7.94e-4 -0.0696,-0.0027 -0.13946,-0.0075 z"
     id="path4531" />
  <path
     style="opacity:1;fill:#ff5fd8;fill-opacity:0.04470586;fill-rule:evenodd;stroke:#ff0000;stroke-width:0.0254;stroke-miterlimit:4;stroke-dasharray:none;stroke-opacity:1"
     d="m 35.683213,68.600719 c -0.794334,-0.145145 -1.406152,-0.742921 -1.566481,-1.530535 -0.04479,-0.220041 -0.04486,-0.510685 -1.62e-4,-0.729133 0.0591,-0.288846 0.153083,-0.507892 0.31744,-0.739857 0.363183,-0.512572 0.94411,-0.813316 1.571032,-0.813316 0.519343,0 0.983144,0.194458 1.353997,0.56769 0.272095,0.273841 0.440317,0.587145 0.529135,0.985483 0.03571,0.16017 0.03577,0.552376 1.01e-4,0.722328 -0.05669,0.270111 -0.169387,0.533006 -0.321908,0.750932 -0.161259,0.230416 -0.449326,0.479788 -0.700977,0.606822 -0.121682,0.06143 -0.311761,0.128165 -0.459848,0.16146 -0.166005,0.03732 -0.562777,0.04728 -0.722326,0.01812 z"
     id="path4537" />
  <path
     style="opacity:1;fill:#ff5fd8;fill-opacity:0.04470586;fill-rule:evenodd;stroke:#ff0000;stroke-width:0.0254;stroke-miterlimit:4;stroke-dasharray:none;stroke-opacity:1"
     d="m 35.813566,146.62077 c -0.131612,-0.01 -0.323128,-0.0506 -0.46118,-0.0988 -0.823343,-0.28714 -1.351444,-1.08032 -1.294902,-1.94487 0.05615,-0.85857 0.681371,-1.57773 1.527225,-1.75669 0.673809,-0.14256 1.381622,0.0945 1.837372,0.61536 0.459606,0.52528 0.599652,1.24486 0.370287,1.90261 -0.222078,0.63684 -0.77666,1.11977 -1.435901,1.25037 -0.187923,0.0372 -0.344617,0.0465 -0.542901,0.032 z"
     id="path4539" />
  <path
     style="opacity:1;fill:#ff5fd8;fill-opacity:0.04470586;fill-rule:evenodd;stroke:#ff0000;stroke-width:0.0254;stroke-miterlimit:4;stroke-dasharray:none;stroke-opacity:1"
     d="m 114.33058,146.60349 c -0.32259,-0.0241 -0.65675,-0.14091 -0.92463,-0.32321 -0.8046,-0.54755 -1.07898,-1.59241 -0.64469,-2.45504 0.43573,-0.86551 1.435,-1.27254 2.34886,-0.95676 0.46801,0.16172 0.86563,0.5097 1.08821,0.95237 0.35256,0.70113 0.24506,1.54261 -0.27232,2.13167 -0.33542,0.38189 -0.80054,0.61389 -1.30579,0.65133 -0.0747,0.006 -0.14392,0.01 -0.15376,0.009 -0.01,-5.3e-4 -0.071,-0.005 -0.13588,-0.01 z"
     id="path4541" />
  <rect
     style="opacity:1;fill:#ff5fd8;fill-opacity:0.04470586;fill-rule:evenodd;stroke:#ff0000;stroke-width:0.0254;stroke-miterlimit:4;stroke-dasharray:none;stroke-opacity:1"
     id="rect4551"
     width="140"
     height="15"
     x="5.3579898"
     y="205.19377" />
  <circle
     style="opacity:1;fill:#ff5fd8;fill-opacity:0.04470586;fill-rule:evenodd;stroke:#ff0000;stroke-width:0.0254;stroke-miterlimit:4;stroke-dasharray:none;stroke-opacity:1"
     id="path4553"
     cx="12.043825"
     cy="212.69377"
     r="2.441853" />
  <circle
     r="2.441853"
     cy="212.69377"
     cx="139.12689"
     id="path4553-3"
     style="opacity:1;fill:#ff5fd8;fill-opacity:0.04470586;fill-rule:evenodd;stroke:#ff0000;stroke-width:0.0254;stroke-miterlimit:4;stroke-dasharray:none;stroke-opacity:1" />
  <circle
     style="opacity:1;fill:#ff5fd8;fill-opacity:0.04470586;fill-rule:evenodd;stroke:#ff0000;stroke-width:0.0254;stroke-miterlimit:4;stroke-dasharray:none;stroke-opacity:1"
     id="path4714"
     cx="75.357986"
     cy="241.58722"
     r="3.3977053" />
</svg>
