<?xml version="1.0" encoding="UTF-8" standalone="no"?>
<!-- Created with Inkscape (http://www.inkscape.org/) -->
<svg
   xmlns:svg="http://www.w3.org/2000/svg"
   xmlns="http://www.w3.org/2000/svg"
   version="1.0"
   width="60pt"
   height="20pt"
   id="svg2">
  <defs
     id="defs4" />
  <g
     id="layer1">
    <path
       d="M 14.541285 25 A 4.5412846 4.5412846 0 1 1  5.4587154,25 A 4.5412846 4.5412846 0 1 1  14.541285 25 z"
       transform="translate(2.541285,-12.45872)"
       style="opacity:1;fill:none;fill-opacity:1;stroke:#000000;stroke-width:1;stroke-linecap:square;stroke-miterlimit:4;stroke-dasharray:none;stroke-dashoffset:0;stroke-opacity:1"
       id="path4153" />
    <path
       d="M 44.449541 25 A 4.4495411 4.4495411 0 1 1  35.550459,25 A 4.4495411 4.4495411 0 1 1  44.449541 25 z"
       transform="translate(22.55046,-12.44954)"
       style="opacity:1;fill:none;fill-opacity:1;stroke:#000000;stroke-width:1;stroke-linecap:square;stroke-miterlimit:4;stroke-dasharray:none;stroke-dashoffset:0;stroke-opacity:1"
       id="path4155" />
    <path
       d="M 43.011715,33.011715 A 11.330276,11.330276 0 1 1 43.011714,16.988285"
       transform="translate(2.5,-12.5)"
       style="opacity:1;fill:none;fill-opacity:1;stroke:#000000;stroke-width:1;stroke-linecap:square;stroke-miterlimit:4;stroke-dasharray:none;stroke-dashoffset:0;stroke-opacity:1"
       id="path4159" />
    <path
       d="M 36.422018 25 A 1.4220183 1.4220183 0 1 1  33.577982,25 A 1.4220183 1.4220183 0 1 1  36.422018 25 z"
       transform="matrix(1.560859,0,0,1.560859,-17.13007,-26.52148)"
       style="opacity:1;fill:#000000;fill-opacity:1;stroke:#000000;stroke-width:0.64067274;stroke-linecap:square;stroke-miterlimit:4;stroke-dasharray:none;stroke-dashoffset:0;stroke-opacity:1"
       id="path4161" />
    <path
       d="M 17.5,12.5 L 25.986239,12.5"
       style="fill:none;fill-opacity:0.75;fill-rule:evenodd;stroke:#000000;stroke-width:1px;stroke-linecap:butt;stroke-linejoin:miter;stroke-opacity:1"
       id="path5036" />
    <path
       d="M 37.5,12.5 L 58.09633,12.5"
       style="fill:none;fill-opacity:0.75;fill-rule:evenodd;stroke:#000000;stroke-width:1px;stroke-linecap:butt;stroke-linejoin:miter;stroke-opacity:1"
       id="path5038" />
    <path
       d="M 12.5,10.5 L 12.5,14.5"
       style="fill:none;fill-opacity:0.75;fill-rule:evenodd;stroke:#000000;stroke-width:1px;stroke-linecap:butt;stroke-linejoin:miter;stroke-opacity:1"
       id="path5040" />
    <path
       d="M 10.5,12.5 L 14.5,12.5"
       style="fill:none;fill-opacity:0.75;fill-rule:evenodd;stroke:#000000;stroke-width:1px;stroke-linecap:butt;stroke-linejoin:miter;stroke-opacity:1"
       id="path5042" />
    <path
       d="M 60.5,12.5 L 64.5,12.5"
       style="fill:none;fill-opacity:0.75;fill-rule:evenodd;stroke:#000000;stroke-width:1px;stroke-linecap:butt;stroke-linejoin:miter;stroke-opacity:1"
       id="path5044" />
  </g>
</svg>
