<?xml version="1.0" encoding="UTF-8" standalone="no"?>
<svg
   xmlns:dc="http://purl.org/dc/elements/1.1/"
   xmlns:cc="http://creativecommons.org/ns#"
   xmlns:rdf="http://www.w3.org/1999/02/22-rdf-syntax-ns#"
   xmlns:svg="http://www.w3.org/2000/svg"
   xmlns="http://www.w3.org/2000/svg"
   xmlns:sodipodi="http://sodipodi.sourceforge.net/DTD/sodipodi-0.dtd"
   xmlns:inkscape="http://www.inkscape.org/namespaces/inkscape"
   version="1.1"
   width="250mm"
   height="250mm"
   viewBox="-8.989059 -97.889059 250 250"
   id="svg4435"
   sodipodi:docname="2_clockFace.svg"
   inkscape:version="1.0 (4035a4fb49, 2020-05-01)">
  <metadata
     id="metadata4439">
    <rdf:RDF>
      <cc:Work
         rdf:about="">
        <dc:format>image/svg+xml</dc:format>
        <dc:type
           rdf:resource="http://purl.org/dc/dcmitype/StillImage" />
        <dc:title>C:/Users/moogtron 4k/Desktop/College/Spring 2021/ECE3872 - Junior Design/Robot Orchestra Project/clocks_are_robots/schematics and PCBs/Main_Schematic_and_PCB/Finalized Eagle Board Junior Design.brd</dc:title>
      </cc:Work>
    </rdf:RDF>
  </metadata>
  <sodipodi:namedview
     inkscape:document-rotation="0"
     pagecolor="#ffffff"
     bordercolor="#666666"
     borderopacity="1"
     objecttolerance="10"
     gridtolerance="10"
     guidetolerance="10"
     inkscape:pageopacity="0"
     inkscape:pageshadow="2"
     inkscape:window-width="1920"
     inkscape:window-height="1001"
     id="namedview4437"
     showgrid="false"
     inkscape:zoom="1.3174604"
     inkscape:cx="68.153216"
     inkscape:cy="455.83448"
     inkscape:window-x="-9"
     inkscape:window-y="-9"
     inkscape:window-maximized="1"
     inkscape:current-layer="svg4435" />
  <title
     id="title2">C:/Users/moogtron 4k/Desktop/College/Spring 2021/ECE3872 - Junior Design/Robot Orchestra Project/clocks_are_robots/schematics and PCBs/Main_Schematic_and_PCB/Finalized Eagle Board Junior Design.brd</title>
  <desc
     id="desc4">generated by eagle2svg 1.4, </desc>
  <defs
     id="defs8">
    <style
       type="text/css"
       id="style6"><![CDATA[
path.l1 {stroke:#c90d0c; fill:none; }
line.l1 {stroke:#c90d0c; fill:none; }
circle.l1 {stroke:#c90d0c; fill:none; }
circle.j1 {fill:#c90d0c; }
rect.l1 {fill:#c90d0c; }
text.l1 {font-family:sans-serif; fill:#c90d0c; }
polygon.l1 {fill:#c90d0c; }
path.l16 {stroke:#0696d7; fill:none; }
line.l16 {stroke:#0696d7; fill:none; }
circle.l16 {stroke:#0696d7; fill:none; }
circle.j16 {fill:#0696d7; }
rect.l16 {fill:#0696d7; }
text.l16 {font-family:sans-serif; fill:#0696d7; }
polygon.l16 {fill:#0696d7; }
path.l17 {stroke:#3ddc97; fill:none; }
line.l17 {stroke:#3ddc97; fill:none; }
circle.l17 {stroke:#3ddc97; fill:none; }
circle.j17 {fill:#3ddc97; }
rect.l17 {fill:#3ddc97; }
text.l17 {font-family:sans-serif; fill:#3ddc97; }
polygon.l17 {fill:#3ddc97; }
path.l18 {stroke:#3ddc97; fill:none; }
line.l18 {stroke:#3ddc97; fill:none; }
circle.l18 {stroke:#3ddc97; fill:none; }
circle.j18 {fill:#3ddc97; }
rect.l18 {fill:#3ddc97; }
text.l18 {font-family:sans-serif; fill:#3ddc97; }
polygon.l18 {fill:#3ddc97; }
path.l20 {stroke:#eec643; fill:none; }
line.l20 {stroke:#eec643; fill:none; }
circle.l20 {stroke:#eec643; fill:none; }
circle.j20 {fill:#eec643; }
rect.l20 {fill:#eec643; }
text.l20 {font-family:sans-serif; fill:#eec643; }
polygon.l20 {fill:#eec643; }
path.l21 {stroke:#c8c8c8; fill:none; }
line.l21 {stroke:#c8c8c8; fill:none; }
circle.l21 {stroke:#c8c8c8; fill:none; }
circle.j21 {fill:#c8c8c8; }
rect.l21 {fill:#c8c8c8; }
text.l21 {font-family:sans-serif; fill:#c8c8c8; }
polygon.l21 {fill:#c8c8c8; }
path.l22 {stroke:#c8c8c8; fill:none; }
line.l22 {stroke:#c8c8c8; fill:none; }
circle.l22 {stroke:#c8c8c8; fill:none; }
circle.j22 {fill:#c8c8c8; }
rect.l22 {fill:#c8c8c8; }
text.l22 {font-family:sans-serif; fill:#c8c8c8; }
polygon.l22 {fill:#c8c8c8; }
path.l23 {stroke:#000000; fill:none; }
line.l23 {stroke:#000000; fill:none; }
circle.l23 {stroke:#000000; fill:none; }
circle.j23 {fill:#000000; }
rect.l23 {fill:#000000; }
text.l23 {font-family:sans-serif; fill:#000000; }
polygon.l23 {fill:#000000; }
path.l24 {stroke:#000000; fill:none; }
line.l24 {stroke:#000000; fill:none; }
circle.l24 {stroke:#000000; fill:none; }
circle.j24 {fill:#000000; }
rect.l24 {fill:#000000; }
text.l24 {font-family:sans-serif; fill:#000000; }
polygon.l24 {fill:#000000; }
path.l25 {stroke:#c8c8c8; fill:none; }
line.l25 {stroke:#c8c8c8; fill:none; }
circle.l25 {stroke:#c8c8c8; fill:none; }
circle.j25 {fill:#c8c8c8; }
rect.l25 {fill:#c8c8c8; }
text.l25 {font-family:sans-serif; fill:#c8c8c8; }
polygon.l25 {fill:#c8c8c8; }
path.l26 {stroke:#c8c8c8; fill:none; }
line.l26 {stroke:#c8c8c8; fill:none; }
circle.l26 {stroke:#c8c8c8; fill:none; }
circle.j26 {fill:#c8c8c8; }
rect.l26 {fill:#c8c8c8; }
text.l26 {font-family:sans-serif; fill:#c8c8c8; }
polygon.l26 {fill:#c8c8c8; }
path.l39 {stroke:#c90d0c; fill:none; }
line.l39 {stroke:#c90d0c; fill:none; }
circle.l39 {stroke:#c90d0c; fill:none; }
circle.j39 {fill:#c90d0c; }
rect.l39 {fill:#c90d0c; }
text.l39 {font-family:sans-serif; fill:#c90d0c; }
polygon.l39 {fill:#c90d0c; }
path.l40 {stroke:#0696d7; fill:none; }
line.l40 {stroke:#0696d7; fill:none; }
circle.l40 {stroke:#0696d7; fill:none; }
circle.j40 {fill:#0696d7; }
rect.l40 {fill:#0696d7; }
text.l40 {font-family:sans-serif; fill:#0696d7; }
polygon.l40 {fill:#0696d7; }
path.l41 {stroke:#c90d0c; fill:none; }
line.l41 {stroke:#c90d0c; fill:none; }
circle.l41 {stroke:#c90d0c; fill:none; }
circle.j41 {fill:#c90d0c; }
rect.l41 {fill:#c90d0c; }
text.l41 {font-family:sans-serif; fill:#c90d0c; }
polygon.l41 {fill:#c90d0c; }
path.l42 {stroke:#0696d7; fill:none; }
line.l42 {stroke:#0696d7; fill:none; }
circle.l42 {stroke:#0696d7; fill:none; }
circle.j42 {fill:#0696d7; }
rect.l42 {fill:#0696d7; }
text.l42 {font-family:sans-serif; fill:#0696d7; }
polygon.l42 {fill:#0696d7; }
path.l51 {stroke:#c8c8c8; fill:none; }
line.l51 {stroke:#c8c8c8; fill:none; }
circle.l51 {stroke:#c8c8c8; fill:none; }
circle.j51 {fill:#c8c8c8; }
rect.l51 {fill:#c8c8c8; }
text.l51 {font-family:sans-serif; fill:#c8c8c8; }
polygon.l51 {fill:#c8c8c8; }
path.l52 {stroke:#c8c8c8; fill:none; }
line.l52 {stroke:#c8c8c8; fill:none; }
circle.l52 {stroke:#c8c8c8; fill:none; }
circle.j52 {fill:#c8c8c8; }
rect.l52 {fill:#c8c8c8; }
text.l52 {font-family:sans-serif; fill:#c8c8c8; }
polygon.l52 {fill:#c8c8c8; }
circle.j0 {fill:#afd134; }
]]></style>
  </defs>
  <path
     sodipodi:nodetypes="ssssssssssssssssssssssssssssssssssssscccsssssssscsscsssssssssssssscssssssscssssssscsssssssssscsssssscsscsssssssssssscsssssssscssccsscssscsssscsssssscssscssscscssssssscsssssscssssssscsscccssssssssssssssssssssssscssssssscssss"
     id="path1035"
     d="M 36.248716,-0.36390483 C 33.015827,-0.92311211 28.561367,-2.3320225 25.075441,-3.897908 22.828075,-4.9074258 18.631704,-7.5746239 16.308258,-9.4702867 10.054094,-14.572978 4.8397409,-22.282117 2.4266588,-29.993501 c -0.3452683,-1.103361 -0.6934686,-2.187488 -0.7737723,-2.409161 -0.4008087,-1.106381 -0.89422004,-3.674169 -1.18215368,-6.152147 -0.45712189,-3.933924 -0.3709145,-7.939727 0.25428916,-11.81652 0.2743168,-1.701017 0.54627792,-3.156384 0.60434952,-3.234147 0.058069,-0.07777 0.4183425,-1.195075 0.8006045,-2.482913 1.3397079,-4.513473 3.7796339,-9.406247 6.8271711,-13.69049 9.0705989,-12.751496 26.0659059,-19.643031 41.9945609,-17.028637 9.901079,1.625077 18.332526,6.19517 25.785984,13.976761 2.9367,3.066001 6.55947,9.012541 8.287315,13.603159 1.775937,4.718347 2.850969,11.00652 2.799171,16.373242 -0.11535,11.953581 -4.808269,22.663844 -13.626772,31.099317 C 64.19454,-2.1866726 50.125519,2.0364627 36.248716,-0.36390483 Z m 11.176045,0.22538068 c 2.633467,-0.24656919 5.343031,-0.66088382 5.579352,-0.85313146 0.156919,-0.12765519 -2.778762,-14.05064739 -3.030755,-14.37389339 -0.06583,-0.08445 -1.179541,-0.01703 -2.47491,0.149816 -2.044902,0.263386 -2.813056,0.263783 -5.830185,0.003 -2.893442,-0.250099 -3.815495,-0.40447 -5.509806,-0.922654 -3.250258,-0.994052 -7.21228,-2.936516 -9.029406,-4.42685 -0.376534,-0.308814 -0.743175,-0.566708 -0.814755,-0.573091 -0.153054,-0.01365 -4.099641,4.816357 -4.116949,5.038498 -0.03548,0.455274 4.724342,3.501674 6.994307,4.476529 0.565391,0.24281 1.055035,0.468939 1.088096,0.502504 0.03306,0.03357 -0.604326,1.6103186 -1.41641,3.5039021 -0.812085,1.8935721 -1.519414,3.6044307 -1.571844,3.8019048 -0.07489,0.2820464 0.115386,0.4533316 0.887207,0.7986824 1.318938,0.5901573 5.638714,1.8683189 7.533848,2.22916787 2.7642,0.5263228 9.198219,0.88097159 11.71221,0.64558868 z M 28.345863,-7.2213914 c 0.837628,-1.9545575 1.532499,-3.6026786 1.544161,-3.6624986 0.01166,-0.05982 -0.464173,-0.310595 -1.057417,-0.557289 -1.555804,-0.646971 -5.217498,-2.959641 -7.126557,-4.50103 -0.903714,-0.729661 -2.430395,-2.143923 -3.392629,-3.142798 l -1.749515,-1.816136 -3.086504,2.59822 -3.086509,2.598215 0.799294,0.853838 c 3.595979,3.841347 6.316945,6.1288702 9.998138,8.4054562 2.485493,1.5371168 5.083199,2.8815942 5.438403,2.8147071 0.107898,-0.02032 0.881508,-1.6361267 1.719135,-3.5906847 z m 28.080103,5.4059201 c 8.17257,-2.4324791 15.861919,-7.5467168 21.169277,-14.0798487 0.737764,-0.908139 1.348546,-1.73161 1.357314,-1.829939 0.0088,-0.09832 -1.452957,-1.250573 -3.248282,-2.560544 l -3.264224,-2.38177 1.001621,-1.573737 c 0.550886,-0.865552 1.249781,-2.023262 1.553094,-2.572679 l 0.551507,-0.998946 -2.978841,-1.480866 c -1.63836,-0.814472 -2.999985,-1.451236 -3.025865,-1.415029 -0.02586,0.03621 -0.45848,0.771845 -0.961376,1.634752 -3.103558,5.325349 -8.313476,9.775617 -14.113333,12.055479 -0.99359,0.390569 -2.254877,0.82929 -2.802857,0.974939 -0.547976,0.145642 -1.068797,0.31628 -1.157375,0.379188 -0.08858,0.0629 0.116859,1.361122 0.456537,2.884926 0.339671,1.523801 1.032831,4.6943353 1.540347,7.0456266 0.507517,2.3512907 0.958605,4.3511955 1.002417,4.4442385 0.108333,0.2300674 0.797381,0.1059994 2.920039,-0.5257904 z M 15.77733,-20.594819 c 0.399888,-0.349388 0.803257,-0.628457 0.896367,-0.620154 0.09311,0.0083 0.827793,0.737006 1.632629,1.619341 0.804832,0.882337 1.911166,1.986926 2.458522,2.454634 l 0.995191,0.850386 2.10626,-2.583845 c 2.101078,-2.577481 2.105271,-2.584646 1.704673,-2.912171 -0.220869,-0.180583 -1.04469,-0.983566 -1.830713,-1.784405 -3.446231,-3.511186 -5.969008,-7.964861 -7.231011,-12.765536 -0.480744,-1.828748 -0.973066,-5.433364 -0.88183,-6.456445 0.02744,-0.307754 -0.05699,-0.612007 -0.187643,-0.676113 -0.130651,-0.06411 -1.634946,-0.129546 -3.342884,-0.145392 l -3.1053344,-0.02884 -0.036191,1.065591 c -0.047215,1.390295 0.4416676,5.462647 0.8217708,6.845267 0.1640802,0.59683 0.2659616,1.106785 0.2264036,1.133234 -0.039556,0.02645 -1.8185101,0.490802 -3.9532258,1.031897 -2.134713,0.541095 -3.9179567,1.007703 -3.9627595,1.036907 -0.1446181,0.09427 0.4143089,1.896799 1.4212761,4.583599 1.1823934,3.154879 3.2813347,7.069164 5.2507597,9.79207 l 1.4463955,1.99977 2.422134,-1.902271 c 1.332171,-1.046253 2.749317,-2.188136 3.149211,-2.537526 z m 31.236956,4.988848 c 8.427355,-0.85699 16.345976,-5.836331 20.841155,-13.105223 1.311643,-2.120984 2.486138,-4.781809 3.201396,-7.252856 0.841797,-2.908161 1.248687,-7.454148 0.917728,-10.253865 -0.713221,-6.034251 -2.737075,-10.845437 -6.431834,-15.290049 -4.851432,-5.836019 -11.337925,-9.232739 -18.957961,-9.927529 -4.593055,-0.418834 -8.511815,0.126554 -12.642584,1.75937 -8.264675,3.266876 -14.185315,9.687941 -16.785737,18.204513 -0.906544,2.969009 -1.344814,7.904876 -0.976722,10.99984 1.190262,10.007465 7.268623,18.426458 16.228633,22.477885 1.977843,0.894314 5.131411,1.893243 6.881703,2.179856 1.926307,0.315431 5.675227,0.416409 7.724174,0.208054 z m 34.041249,-4.943834 c 2.603409,-4.222516 5.002982,-10.389872 5.79859,-14.903434 l 0.257344,-1.460042 -1.2096,-0.226875 c -0.665276,-0.124777 -2.485406,-0.400313 -4.044716,-0.612301 l -2.835116,-0.385428 -0.09806,1.043302 c -0.147545,1.570068 -1.568692,6.095181 -2.644979,8.421696 -0.524181,1.133084 -1.485434,2.921381 -2.136122,3.973996 -0.650674,1.052609 -1.141384,1.963795 -1.090468,2.024847 0.25509,0.305772 6.072758,4.478829 6.27883,4.503839 0.131566,0.01595 0.907472,-1.054856 1.724253,-2.379604 z M 5.6246261,-33.809602 c 2.0353584,-0.518967 3.7733759,-0.980127 3.8622664,-1.024801 0.088889,-0.04467 0.040523,-0.572396 -0.107435,-1.172717 -0.3404111,-1.380991 -0.7305194,-4.49005 -0.8033767,-6.402681 -0.068751,-1.804647 0.2277801,-5.613119 0.5895783,-7.572276 l 0.2685659,-1.454292 -3.8328604,-0.893045 c -2.1080726,-0.491173 -3.9007501,-0.83613 -3.9837292,-0.766571 -0.082977,0.06956 -0.3476422,1.390665 -0.5881499,2.935784 -0.76800157,4.93407 -0.62718222,10.713207 0.3787112,15.541818 0.1992107,0.956264 0.3967542,1.741749 0.4389912,1.745515 0.042232,0.0038 1.7420764,-0.417762 3.7774382,-0.936734 z m 70.8924599,3.696885 c 0.771512,-1.854517 1.732005,-5.097575 2.16049,-7.294787 l 0.22005,-1.128359 2.142683,0.320521 c 1.178481,0.176286 3.028125,0.45391 4.110312,0.61694 l 1.967628,0.296416 0.186125,-2.108514 c 0.401698,-4.546129 0.106199,-9.301997 -0.839833,-13.510781 -0.270622,-1.203965 -0.551646,-2.306472 -0.624485,-2.450021 -0.10067,-0.198379 -1.039851,0.01011 -3.91469,0.869022 -3.900528,1.165389 -4.278571,1.242647 -4.245127,0.867617 0.0346,-0.387998 -1.588736,-4.599458 -1.779439,-4.616464 -0.100877,-0.009 -1.488026,0.590294 -3.082569,1.331752 l -2.899147,1.348113 0.640582,1.61944 c 0.825046,2.08575 1.512478,4.964223 1.821942,7.628956 0.196257,1.690008 0.18839,2.752643 -0.03928,5.305597 -0.30713,3.444023 -0.905112,5.889623 -2.103,8.600695 l -0.581879,1.316937 0.504712,0.240844 c 1.436557,0.685533 4.466735,2.175566 4.790553,2.355655 0.203888,0.113388 0.46337,0.220373 0.576619,0.237729 0.113271,0.01733 0.557681,-0.813937 0.987581,-1.847323 z M 12.03486,-43.956258 c 0.907765,0.01928 2.055812,0.02364 2.55122,0.0097 l 0.900739,-0.02535 0.36421,-2.926698 c 0.542354,-4.358185 1.875593,-8.21715 4.063818,-11.762407 1.334747,-2.162498 3.737162,-4.942844 5.673696,-6.566255 l 0.682861,-0.572444 -0.467389,-0.674206 c -1.24497,-1.795856 -3.589692,-4.572243 -3.780414,-4.476389 -0.482287,0.24239 -4.08889,3.789693 -4.850333,4.770579 -0.45038,0.58018 -0.872683,1.050841 -0.938453,1.045912 -0.06575,-0.0051 -1.555993,-1.138286 -3.311612,-2.51858 l -3.1920254,-2.509629 -0.5479671,0.6882 c -1.1960694,1.502185 -3.8002016,6.002927 -4.8466375,8.376477 -1.0146543,2.301479 -2.6567168,7.260538 -2.4759024,7.477293 0.042109,0.05047 1.8026981,0.490575 3.9124275,0.978003 2.1097273,0.487424 3.8733826,0.931204 3.9192355,0.986169 0.045856,0.05497 -0.098529,1.177585 -0.3208145,2.494706 -0.2223036,1.317126 -0.4043878,3.036855 -0.4046253,3.821635 l -4.371e-4,1.426873 0.7089623,-0.03932 c 0.389925,-0.02163 1.451674,-0.02355 2.359441,-0.0043 z m 70.008804,-10.933669 c 1.906636,-0.55931 3.519079,-1.124348 3.583233,-1.255638 0.206552,-0.422709 -2.059408,-5.931353 -3.498057,-8.503859 -1.508113,-2.696721 -4.350376,-6.693749 -5.769454,-8.113482 l -0.882535,-0.882944 -2.76754,2.674354 c -1.522149,1.470894 -2.802225,2.746884 -2.844621,2.835539 -0.04239,0.08865 0.222805,0.476027 0.589338,0.860837 2.452338,2.574601 5.377336,7.421772 6.793968,11.258589 0.524121,1.419544 0.936413,2.260008 1.086808,2.215404 0.133261,-0.03953 1.802249,-0.529488 3.70886,-1.0888 z m -9.145665,-2.448614 2.886233,-1.345838 -1.023384,-1.878725 c -1.175896,-2.158687 -2.77882,-4.446867 -4.395592,-6.274722 l -1.123585,-1.270279 2.980081,-2.854455 2.980066,-2.85446 -0.75562,-0.806764 c -2.679733,-2.861118 -8.697835,-6.892894 -13.126065,-8.793692 -2.6786,-1.149773 -6.716227,-2.461523 -6.956558,-2.260054 -0.104721,0.08779 -3.422409,13.647007 -3.500842,14.307751 -0.0085,0.07208 0.475297,0.271508 1.075226,0.443178 1.861985,0.532817 5.33741,2.053172 6.874962,3.007516 4.204506,2.609692 8.081081,6.691506 10.317891,10.86416 0.345993,0.645422 0.685728,1.148454 0.754993,1.117853 0.06928,-0.0306 1.424755,-0.661259 3.012194,-1.401469 z m -55.4538,-9.635841 c 2.470083,-2.910532 6.142629,-5.847566 9.685576,-7.745826 1.068609,-0.572543 1.949117,-1.110404 1.956683,-1.19524 0.01559,-0.174818 -3.006708,-6.866754 -3.209196,-7.105758 -0.154063,-0.181845 -4.527331,2.188205 -6.183041,3.350834 -2.171196,1.524606 -3.864662,2.902301 -5.675005,4.61681 -2.151612,2.03772 -4.1962162,4.442974 -3.980058,4.682116 0.514908,0.569654 6.173295,4.809817 6.277678,4.704229 0.07001,-0.07082 0.577325,-0.659045 1.127363,-1.307165 z m 10.330729,0.07694 c 3.721785,-2.631105 8.682218,-4.476007 13.473758,-5.011211 1.579965,-0.176484 2.744782,-0.156981 5.613106,0.09397 2.492071,0.21802 3.594939,0.518317 3.612292,0.372434 0.01381,-0.116537 0.800553,-3.629733 1.708683,-7.479992 l 1.651148,-7.000466 -0.699449,-0.177028 c -0.384704,-0.09737 -1.943891,-0.343182 -3.464871,-0.546263 -6.90143,-0.921481 -14.272987,-0.07443 -20.861325,2.397148 -1.411448,0.529495 -2.568447,0.987183 -2.571113,1.017084 -0.0035,0.03929 2.686139,6.002799 3.344915,7.41638 0.03203,0.06872 -0.882526,0.636484 -2.032334,1.261693 -1.149818,0.625209 -2.762024,1.605347 -3.582692,2.178078 l -1.492127,1.04133 1.095296,1.380613 c 0.602414,0.759335 1.513115,1.922469 2.023781,2.584732 0.510665,0.662274 0.971666,1.207982 1.024436,1.212688 0.05277,0.0047 0.573196,-0.328833 1.156496,-0.741193 z"
     style="fill:#000000;stroke:#000000;stroke-width:0.114653;stroke-miterlimit:4;stroke-dasharray:none;stroke-opacity:1" />
  <circle
     r="2.7320371"
     cy="-43.530239"
     cx="44.003963"
     id="circle850"
     style="fill:#000000;fill-opacity:0;stroke:#f60000;stroke-width:0.0359257;stroke-miterlimit:4;stroke-dasharray:none" />
  <rect
     y="-93.344536"
     x="-5.8103313"
     height="99.628593"
     width="99.628593"
     id="rect856"
     style="fill:#000000;fill-opacity:0;stroke:#ff0000;stroke-width:0.0254;stroke-miterlimit:4;stroke-dasharray:none;stroke-opacity:1" />
  <circle
     style="fill:#000000;fill-opacity:0;stroke:#f60000;stroke-width:0.0254;stroke-miterlimit:4;stroke-dasharray:none"
     id="circle5360"
     cx="5.0058146"
     cy="-83.005753"
     r="1.9315873" />
  <circle
     cy="-82.961281"
     cx="83.013039"
     id="circle5362"
     style="fill:#000000;fill-opacity:0;stroke:#f60000;stroke-width:0.0254;stroke-miterlimit:4;stroke-dasharray:none"
     r="1.9315873" />
  <circle
     r="1.9315873"
     style="fill:#000000;fill-opacity:0;stroke:#f60000;stroke-width:0.0254;stroke-miterlimit:4;stroke-dasharray:none"
     id="circle5364"
     cx="83.483429"
     cy="-5.0104327" />
  <circle
     cy="-4.9926429"
     cx="4.9816556"
     id="circle5366"
     style="fill:#000000;fill-opacity:0;stroke:#f60000;stroke-width:0.0254;stroke-miterlimit:4;stroke-dasharray:none"
     r="1.9315873" />
  <g
     inkscape:groupmode="layer"
     id="layer1"
     inkscape:label="pcb"
     style="display:inline" />
  <circle
     r="1.2399335"
     cy="-79.879959"
     cx="180.43207"
     id="path4714-7-5-0"
     style="opacity:1;fill:none;fill-opacity:0.27451;fill-rule:evenodd;stroke:#ff0000;stroke-width:0.0254;stroke-miterlimit:4;stroke-dasharray:none;stroke-opacity:1" />
  <path
     style="fill:none;stroke:#ff0000;stroke-width:0.0254;stroke-linecap:butt;stroke-linejoin:miter;stroke-miterlimit:4;stroke-dasharray:none;stroke-opacity:1"
     d="m 176.99259,-84.482364 8.46667,3.96875 c 0,0 -51.72604,79.1104167 -46.16979,82.8145887 5.55625,3.7041591 -9.12812,-6.217711 -9.12812,-6.217711 0,0 55.69478,-75.9354167 46.83124,-80.5656277 z"
     id="path1858" />
  <circle
     r="2.7320371"
     style="fill:#000000;fill-opacity:0;stroke:#f60000;stroke-width:0.0359258;stroke-miterlimit:4;stroke-dasharray:none"
     id="circle850-2"
     cx="44.003967"
     cy="56.098354" />
  <rect
     style="fill:#000000;fill-opacity:0;stroke:#ff0000;stroke-width:0.0254;stroke-miterlimit:4;stroke-dasharray:none;stroke-opacity:1"
     id="rect856-4"
     width="99.628593"
     height="99.628593"
     x="-5.8103294"
     y="6.2840576" />
  <circle
     r="1.9315873"
     cy="16.622841"
     cx="5.0058174"
     id="circle5360-9"
     style="fill:#000000;fill-opacity:0;stroke:#f60000;stroke-width:0.0254;stroke-miterlimit:4;stroke-dasharray:none" />
  <circle
     r="1.9315873"
     style="fill:#000000;fill-opacity:0;stroke:#f60000;stroke-width:0.0254;stroke-miterlimit:4;stroke-dasharray:none"
     id="circle5362-8"
     cx="83.013046"
     cy="16.667313" />
  <circle
     cy="94.618164"
     cx="83.483429"
     id="circle5364-8"
     style="fill:#000000;fill-opacity:0;stroke:#f60000;stroke-width:0.0254;stroke-miterlimit:4;stroke-dasharray:none"
     r="1.9315873" />
  <circle
     r="1.9315873"
     style="fill:#000000;fill-opacity:0;stroke:#f60000;stroke-width:0.0254;stroke-miterlimit:4;stroke-dasharray:none"
     id="circle5366-1"
     cx="4.9816589"
     cy="94.635948" />
  <path
     style="fill:#000000;fill-opacity:0;stroke:#ff0000;stroke-width:0.096;stroke-miterlimit:4;stroke-dasharray:none;stroke-opacity:1"
     d="m 68.179274,576.83554 c -4.6e-5,-4.50924 0.350647,-8.59871 1.221185,-14.24038 0.222547,-1.44225 0.614311,-3.98385 0.870585,-5.64799 0.256275,-1.66414 0.504402,-3.66846 0.551392,-4.45403 l 0.08544,-1.42831 -0.658317,-0.21607 c -1.192335,-0.39132 -7.403987,-1.93337 -14.442117,-3.58526 -6.886083,-1.6162 -13.596691,-3.27047 -14.204998,-3.50175 -0.414412,-0.15755 -0.407365,-0.37621 0.07573,-2.34995 1.311427,-5.35795 5.49056,-17.45988 8.450612,-24.47127 2.797297,-6.62588 9.223619,-18.37503 14.820956,-27.09693 2.409564,-3.75464 5.695234,-8.13932 5.97169,-7.96914 0.08197,0.0505 1.843443,1.42776 3.914374,3.06065 13.414596,10.57721 20.078004,15.66658 20.511948,15.66658 0.352719,0 1.220846,-0.89584 3.127581,-3.22743 2.098005,-2.56548 3.305985,-3.87608 7.357205,-7.98227 5.07743,-5.14631 11.03997,-10.70991 11.47787,-10.70991 0.21867,0 2.59031,2.47618 4.44356,4.63943 3.4505,4.02767 7.18269,8.81217 9.75564,12.50628 0.61818,0.88754 1.17721,1.68259 1.24229,1.76678 0.0797,0.10314 -0.59568,0.75995 -2.0709,2.01384 -6.89224,5.85818 -15.29678,15.34582 -20.33156,22.95172 -7.14518,10.794 -12.527456,23.97898 -15.190025,37.21103 -0.783859,3.89552 -1.1264,6.14012 -2.035006,13.33497 -0.477561,3.78159 -0.904874,6.91219 -0.949583,6.95689 -0.04471,0.0447 -5.461991,0.0813 -12.038404,0.0813 H 68.179307 Z"
     id="path883"
     transform="matrix(0.26458333,0,0,0.26458333,-8.989059,-97.889059)" />
  <path
     style="fill:#000000;fill-opacity:0;stroke:#ff0000;stroke-width:0.096;stroke-miterlimit:4;stroke-dasharray:none;stroke-opacity:1"
     d="m 133.25983,494.58473 c -0.69437,-0.83208 -2.46281,-3.05597 -3.92987,-4.942 -1.46705,-1.88603 -4.26484,-5.44964 -6.2173,-7.91914 -1.95246,-2.4695 -3.57775,-4.5625 -3.61175,-4.65112 -0.0665,-0.17339 5.09701,-3.82524 8.31362,-5.8797 2.81651,-1.79891 6.76031,-4.14052 10.12696,-6.01284 3.96194,-2.20337 6.9161,-3.98211 7.61903,-4.58751 l 0.57698,-0.49694 -0.34881,-0.79198 c -0.19184,-0.43559 -1.60366,-3.54538 -3.13738,-6.91065 -2.83549,-6.22161 -6.10048,-13.4635 -8.02204,-17.79326 -0.58479,-1.31766 -1.03082,-2.44822 -0.99118,-2.51236 0.0851,-0.1377 4.95889,-2.0748 9.14454,-3.63452 18.63195,-6.94293 38.22452,-10.48682 57.95919,-10.4836 9.70412,0.002 18.76728,0.82695 30.3916,2.76774 2.41232,0.40275 5.78382,1.13652 5.90844,1.2859 0.021,0.0252 -1.04135,4.61457 -2.36076,10.19869 -4.93777,20.89804 -7.33927,31.23392 -9.20164,39.60321 -0.47729,2.14489 -0.89928,4.03596 -0.93777,4.20238 -0.0927,0.40094 -0.30418,0.39551 -3.84584,-0.0987 -10.3618,-1.44585 -21.82991,-2.17916 -27.55193,-1.76176 -18.02529,1.31488 -38.10222,8.23402 -52.73456,18.17398 -3.67373,2.49562 -5.60392,3.75701 -5.74901,3.75701 -0.0759,0 -0.70614,-0.68078 -1.40052,-1.51285 z"
     id="path885"
     transform="matrix(0.26458333,0,0,0.26458333,-8.989059,-97.889059)" />
  <path
     style="fill:#ffffff;fill-opacity:0;stroke:#ff0000;stroke-width:0.096;stroke-miterlimit:4;stroke-dasharray:none;stroke-opacity:1"
     d="m 297.29694,533.72066 c -0.40649,-0.59719 -1.30412,-2.1023 -1.99473,-3.3447 -0.69061,-1.24239 -1.75202,-3.07052 -2.35869,-4.0625 -8.50291,-13.90323 -21.38007,-27.02094 -35.23643,-35.89464 -2.51196,-1.60867 -4.05944,-2.46502 -7.625,-4.21952 -6.88764,-3.38921 -13.8047,-6.19749 -19.875,-8.06912 -1.03125,-0.31796 -2.2877,-0.74958 -2.79212,-0.95915 l -0.91712,-0.38104 0.0798,-0.45256 c 0.62544,-3.54805 11.38432,-47.60676 12.83568,-52.56342 l 0.25207,-0.86085 0.77086,0.0766 c 3.40696,0.33871 17.64103,5.2006 26.08336,8.90921 14.09713,6.19269 32.44106,18.01749 44.25,28.5243 1.30365,1.1599 5.38813,5.25989 6.37607,6.40029 l 0.62332,0.71951 -4.21844,4.03447 c -2.32015,2.21896 -4.89345,4.68867 -5.71845,5.48826 -0.825,0.79959 -3.46875,3.33357 -5.875,5.63109 -2.40625,2.29751 -4.89109,4.68594 -5.52187,5.30762 l -1.14688,1.13032 2.50698,2.8125 c 2.85353,3.20128 5.04762,5.80375 6.84065,8.11389 4.09574,5.27694 8.23786,11.52721 11.23203,16.94861 3.09378,5.60174 4.1115,7.51125 4.04298,7.58564 -0.0698,0.0758 -20.02832,9.40769 -21.35193,9.98343 l -0.52304,0.22751 z"
     id="path911"
     transform="matrix(0.26458333,0,0,0.26458333,-8.989059,-97.889059)" />
  <path
     style="fill:#ffffff;fill-opacity:0;stroke:#ff0000;stroke-width:0.096;stroke-miterlimit:4;stroke-dasharray:none;stroke-opacity:1"
     d="m 314.82478,637.20725 c -2.47735,-1.23538 -7.28851,-3.59427 -10.69146,-5.24197 -3.40295,-1.6477 -6.24521,-3.05204 -6.31613,-3.12075 -0.0709,-0.0687 0.47133,-1.47495 1.20499,-3.12495 5.51066,-12.39337 7.65594,-21.35338 8.91361,-37.22866 0.83756,-10.57226 0.23165,-18.42827 -2.32856,-30.19153 -1.36782,-6.28467 -2.87409,-11.19259 -5.46237,-17.79818 -0.77178,-1.96966 -1.40323,-3.65445 -1.40323,-3.74397 0,-0.0895 0.77561,-0.52365 1.72357,-0.96473 11.222,-5.22154 16.87813,-7.77641 19.42396,-8.77379 l 0.90661,-0.35518 0.81394,1.73043 c 2.02728,4.30993 5.59297,14.03236 5.59297,15.25011 0,0.76828 0.46998,1.20537 1.29609,1.20537 1.25587,0 5.06294,-1.00785 15.32092,-4.05592 6.24394,-1.85533 10.88208,-3.0966 12.61585,-3.37629 1.16295,-0.1876 1.41144,-0.18302 1.62443,0.03 0.2483,0.24831 1.74394,6.02336 2.62667,10.14229 3.42876,15.99897 4.3982,32.71739 2.9163,50.29297 -0.20085,2.38206 -0.41868,4.96742 -0.48408,5.74524 l -0.1189,1.41421 -0.79549,-0.033 c -0.43753,-0.0182 -7.3979,-1.02865 -15.4675,-2.24553 -8.0696,-1.21689 -14.71924,-2.15662 -14.77698,-2.08831 -0.0577,0.0683 -0.40157,1.65854 -0.76407,3.53382 -1.59372,8.24472 -4.95644,19.91781 -7.82745,27.17158 -1.12029,2.83049 -3.04292,6.8334 -3.63717,7.57259 l -0.40224,0.50035 z"
     id="path913"
     transform="matrix(0.26458333,0,0,0.26458333,-8.989059,-97.889059)" />
  <path
     style="fill:#ffffff;fill-opacity:0;stroke:#ff0000;stroke-width:0.096;stroke-miterlimit:4;stroke-dasharray:none;stroke-opacity:1"
     d="m 236.54401,741.47703 c -0.28007,-0.52332 -1.49631,-5.91539 -5.9529,-26.39163 -1.11097,-5.10442 -2.53388,-11.62748 -3.16204,-14.49568 -1.90832,-8.71358 -2.60285,-12.84891 -2.19979,-13.09801 0.1112,-0.0687 0.8865,-0.33243 1.7229,-0.58601 15.29423,-4.63688 25.04749,-9.24587 35.89422,-16.96215 5.08993,-3.62094 8.94999,-6.88436 13.68683,-11.57129 7.59324,-7.51324 12.26488,-13.6344 18.41186,-24.12468 1.06607,-1.81933 2.03108,-3.30788 2.14447,-3.30788 0.40403,0 4.34102,1.86061 13.10503,6.1934 l 8.88969,4.39493 -0.56859,1.0256 c -2.63574,4.75417 -5.07952,8.81512 -9.05074,15.04002 -1.13369,1.77708 -2.06126,3.26294 -2.06126,3.30192 0,0.0689 0.96536,0.78206 8.75045,6.46472 7.41545,5.41285 13.14243,9.7618 15.19712,11.54039 l 0.70144,0.60718 -0.50996,0.77402 c -0.78871,1.19712 -2.90567,3.96211 -4.85425,6.34022 -18.8833,23.04575 -45.76488,41.49918 -74.43913,51.10029 -6.46934,2.16615 -12.07966,3.71153 -14.43411,3.97591 -0.96676,0.10856 -1.10786,0.084 -1.27124,-0.22127 z"
     id="path915"
     transform="matrix(0.26458333,0,0,0.26458333,-8.989059,-97.889059)" />
  <path
     style="fill:#ffffff;fill-opacity:0;stroke:#ff0000;stroke-width:0.096;stroke-miterlimit:4;stroke-dasharray:none;stroke-opacity:1"
     d="m 197.44859,745.8448 c -9.99221,-0.39076 -21.36526,-1.36955 -26.80278,-2.3067 -4.44139,-0.76547 -12.03384,-2.72328 -19.42433,-5.00881 -8.6889,-2.68708 -12.90505,-4.39759 -13.653,-5.53911 -0.24482,-0.37365 -0.25238,-0.52352 -0.0545,-1.08173 0.37048,-1.04523 3.02765,-7.44464 5.70078,-13.72945 2.94649,-6.92753 5.22598,-12.56845 5.3701,-13.28908 0.13092,-0.65456 0.11381,-0.66708 -2.48987,-1.82066 -6.46071,-2.86248 -13.94537,-7.08445 -21.03643,-11.86628 -3.3446,-2.25542 -6.55989,-4.78909 -6.72078,-5.29601 -0.0851,-0.26816 0.14797,-0.7112 0.90606,-1.72218 3.76695,-5.02361 13.84848,-17.18265 14.24679,-17.18265 0.0751,0 0.9531,0.63297 1.95105,1.4066 7.35135,5.69883 17.82149,11.21321 29.39164,15.47988 6.71904,2.47776 12.05352,3.82445 18.11961,4.5743 7.9449,0.9821 14.30615,1.42291 20.50609,1.42099 5.35339,-0.002 6.05873,-0.0399 10.34144,-0.56012 2.52791,-0.30709 5.52881,-0.61325 6.66867,-0.68036 l 2.07247,-0.12202 0.19586,0.50988 c 1.16999,3.04592 9.8569,43.98491 11.21507,52.85357 l 0.11102,0.7249 -1.02755,0.28653 c -2.3443,0.65371 -10.35939,1.8272 -17.73294,2.59629 -4.05476,0.42293 -12.02553,0.58017 -17.85444,0.35222 z"
     id="path917"
     transform="matrix(0.26458333,0,0,0.26458333,-8.989059,-97.889059)" />
  <path
     style="fill:#ffffff;fill-opacity:0;stroke:#ff0000;stroke-width:0.096;stroke-miterlimit:4;stroke-dasharray:none;stroke-opacity:1"
     d="M 69.705078,681.0117 C 59.389486,666.81772 52.023334,653.14818 46.437763,637.83399 c -2.685053,-7.36172 -4.602676,-13.63251 -4.270451,-13.96473 0.0893,-0.0893 6.64788,-1.83178 14.574615,-3.87216 7.926737,-2.04038 14.638193,-3.79568 14.914348,-3.90068 0.482799,-0.18356 0.497664,-0.22435 0.386682,-1.06097 -0.06348,-0.47854 -0.392471,-1.96826 -0.731091,-3.31048 -1.763101,-6.98863 -3.415414,-21.41848 -3.143699,-27.45432 l 0.107432,-2.38649 6.647932,0.0418 c 7.271914,0.0457 16.091346,0.33297 16.911797,0.55085 0.688915,0.18295 1.025789,1.13965 0.903445,2.56571 -0.242387,2.8253 0.964793,12.951 2.373784,19.91102 2.905117,14.35047 9.926523,29.6896 19.242753,42.03818 3.93588,5.21698 6.59587,8.19624 12.49665,13.99665 l 4.31285,4.23948 -0.25947,0.621 c -0.14271,0.34155 -0.80703,1.35728 -1.47627,2.25717 -1.05403,1.41733 -8.15151,10.20682 -11.98892,14.84704 l -1.27654,1.54359 -2.54348,-2.18544 c -1.39892,-1.202 -4.64783,-4.36019 -7.21981,-7.01822 -7.956602,-8.2228 -8.933839,-9.17471 -9.418787,-9.17471 -0.563757,0 -1.784941,0.82922 -4.242026,2.88047 -4.606919,3.846 -19.818882,15.85786 -20.08258,15.85786 -0.08665,0 -1.414979,-1.7302 -2.951849,-3.84489 z"
     id="path919"
     transform="matrix(0.26458333,0,0,0.26458333,-8.989059,-97.889059)" />
</svg>
