<?xml version="1.0" encoding="UTF-8" standalone="no"?>
<svg
   xmlns:dc="http://purl.org/dc/elements/1.1/"
   xmlns:cc="http://creativecommons.org/ns#"
   xmlns:rdf="http://www.w3.org/1999/02/22-rdf-syntax-ns#"
   xmlns:svg="http://www.w3.org/2000/svg"
   xmlns="http://www.w3.org/2000/svg"
   xmlns:sodipodi="http://sodipodi.sourceforge.net/DTD/sodipodi-0.dtd"
   xmlns:inkscape="http://www.inkscape.org/namespaces/inkscape"
   height="1080"
   version="1.1"
   width="1080"
   id="svg125"
   sodipodi:docname="clockFace_svg.svg"
   inkscape:export-filename="C:\Users\moogtron 4k\Desktop\zumzumzum\blender projects\ece_3872\SVG output\clockfaceSVG0041.png"
   inkscape:export-xdpi="96"
   inkscape:export-ydpi="96"
   inkscape:version="1.0 (4035a4fb49, 2020-05-01)">
  <metadata
     id="metadata131">
    <rdf:RDF>
      <cc:Work
         rdf:about="">
        <dc:format>image/svg+xml</dc:format>
        <dc:type
           rdf:resource="http://purl.org/dc/dcmitype/StillImage" />
        <dc:title />
      </cc:Work>
    </rdf:RDF>
  </metadata>
  <defs
     id="defs129" />
  <sodipodi:namedview
     inkscape:document-rotation="0"
     pagecolor="#ffffff"
     bordercolor="#666666"
     borderopacity="1"
     objecttolerance="10"
     gridtolerance="10"
     guidetolerance="10"
     inkscape:pageopacity="0"
     inkscape:pageshadow="2"
     inkscape:window-width="1920"
     inkscape:window-height="1001"
     id="namedview127"
     showgrid="false"
     inkscape:zoom="1.8330814"
     inkscape:cx="423.42365"
     inkscape:cy="449.95126"
     inkscape:window-x="-9"
     inkscape:window-y="-9"
     inkscape:window-maximized="1"
     inkscape:current-layer="svg125">
    <inkscape:grid
       type="xygrid"
       id="grid956" />
  </sodipodi:namedview>
  <g
     id="View Layer_Edges"
     inkscape:groupmode="lineset"
     inkscape:label="View Layer_Edges">
    <g
       id="g122"
       inkscape:groupmode="layer"
       inkscape:label="strokes" />
  </g>
  <path
     style="fill:#000000;stroke-width:1.00408"
     d="m 421.35501,709.01761 c -16.9432,-1.39487 -40.58236,-6.60375 -59.2949,-13.06558 -12.06391,-4.16591 -34.95016,-15.97198 -47.8146,-24.66554 -34.62806,-23.40105 -65.08902,-60.69964 -81.0929,-99.29599 -2.28988,-5.52246 -4.58602,-10.94451 -5.10253,-12.049 -2.57791,-5.51248 -6.3064,-18.50695 -8.93306,-31.13334 -4.16998,-20.04509 -5.56881,-40.70974 -4.12633,-60.95762 0.63291,-8.88413 1.3667,-16.50239 1.63063,-16.92944 0.26393,-0.42706 1.60913,-6.3453 2.98934,-13.15163 4.83717,-23.85408 15.1783,-50.16628 28.93556,-73.62427 40.94671,-69.81969 125.49213,-113.1063 208.90757,-106.95907 51.85013,3.82105 97.47059,23.48016 139.52148,60.12367 16.56836,14.4378 38.00339,43.3919 49.03426,66.2347 11.3378,23.47838 19.78055,55.36128 21.98339,83.01723 4.90647,61.5995 -14.38534,118.89924 -56.01746,166.38085 -47.22342,53.85845 -117.89369,82.06238 -190.62045,76.07503 z m 57.78635,-3.97113 c 13.47854,-2.4787 27.27263,-5.85605 28.40386,-6.9544 0.75115,-0.72931 -20.80902,-71.06802 -22.25841,-72.61665 -0.37864,-0.40457 -6.09576,0.45391 -12.70472,1.90775 -10.43308,2.29506 -14.39754,2.64981 -30.08978,2.69256 -15.04895,0.041 -19.87897,-0.33065 -28.86228,-2.22071 -17.233,-3.62579 -38.57612,-11.80793 -48.64076,-18.64702 -2.08552,-1.41714 -4.09654,-2.57663 -4.46894,-2.57663 -0.79623,0 -18.94253,26.68081 -18.92962,27.83254 0.0264,2.36039 25.99533,15.86018 38.15993,19.83723 3.0299,0.99059 5.66116,1.93005 5.84724,2.0877 0.18608,0.15764 -2.37791,8.56868 -5.69774,18.6912 -3.31983,10.1225 -6.1831,19.25615 -6.36282,20.29698 -0.2567,1.48657 0.80421,2.28113 4.94675,3.70488 7.07902,2.43299 29.96286,7.03053 39.91024,8.0183 14.50903,1.44073 47.87998,0.31253 60.74705,-2.05373 z M 377.40995,677.33845 c 3.4236,-10.44822 6.25144,-19.25313 6.2841,-19.56646 0.0326,-0.31334 -2.53869,-1.38607 -5.71411,-2.38385 -8.32772,-2.61676 -28.29115,-12.84293 -38.85378,-19.90267 -5.00016,-3.34194 -13.53073,-9.9227 -18.95682,-14.62389 l -9.86563,-8.54761 -14.73442,14.79489 -14.73442,14.79488 4.51838,4.02923 c 20.32788,18.1272 35.42439,28.65583 55.47187,38.68727 13.53578,6.77308 27.56208,12.50275 29.3646,11.99527 0.54753,-0.15416 3.79663,-8.82883 7.22023,-19.27706 z m 147.41721,14.94081 c 41.06128,-16.27684 78.39412,-46.13962 102.77986,-82.21428 3.38977,-5.01458 6.16321,-9.53493 6.16321,-10.04522 0,-0.51028 -8.07471,-5.77179 -17.94381,-11.69224 l -17.94381,-10.76446 4.44525,-8.56274 c 2.4449,-4.70952 5.51924,-10.99121 6.83189,-13.95933 l 2.38662,-5.39659 -16.05616,-6.25692 c -8.83088,-3.44129 -16.15174,-6.09466 -16.26859,-5.89636 -0.11684,0.1983 -2.01113,4.1846 -4.20953,8.85845 -13.56718,28.84415 -38.40867,54.14983 -67.29396,68.55142 -4.94842,2.46718 -11.25633,5.3052 -14.01756,6.30671 -2.76123,1.00151 -5.37078,2.11921 -5.79901,2.48377 -0.42823,0.36457 1.22964,6.9545 3.68415,14.64428 2.45451,7.68978 7.49139,23.69594 11.19305,35.56923 3.70167,11.87329 6.95035,21.96328 7.21929,22.42222 0.66503,1.13483 4.1643,0.17964 14.82911,-4.04794 z M 306.38495,614.25234 c 1.90313,-1.98254 3.85657,-3.60463 4.34097,-3.60463 0.4844,0 4.61169,3.41462 9.17176,7.58804 4.56007,4.17343 10.77857,9.35273 13.8189,11.50955 l 5.52787,3.92152 9.6817,-14.27079 c 9.65789,-14.23565 9.67625,-14.27448 7.4579,-15.7769 -1.22309,-0.82837 -5.84464,-4.58449 -10.27012,-8.34693 -19.40302,-16.49604 -34.47364,-38.26874 -43.19678,-62.40698 -3.32296,-9.19511 -7.52307,-27.5285 -7.52307,-32.83802 0,-1.59718 -0.57585,-3.12493 -1.27967,-3.39501 -0.70383,-0.27009 -8.49803,0.0837 -17.32044,0.78631 l -16.04077,1.27736 0.30368,5.50312 c 0.39622,7.18003 4.79386,27.92327 7.39205,34.86756 1.12156,2.99763 1.8821,5.5765 1.69011,5.73084 -0.192,0.15434 -9.15992,3.36202 -19.92872,7.12818 -10.76879,3.76616 -19.75782,6.98741 -19.97561,7.15835 -0.70303,0.55175 3.01139,9.576 9.44527,22.94742 7.55475,15.70093 20.18959,34.89105 31.60758,48.00645 l 8.38568,9.63229 11.62573,-10.90656 c 6.39415,-5.9986 13.18284,-12.52862 15.08598,-14.51117 z m 163.51863,11.34388 c 43.10141,-8.28193 81.67973,-37.55544 101.53491,-77.04545 5.79354,-11.52277 10.63068,-25.7621 13.18504,-38.81345 3.00621,-15.36003 3.01388,-38.95322 0.0173,-53.21643 -6.45853,-30.74163 -19.11861,-54.58418 -40.23401,-75.7721 -27.72569,-27.82092 -62.76765,-42.3316 -102.41652,-42.41014 -23.89878,-0.0473 -43.87353,4.55985 -64.44201,14.86356 -41.15259,20.61525 -68.75519,56.39452 -78.25675,101.4386 -3.31239,15.70307 -3.30259,41.31807 0.0218,57.0844 10.7494,50.97988 45.99648,91.53663 94.10628,108.28255 10.6198,3.69651 27.356,7.3918 36.52165,8.06385 10.08738,0.73962 29.48305,-0.4618 39.96232,-2.47539 z m 173.42066,-41.08506 c 11.49337,-22.93625 21.03958,-55.79249 23.06842,-79.3972 l 0.65629,-7.63562 -6.34751,-0.61273 c -3.49112,-0.337 -13.01211,-0.91995 -21.15773,-1.29546 l -14.81024,-0.68274 -0.0257,5.41679 c -0.0387,8.15171 -5.29095,32.10311 -9.77513,44.57604 -2.18393,6.07471 -6.32213,15.72366 -9.196,21.44212 -2.87388,5.71844 -4.98717,10.63525 -4.69619,10.92623 1.45722,1.45722 33.40456,20.2722 34.47969,20.30637 0.68636,0.0218 4.19819,-5.8479 7.80406,-13.0438 z M 247.90173,550.87382 c 10.26618,-3.60661 19.02431,-6.77906 19.46252,-7.04989 0.43822,-0.27083 -0.0542,-2.96577 -1.09426,-5.98875 -2.39257,-6.95413 -5.83704,-22.78292 -7.09342,-32.59723 -1.18544,-9.26018 -1.40789,-29.00539 -0.44228,-39.2588 l 0.71676,-7.61117 -20.19347,-2.83822 c -11.10642,-1.56102 -20.51768,-2.51401 -20.91394,-2.11776 -0.39625,0.39625 -1.1542,7.31987 -1.68434,15.38581 -1.69288,25.75715 1.69389,55.44807 9.10806,79.84775 1.46831,4.83215 2.84942,8.78573 3.06914,8.78573 0.21971,0 8.79906,-2.95086 19.06523,-6.55747 z m 367.59675,-13.51629 c 3.12839,-9.90277 6.59309,-27.04163 7.79333,-38.55136 l 0.61638,-5.91074 11.20653,0.66648 c 6.16361,0.36656 15.83789,0.94671 21.49841,1.28923 l 10.29185,0.62273 -0.009,-10.94178 c -0.0185,-23.59152 -3.73332,-47.94284 -10.55322,-69.17862 -1.9509,-6.07471 -3.90875,-11.62227 -4.35079,-12.32792 -0.61088,-0.9752 -5.36228,0.52949 -19.80479,6.27187 -19.5953,7.7913 -21.51085,8.36267 -21.51085,6.41636 0,-2.01363 -10.31688,-22.95219 -11.30904,-22.95219 -0.52475,0 -7.40839,3.72254 -15.29696,8.27231 l -14.34285,8.27231 4.05165,8.04405 c 5.21828,10.36027 10.09118,24.86531 12.91485,38.44337 1.79081,8.61141 2.23932,14.08629 2.23932,27.33547 0,17.87359 -1.96073,30.74006 -6.89548,45.24883 l -2.39712,7.04781 2.71576,1.00832 c 7.73002,2.87005 24.05549,9.15059 25.80967,9.92916 1.10449,0.49023 2.49297,0.9219 3.08551,0.95927 0.59254,0.0374 2.50364,-4.44686 4.24687,-9.96496 z M 276.3165,495.68744 c 4.69409,-0.31756 10.62149,-0.82222 13.17201,-1.12145 l 4.63729,-0.54408 0.53272,-15.23621 c 0.79328,-22.68842 5.89833,-43.16961 15.56058,-62.42815 5.89367,-11.74712 17.01346,-27.16563 26.26125,-36.41342 l 3.26094,-3.26093 -2.72264,-3.25675 c -7.25221,-8.67486 -20.63184,-21.89331 -21.5721,-21.3122 -2.37764,1.46946 -19.35957,21.38978 -22.83811,26.7898 -2.05749,3.19402 -4.02049,5.81125 -4.36221,5.81608 -0.34171,0.005 -8.55482,-5.14637 -18.25134,-11.44712 l -17.63004,-11.45591 -2.51143,3.795 c -5.48184,8.28364 -16.85093,32.65273 -21.15938,45.35414 -4.17762,12.31573 -10.37023,38.60288 -9.33724,39.63588 0.24056,0.24055 9.53001,1.69816 20.64324,3.23911 11.11323,1.54096 20.4202,3.01608 20.68215,3.27804 0.26197,0.26197 0.0335,6.10839 -0.50758,12.99204 -0.54114,6.88367 -0.68938,15.82184 -0.3294,19.86262 l 0.65449,7.34687 3.64105,-0.52799 c 2.00256,-0.29039 7.48165,-0.78781 12.17575,-1.10537 z m 356.30204,-88.44027 c 9.58313,-3.75522 17.64534,-7.40485 17.91604,-8.11028 0.87157,-2.27128 -13.3592,-29.59373 -21.96848,-42.17847 -9.02496,-13.19239 -25.53441,-32.46725 -33.51212,-39.12558 l -4.96139,-4.14087 -13.05308,15.04043 c -7.1792,8.27224 -13.19873,15.42982 -13.37675,15.90574 -0.17801,0.47593 1.36907,2.34868 3.43798,4.16169 13.84214,12.13008 31.16991,35.74413 40.24743,54.84866 3.3585,7.06829 5.87336,11.20636 6.62899,10.90765 0.66963,-0.2647 9.05826,-3.55374 18.64138,-7.30897 z m -48.33036,-8.40811 14.27726,-8.25468 -6.1467,-9.20326 c -7.0627,-10.57474 -16.389,-21.62011 -25.57493,-30.289 l -6.38381,-6.0245 14.06716,-16.06534 14.06717,-16.06534 -4.27129,-3.80692 c -15.14771,-13.5009 -48.06449,-31.49643 -71.79469,-39.25 -14.35415,-4.69005 -35.79722,-9.59009 -36.9449,-8.44242 -0.50007,0.50008 -11.38268,71.8371 -11.48337,75.27514 -0.0109,0.37503 2.57809,1.1797 5.75351,1.78814 9.85545,1.8884 28.49283,8.12064 36.86782,12.32838 22.90175,11.50625 44.78853,30.74273 58.25388,51.19982 2.08279,3.16427 4.06786,5.59828 4.41126,5.40893 0.34341,-0.18934 7.04914,-4.05886 14.90163,-8.59895 z M 293.64103,374.68808 c 11.40913,-16.11987 29.01231,-32.92835 46.42471,-44.32885 5.25186,-3.43858 9.54884,-6.6122 9.54884,-7.05249 0,-0.90725 -18.679,-33.97496 -19.83409,-35.11256 -0.87885,-0.86555 -22.35963,13.34535 -30.37007,20.09175 -10.50438,8.84679 -18.61073,16.71783 -27.16525,26.37672 -10.16717,11.47973 -19.61286,24.80269 -18.38714,25.93472 2.91978,2.69662 34.07588,21.93026 34.56602,21.33868 0.32873,-0.39678 2.67638,-3.65837 5.21698,-7.24797 z m 53.35509,-4.34725 c 17.99814,-15.2559 42.75112,-27.03255 67.23523,-31.98828 8.07338,-1.63412 14.0943,-2.06853 29.01402,-2.09344 12.96259,-0.0216 18.79301,1.01807 18.81543,0.25897 0.0179,-0.60637 2.46121,-19.05633 5.37617,-39.2975 l 5.29993,-36.80211 -3.69155,-0.59032 c -2.03036,-0.32466 -10.1909,-0.87441 -18.13455,-1.22167 -36.04429,-1.57568 -73.70101,6.17033 -106.56764,21.92105 -7.04114,3.37433 -12.80207,6.26211 -12.80207,6.41729 0,0.20394 16.6268,29.67385 20.67754,36.64958 0.19694,0.33914 -4.26199,3.68236 -9.90871,7.42937 -5.64674,3.74702 -13.51667,9.5338 -17.48874,12.85949 l -7.22195,6.04673 6.28856,6.60557 c 3.45871,3.63305 8.69444,9.20363 11.63495,12.37904 2.94052,3.17542 5.57102,5.77348 5.84556,5.77348 0.27453,0 2.80706,-1.95626 5.62782,-4.34725 z"
     id="path1035"
     sodipodi:nodetypes="ssssssssssssssssssssssssssssssssssssscccsssssssscsscsssssssssssssscssssssscssssssscsssssssssscsssssscsscsssssssssssscsssssssscssccsscssscsssscsssssscssscssscscssssssscsssssscssssssscsscccssssssssssssssssssssssscssssssscssss" />
  <ellipse
     ry="226.17146"
     rx="227.09766"
     style="fill:#000000;fill-opacity:0;stroke:#f60000;stroke-width:0.949192"
     id="path1067"
     cx="441.14886"
     cy="483.45422" />
</svg>
