<?xml version="1.0" encoding="UTF-8" standalone="no"?>
<svg
   xmlns:dc="http://purl.org/dc/elements/1.1/"
   xmlns:cc="http://creativecommons.org/ns#"
   xmlns:rdf="http://www.w3.org/1999/02/22-rdf-syntax-ns#"
   xmlns:svg="http://www.w3.org/2000/svg"
   xmlns="http://www.w3.org/2000/svg"
   xmlns:sodipodi="http://sodipodi.sourceforge.net/DTD/sodipodi-0.dtd"
   xmlns:inkscape="http://www.inkscape.org/namespaces/inkscape"
   version="1.1"
   width="125.254444mm"
   height="106.878119mm"
   viewBox="-8.989059 -97.889059 125.254444 106.878119"
   id="svg4435"
   sodipodi:docname="clockFace_noPCB.svg"
   inkscape:version="1.0 (4035a4fb49, 2020-05-01)">
  <metadata
     id="metadata4439">
    <rdf:RDF>
      <cc:Work
         rdf:about="">
        <dc:format>image/svg+xml</dc:format>
        <dc:type
           rdf:resource="http://purl.org/dc/dcmitype/StillImage" />
        <dc:title>C:/Users/moogtron 4k/Desktop/College/Spring 2021/ECE3872 - Junior Design/Robot Orchestra Project/clocks_are_robots/schematics and PCBs/Main_Schematic_and_PCB/Finalized Eagle Board Junior Design.brd</dc:title>
      </cc:Work>
    </rdf:RDF>
  </metadata>
  <sodipodi:namedview
     inkscape:document-rotation="0"
     pagecolor="#ffffff"
     bordercolor="#666666"
     borderopacity="1"
     objecttolerance="10"
     gridtolerance="10"
     guidetolerance="10"
     inkscape:pageopacity="0"
     inkscape:pageshadow="2"
     inkscape:window-width="1920"
     inkscape:window-height="1001"
     id="namedview4437"
     showgrid="false"
     inkscape:zoom="1.8590666"
     inkscape:cx="171.97246"
     inkscape:cy="214.85425"
     inkscape:window-x="-9"
     inkscape:window-y="-9"
     inkscape:window-maximized="1"
     inkscape:current-layer="svg4435" />
  <title
     id="title2">C:/Users/moogtron 4k/Desktop/College/Spring 2021/ECE3872 - Junior Design/Robot Orchestra Project/clocks_are_robots/schematics and PCBs/Main_Schematic_and_PCB/Finalized Eagle Board Junior Design.brd</title>
  <desc
     id="desc4">generated by eagle2svg 1.4, </desc>
  <defs
     id="defs8">
    <style
       type="text/css"
       id="style6"><![CDATA[
path.l1 {stroke:#c90d0c; fill:none; }
line.l1 {stroke:#c90d0c; fill:none; }
circle.l1 {stroke:#c90d0c; fill:none; }
circle.j1 {fill:#c90d0c; }
rect.l1 {fill:#c90d0c; }
text.l1 {font-family:sans-serif; fill:#c90d0c; }
polygon.l1 {fill:#c90d0c; }
path.l16 {stroke:#0696d7; fill:none; }
line.l16 {stroke:#0696d7; fill:none; }
circle.l16 {stroke:#0696d7; fill:none; }
circle.j16 {fill:#0696d7; }
rect.l16 {fill:#0696d7; }
text.l16 {font-family:sans-serif; fill:#0696d7; }
polygon.l16 {fill:#0696d7; }
path.l17 {stroke:#3ddc97; fill:none; }
line.l17 {stroke:#3ddc97; fill:none; }
circle.l17 {stroke:#3ddc97; fill:none; }
circle.j17 {fill:#3ddc97; }
rect.l17 {fill:#3ddc97; }
text.l17 {font-family:sans-serif; fill:#3ddc97; }
polygon.l17 {fill:#3ddc97; }
path.l18 {stroke:#3ddc97; fill:none; }
line.l18 {stroke:#3ddc97; fill:none; }
circle.l18 {stroke:#3ddc97; fill:none; }
circle.j18 {fill:#3ddc97; }
rect.l18 {fill:#3ddc97; }
text.l18 {font-family:sans-serif; fill:#3ddc97; }
polygon.l18 {fill:#3ddc97; }
path.l20 {stroke:#eec643; fill:none; }
line.l20 {stroke:#eec643; fill:none; }
circle.l20 {stroke:#eec643; fill:none; }
circle.j20 {fill:#eec643; }
rect.l20 {fill:#eec643; }
text.l20 {font-family:sans-serif; fill:#eec643; }
polygon.l20 {fill:#eec643; }
path.l21 {stroke:#c8c8c8; fill:none; }
line.l21 {stroke:#c8c8c8; fill:none; }
circle.l21 {stroke:#c8c8c8; fill:none; }
circle.j21 {fill:#c8c8c8; }
rect.l21 {fill:#c8c8c8; }
text.l21 {font-family:sans-serif; fill:#c8c8c8; }
polygon.l21 {fill:#c8c8c8; }
path.l22 {stroke:#c8c8c8; fill:none; }
line.l22 {stroke:#c8c8c8; fill:none; }
circle.l22 {stroke:#c8c8c8; fill:none; }
circle.j22 {fill:#c8c8c8; }
rect.l22 {fill:#c8c8c8; }
text.l22 {font-family:sans-serif; fill:#c8c8c8; }
polygon.l22 {fill:#c8c8c8; }
path.l23 {stroke:#000000; fill:none; }
line.l23 {stroke:#000000; fill:none; }
circle.l23 {stroke:#000000; fill:none; }
circle.j23 {fill:#000000; }
rect.l23 {fill:#000000; }
text.l23 {font-family:sans-serif; fill:#000000; }
polygon.l23 {fill:#000000; }
path.l24 {stroke:#000000; fill:none; }
line.l24 {stroke:#000000; fill:none; }
circle.l24 {stroke:#000000; fill:none; }
circle.j24 {fill:#000000; }
rect.l24 {fill:#000000; }
text.l24 {font-family:sans-serif; fill:#000000; }
polygon.l24 {fill:#000000; }
path.l25 {stroke:#c8c8c8; fill:none; }
line.l25 {stroke:#c8c8c8; fill:none; }
circle.l25 {stroke:#c8c8c8; fill:none; }
circle.j25 {fill:#c8c8c8; }
rect.l25 {fill:#c8c8c8; }
text.l25 {font-family:sans-serif; fill:#c8c8c8; }
polygon.l25 {fill:#c8c8c8; }
path.l26 {stroke:#c8c8c8; fill:none; }
line.l26 {stroke:#c8c8c8; fill:none; }
circle.l26 {stroke:#c8c8c8; fill:none; }
circle.j26 {fill:#c8c8c8; }
rect.l26 {fill:#c8c8c8; }
text.l26 {font-family:sans-serif; fill:#c8c8c8; }
polygon.l26 {fill:#c8c8c8; }
path.l39 {stroke:#c90d0c; fill:none; }
line.l39 {stroke:#c90d0c; fill:none; }
circle.l39 {stroke:#c90d0c; fill:none; }
circle.j39 {fill:#c90d0c; }
rect.l39 {fill:#c90d0c; }
text.l39 {font-family:sans-serif; fill:#c90d0c; }
polygon.l39 {fill:#c90d0c; }
path.l40 {stroke:#0696d7; fill:none; }
line.l40 {stroke:#0696d7; fill:none; }
circle.l40 {stroke:#0696d7; fill:none; }
circle.j40 {fill:#0696d7; }
rect.l40 {fill:#0696d7; }
text.l40 {font-family:sans-serif; fill:#0696d7; }
polygon.l40 {fill:#0696d7; }
path.l41 {stroke:#c90d0c; fill:none; }
line.l41 {stroke:#c90d0c; fill:none; }
circle.l41 {stroke:#c90d0c; fill:none; }
circle.j41 {fill:#c90d0c; }
rect.l41 {fill:#c90d0c; }
text.l41 {font-family:sans-serif; fill:#c90d0c; }
polygon.l41 {fill:#c90d0c; }
path.l42 {stroke:#0696d7; fill:none; }
line.l42 {stroke:#0696d7; fill:none; }
circle.l42 {stroke:#0696d7; fill:none; }
circle.j42 {fill:#0696d7; }
rect.l42 {fill:#0696d7; }
text.l42 {font-family:sans-serif; fill:#0696d7; }
polygon.l42 {fill:#0696d7; }
path.l51 {stroke:#c8c8c8; fill:none; }
line.l51 {stroke:#c8c8c8; fill:none; }
circle.l51 {stroke:#c8c8c8; fill:none; }
circle.j51 {fill:#c8c8c8; }
rect.l51 {fill:#c8c8c8; }
text.l51 {font-family:sans-serif; fill:#c8c8c8; }
polygon.l51 {fill:#c8c8c8; }
path.l52 {stroke:#c8c8c8; fill:none; }
line.l52 {stroke:#c8c8c8; fill:none; }
circle.l52 {stroke:#c8c8c8; fill:none; }
circle.j52 {fill:#c8c8c8; }
rect.l52 {fill:#c8c8c8; }
text.l52 {font-family:sans-serif; fill:#c8c8c8; }
polygon.l52 {fill:#c8c8c8; }
circle.j0 {fill:#afd134; }
]]></style>
  </defs>
  <path
     sodipodi:nodetypes="ssssssssssssssssssssssssssssssssssssscccsssssssscsscsssssssssssssscssssssscssssssscsssssssssscsssssscsscsssssssssssscsssssssscssccsscssscsssscsssssscssscssscscssssssscsssssscssssssscsscccssssssssssssssssssssssscssssssscssss"
     id="path1035"
     d="M 36.248716,-0.36390483 C 33.015827,-0.92311211 28.561367,-2.3320225 25.075441,-3.897908 22.828075,-4.9074258 18.631704,-7.5746239 16.308258,-9.4702867 10.054094,-14.572978 4.8397409,-22.282117 2.4266588,-29.993501 c -0.3452683,-1.103361 -0.6934686,-2.187488 -0.7737723,-2.409161 -0.4008087,-1.106381 -0.89422004,-3.674169 -1.18215368,-6.152147 -0.45712189,-3.933924 -0.3709145,-7.939727 0.25428916,-11.81652 0.2743168,-1.701017 0.54627792,-3.156384 0.60434952,-3.234147 0.058069,-0.07777 0.4183425,-1.195075 0.8006045,-2.482913 1.3397079,-4.513473 3.7796339,-9.406247 6.8271711,-13.69049 9.0705989,-12.751496 26.0659059,-19.643031 41.9945609,-17.028637 9.901079,1.625077 18.332526,6.19517 25.785984,13.976761 2.9367,3.066001 6.55947,9.012541 8.287315,13.603159 1.775937,4.718347 2.850969,11.00652 2.799171,16.373242 -0.11535,11.953581 -4.808269,22.663844 -13.626772,31.099317 C 64.19454,-2.1866726 50.125519,2.0364627 36.248716,-0.36390483 Z m 11.176045,0.22538068 c 2.633467,-0.24656919 5.343031,-0.66088382 5.579352,-0.85313146 0.156919,-0.12765519 -2.778762,-14.05064739 -3.030755,-14.37389339 -0.06583,-0.08445 -1.179541,-0.01703 -2.47491,0.149816 -2.044902,0.263386 -2.813056,0.263783 -5.830185,0.003 -2.893442,-0.250099 -3.815495,-0.40447 -5.509806,-0.922654 -3.250258,-0.994052 -7.21228,-2.936516 -9.029406,-4.42685 -0.376534,-0.308814 -0.743175,-0.566708 -0.814755,-0.573091 -0.153054,-0.01365 -4.099641,4.816357 -4.116949,5.038498 -0.03548,0.455274 4.724342,3.501674 6.994307,4.476529 0.565391,0.24281 1.055035,0.468939 1.088096,0.502504 0.03306,0.03357 -0.604326,1.6103186 -1.41641,3.5039021 -0.812085,1.8935721 -1.519414,3.6044307 -1.571844,3.8019048 -0.07489,0.2820464 0.115386,0.4533316 0.887207,0.7986824 1.318938,0.5901573 5.638714,1.8683189 7.533848,2.22916787 2.7642,0.5263228 9.198219,0.88097159 11.71221,0.64558868 z M 28.345863,-7.2213914 c 0.837628,-1.9545575 1.532499,-3.6026786 1.544161,-3.6624986 0.01166,-0.05982 -0.464173,-0.310595 -1.057417,-0.557289 -1.555804,-0.646971 -5.217498,-2.959641 -7.126557,-4.50103 -0.903714,-0.729661 -2.430395,-2.143923 -3.392629,-3.142798 l -1.749515,-1.816136 -3.086504,2.59822 -3.086509,2.598215 0.799294,0.853838 c 3.595979,3.841347 6.316945,6.1288702 9.998138,8.4054562 2.485493,1.5371168 5.083199,2.8815942 5.438403,2.8147071 0.107898,-0.02032 0.881508,-1.6361267 1.719135,-3.5906847 z m 28.080103,5.4059201 c 8.17257,-2.4324791 15.861919,-7.5467168 21.169277,-14.0798487 0.737764,-0.908139 1.348546,-1.73161 1.357314,-1.829939 0.0088,-0.09832 -1.452957,-1.250573 -3.248282,-2.560544 l -3.264224,-2.38177 1.001621,-1.573737 c 0.550886,-0.865552 1.249781,-2.023262 1.553094,-2.572679 l 0.551507,-0.998946 -2.978841,-1.480866 c -1.63836,-0.814472 -2.999985,-1.451236 -3.025865,-1.415029 -0.02586,0.03621 -0.45848,0.771845 -0.961376,1.634752 -3.103558,5.325349 -8.313476,9.775617 -14.113333,12.055479 -0.99359,0.390569 -2.254877,0.82929 -2.802857,0.974939 -0.547976,0.145642 -1.068797,0.31628 -1.157375,0.379188 -0.08858,0.0629 0.116859,1.361122 0.456537,2.884926 0.339671,1.523801 1.032831,4.6943353 1.540347,7.0456266 0.507517,2.3512907 0.958605,4.3511955 1.002417,4.4442385 0.108333,0.2300674 0.797381,0.1059994 2.920039,-0.5257904 z M 15.77733,-20.594819 c 0.399888,-0.349388 0.803257,-0.628457 0.896367,-0.620154 0.09311,0.0083 0.827793,0.737006 1.632629,1.619341 0.804832,0.882337 1.911166,1.986926 2.458522,2.454634 l 0.995191,0.850386 2.10626,-2.583845 c 2.101078,-2.577481 2.105271,-2.584646 1.704673,-2.912171 -0.220869,-0.180583 -1.04469,-0.983566 -1.830713,-1.784405 -3.446231,-3.511186 -5.969008,-7.964861 -7.231011,-12.765536 -0.480744,-1.828748 -0.973066,-5.433364 -0.88183,-6.456445 0.02744,-0.307754 -0.05699,-0.612007 -0.187643,-0.676113 -0.130651,-0.06411 -1.634946,-0.129546 -3.342884,-0.145392 l -3.1053344,-0.02884 -0.036191,1.065591 c -0.047215,1.390295 0.4416676,5.462647 0.8217708,6.845267 0.1640802,0.59683 0.2659616,1.106785 0.2264036,1.133234 -0.039556,0.02645 -1.8185101,0.490802 -3.9532258,1.031897 -2.134713,0.541095 -3.9179567,1.007703 -3.9627595,1.036907 -0.1446181,0.09427 0.4143089,1.896799 1.4212761,4.583599 1.1823934,3.154879 3.2813347,7.069164 5.2507597,9.79207 l 1.4463955,1.99977 2.422134,-1.902271 c 1.332171,-1.046253 2.749317,-2.188136 3.149211,-2.537526 z m 31.236956,4.988848 c 8.427355,-0.85699 16.345976,-5.836331 20.841155,-13.105223 1.311643,-2.120984 2.486138,-4.781809 3.201396,-7.252856 0.841797,-2.908161 1.248687,-7.454148 0.917728,-10.253865 -0.713221,-6.034251 -2.737075,-10.845437 -6.431834,-15.290049 -4.851432,-5.836019 -11.337925,-9.232739 -18.957961,-9.927529 -4.593055,-0.418834 -8.511815,0.126554 -12.642584,1.75937 -8.264675,3.266876 -14.185315,9.687941 -16.785737,18.204513 -0.906544,2.969009 -1.344814,7.904876 -0.976722,10.99984 1.190262,10.007465 7.268623,18.426458 16.228633,22.477885 1.977843,0.894314 5.131411,1.893243 6.881703,2.179856 1.926307,0.315431 5.675227,0.416409 7.724174,0.208054 z m 34.041249,-4.943834 c 2.603409,-4.222516 5.002982,-10.389872 5.79859,-14.903434 l 0.257344,-1.460042 -1.2096,-0.226875 c -0.665276,-0.124777 -2.485406,-0.400313 -4.044716,-0.612301 l -2.835116,-0.385428 -0.09806,1.043302 c -0.147545,1.570068 -1.568692,6.095181 -2.644979,8.421696 -0.524181,1.133084 -1.485434,2.921381 -2.136122,3.973996 -0.650674,1.052609 -1.141384,1.963795 -1.090468,2.024847 0.25509,0.305772 6.072758,4.478829 6.27883,4.503839 0.131566,0.01595 0.907472,-1.054856 1.724253,-2.379604 z M 5.6246261,-33.809602 c 2.0353584,-0.518967 3.7733759,-0.980127 3.8622664,-1.024801 0.088889,-0.04467 0.040523,-0.572396 -0.107435,-1.172717 -0.3404111,-1.380991 -0.7305194,-4.49005 -0.8033767,-6.402681 -0.068751,-1.804647 0.2277801,-5.613119 0.5895783,-7.572276 l 0.2685659,-1.454292 -3.8328604,-0.893045 c -2.1080726,-0.491173 -3.9007501,-0.83613 -3.9837292,-0.766571 -0.082977,0.06956 -0.3476422,1.390665 -0.5881499,2.935784 -0.76800157,4.93407 -0.62718222,10.713207 0.3787112,15.541818 0.1992107,0.956264 0.3967542,1.741749 0.4389912,1.745515 0.042232,0.0038 1.7420764,-0.417762 3.7774382,-0.936734 z m 70.8924599,3.696885 c 0.771512,-1.854517 1.732005,-5.097575 2.16049,-7.294787 l 0.22005,-1.128359 2.142683,0.320521 c 1.178481,0.176286 3.028125,0.45391 4.110312,0.61694 l 1.967628,0.296416 0.186125,-2.108514 c 0.401698,-4.546129 0.106199,-9.301997 -0.839833,-13.510781 -0.270622,-1.203965 -0.551646,-2.306472 -0.624485,-2.450021 -0.10067,-0.198379 -1.039851,0.01011 -3.91469,0.869022 -3.900528,1.165389 -4.278571,1.242647 -4.245127,0.867617 0.0346,-0.387998 -1.588736,-4.599458 -1.779439,-4.616464 -0.100877,-0.009 -1.488026,0.590294 -3.082569,1.331752 l -2.899147,1.348113 0.640582,1.61944 c 0.825046,2.08575 1.512478,4.964223 1.821942,7.628956 0.196257,1.690008 0.18839,2.752643 -0.03928,5.305597 -0.30713,3.444023 -0.905112,5.889623 -2.103,8.600695 l -0.581879,1.316937 0.504712,0.240844 c 1.436557,0.685533 4.466735,2.175566 4.790553,2.355655 0.203888,0.113388 0.46337,0.220373 0.576619,0.237729 0.113271,0.01733 0.557681,-0.813937 0.987581,-1.847323 z M 12.03486,-43.956258 c 0.907765,0.01928 2.055812,0.02364 2.55122,0.0097 l 0.900739,-0.02535 0.36421,-2.926698 c 0.542354,-4.358185 1.875593,-8.21715 4.063818,-11.762407 1.334747,-2.162498 3.737162,-4.942844 5.673696,-6.566255 l 0.682861,-0.572444 -0.467389,-0.674206 c -1.24497,-1.795856 -3.589692,-4.572243 -3.780414,-4.476389 -0.482287,0.24239 -4.08889,3.789693 -4.850333,4.770579 -0.45038,0.58018 -0.872683,1.050841 -0.938453,1.045912 -0.06575,-0.0051 -1.555993,-1.138286 -3.311612,-2.51858 l -3.1920254,-2.509629 -0.5479671,0.6882 c -1.1960694,1.502185 -3.8002016,6.002927 -4.8466375,8.376477 -1.0146543,2.301479 -2.6567168,7.260538 -2.4759024,7.477293 0.042109,0.05047 1.8026981,0.490575 3.9124275,0.978003 2.1097273,0.487424 3.8733826,0.931204 3.9192355,0.986169 0.045856,0.05497 -0.098529,1.177585 -0.3208145,2.494706 -0.2223036,1.317126 -0.4043878,3.036855 -0.4046253,3.821635 l -4.371e-4,1.426873 0.7089623,-0.03932 c 0.389925,-0.02163 1.451674,-0.02355 2.359441,-0.0043 z m 70.008804,-10.933669 c 1.906636,-0.55931 3.519079,-1.124348 3.583233,-1.255638 0.206552,-0.422709 -2.059408,-5.931353 -3.498057,-8.503859 -1.508113,-2.696721 -4.350376,-6.693749 -5.769454,-8.113482 l -0.882535,-0.882944 -2.76754,2.674354 c -1.522149,1.470894 -2.802225,2.746884 -2.844621,2.835539 -0.04239,0.08865 0.222805,0.476027 0.589338,0.860837 2.452338,2.574601 5.377336,7.421772 6.793968,11.258589 0.524121,1.419544 0.936413,2.260008 1.086808,2.215404 0.133261,-0.03953 1.802249,-0.529488 3.70886,-1.0888 z m -9.145665,-2.448614 2.886233,-1.345838 -1.023384,-1.878725 c -1.175896,-2.158687 -2.77882,-4.446867 -4.395592,-6.274722 l -1.123585,-1.270279 2.980081,-2.854455 2.980066,-2.85446 -0.75562,-0.806764 c -2.679733,-2.861118 -8.697835,-6.892894 -13.126065,-8.793692 -2.6786,-1.149773 -6.716227,-2.461523 -6.956558,-2.260054 -0.104721,0.08779 -3.422409,13.647007 -3.500842,14.307751 -0.0085,0.07208 0.475297,0.271508 1.075226,0.443178 1.861985,0.532817 5.33741,2.053172 6.874962,3.007516 4.204506,2.609692 8.081081,6.691506 10.317891,10.86416 0.345993,0.645422 0.685728,1.148454 0.754993,1.117853 0.06928,-0.0306 1.424755,-0.661259 3.012194,-1.401469 z m -55.4538,-9.635841 c 2.470083,-2.910532 6.142629,-5.847566 9.685576,-7.745826 1.068609,-0.572543 1.949117,-1.110404 1.956683,-1.19524 0.01559,-0.174818 -3.006708,-6.866754 -3.209196,-7.105758 -0.154063,-0.181845 -4.527331,2.188205 -6.183041,3.350834 -2.171196,1.524606 -3.864662,2.902301 -5.675005,4.61681 -2.151612,2.03772 -4.1962162,4.442974 -3.980058,4.682116 0.514908,0.569654 6.173295,4.809817 6.277678,4.704229 0.07001,-0.07082 0.577325,-0.659045 1.127363,-1.307165 z m 10.330729,0.07694 c 3.721785,-2.631105 8.682218,-4.476007 13.473758,-5.011211 1.579965,-0.176484 2.744782,-0.156981 5.613106,0.09397 2.492071,0.21802 3.594939,0.518317 3.612292,0.372434 0.01381,-0.116537 0.800553,-3.629733 1.708683,-7.479992 l 1.651148,-7.000466 -0.699449,-0.177028 c -0.384704,-0.09737 -1.943891,-0.343182 -3.464871,-0.546263 -6.90143,-0.921481 -14.272987,-0.07443 -20.861325,2.397148 -1.411448,0.529495 -2.568447,0.987183 -2.571113,1.017084 -0.0035,0.03929 2.686139,6.002799 3.344915,7.41638 0.03203,0.06872 -0.882526,0.636484 -2.032334,1.261693 -1.149818,0.625209 -2.762024,1.605347 -3.582692,2.178078 l -1.492127,1.04133 1.095296,1.380613 c 0.602414,0.759335 1.513115,1.922469 2.023781,2.584732 0.510665,0.662274 0.971666,1.207982 1.024436,1.212688 0.05277,0.0047 0.573196,-0.328833 1.156496,-0.741193 z"
     style="fill:#000000;stroke:#000000;stroke-width:0.114653;stroke-miterlimit:4;stroke-dasharray:none;stroke-opacity:1" />
  <circle
     cy="-43.530239"
     cx="44.003967"
     id="circle850"
     style="fill:#000000;fill-opacity:0;stroke:#f60000;stroke-width:0.136825;stroke-miterlimit:4;stroke-dasharray:none"
     r="1.9315875" />
  <rect
     y="-93.344536"
     x="-5.8103313"
     height="99.628593"
     width="99.628593"
     id="rect856"
     style="fill:#000000;fill-opacity:0;stroke:#ff0000;stroke-width:0.371406;stroke-miterlimit:4;stroke-dasharray:none;stroke-opacity:1" />
  <circle
     style="fill:#000000;fill-opacity:0;stroke:#f60000;stroke-width:0.136825;stroke-miterlimit:4;stroke-dasharray:none"
     id="circle5360"
     cx="5.0058146"
     cy="-83.005753"
     r="1.9315873" />
  <circle
     cy="-82.961281"
     cx="83.013039"
     id="circle5362"
     style="fill:#000000;fill-opacity:0;stroke:#f60000;stroke-width:0.136825;stroke-miterlimit:4;stroke-dasharray:none"
     r="1.9315873" />
  <circle
     r="1.9315873"
     style="fill:#000000;fill-opacity:0;stroke:#f60000;stroke-width:0.136825;stroke-miterlimit:4;stroke-dasharray:none"
     id="circle5364"
     cx="83.483429"
     cy="-5.0104327" />
  <circle
     cy="-4.9926429"
     cx="4.9816556"
     id="circle5366"
     style="fill:#000000;fill-opacity:0;stroke:#f60000;stroke-width:0.136825;stroke-miterlimit:4;stroke-dasharray:none"
     r="1.9315873" />
  <g
     inkscape:groupmode="layer"
     id="layer1"
     inkscape:label="pcb"
     style="display:inline" />
</svg>
