<?xml version="1.0" encoding="UTF-8" standalone="no"?>
<svg
   xmlns:dc="http://purl.org/dc/elements/1.1/"
   xmlns:cc="http://creativecommons.org/ns#"
   xmlns:rdf="http://www.w3.org/1999/02/22-rdf-syntax-ns#"
   xmlns:svg="http://www.w3.org/2000/svg"
   xmlns="http://www.w3.org/2000/svg"
   xmlns:sodipodi="http://sodipodi.sourceforge.net/DTD/sodipodi-0.dtd"
   xmlns:inkscape="http://www.inkscape.org/namespaces/inkscape"
   sodipodi:docname="hand.svg"
   inkscape:version="1.0 (4035a4fb49, 2020-05-01)"
   id="svg1001"
   version="1.1"
   viewBox="0 0 210 297"
   height="297mm"
   width="210mm">
  <defs
     id="defs995" />
  <sodipodi:namedview
     inkscape:window-maximized="1"
     inkscape:window-y="-9"
     inkscape:window-x="-9"
     inkscape:window-height="1001"
     inkscape:window-width="1920"
     showgrid="false"
     inkscape:document-rotation="0"
     inkscape:current-layer="layer1"
     inkscape:document-units="mm"
     inkscape:cy="437.40837"
     inkscape:cx="284.58611"
     inkscape:zoom="3.959798"
     inkscape:pageshadow="2"
     inkscape:pageopacity="0.0"
     borderopacity="1.0"
     bordercolor="#666666"
     pagecolor="#ffffff"
     id="base" />
  <metadata
     id="metadata998">
    <rdf:RDF>
      <cc:Work
         rdf:about="">
        <dc:format>image/svg+xml</dc:format>
        <dc:type
           rdf:resource="http://purl.org/dc/dcmitype/StillImage" />
        <dc:title></dc:title>
      </cc:Work>
    </rdf:RDF>
  </metadata>
  <g
     id="layer1"
     inkscape:groupmode="layer"
     inkscape:label="Layer 1">
    <path
       style="opacity:1;fill:none;fill-opacity:0.27451;fill-rule:evenodd;stroke:#ff0000;stroke-width:0.0254;stroke-miterlimit:4;stroke-dasharray:none;stroke-opacity:1"
       d="m 70.098425,93.235563 c -0.515784,-0.09431 -0.913053,-0.482712 -1.01716,-0.994461 -0.02908,-0.142964 -0.02913,-0.331818 -1.04e-4,-0.473753 0.03837,-0.187678 0.0994,-0.329999 0.206122,-0.48072 0.235825,-0.333039 0.613036,-0.52845 1.020114,-0.52845 0.337224,0 0.638384,0.12635 0.879188,0.368861 0.176679,0.177928 0.285911,0.381492 0.343582,0.640309 0.02319,0.104078 0.02323,0.358911 6.6e-5,0.469331 -0.03681,0.175508 -0.109987,0.346323 -0.209023,0.48792 -0.104711,0.149711 -0.291761,0.31174 -0.455165,0.394281 -0.07902,0.03993 -0.202435,0.08327 -0.298591,0.104908 -0.107792,0.02425 -0.365427,0.03068 -0.469027,0.01182 z"
       id="path4537-47" />
    <path
       id="path1835"
       d="m 65.47433,90.134439 3.042708,43.641711 6.614583,-43.779381 z"
       style="fill:none;stroke:#f60000;stroke-width:0.0254;stroke-linecap:butt;stroke-linejoin:miter;stroke-miterlimit:4;stroke-dasharray:none;stroke-opacity:1" />
  </g>
</svg>
